<?xml version="1.0" encoding="utf-8"?>
<!-- Generator: Adobe Illustrator 27.8.0, SVG Export Plug-In . SVG Version: 6.00 Build 0)  -->
<svg version="1.1" id="Layer_1" xmlns="http://www.w3.org/2000/svg" xmlns:xlink="http://www.w3.org/1999/xlink" x="0px" y="0px"
	 viewBox="0 0 283.5 62.1" style="enable-background:new 0 0 283.5 62.1;" xml:space="preserve">
<g>
	<g>
		<g>
			<path d="M90.1,0h11l-0.2,36.1l19.6-22.5h12.5l-16.3,18.5L133.9,61h-12.7l-11.8-20.5l-8.4,9.6L101,61h-11V0z"/>
			<path d="M135.6,0h11.1v61h-11.1V0z"/>
			<path d="M150.6,48.9c0-9.3,9.8-12.5,19.8-15.5c7.4-2.3,11-4,11-7.5c0-3.3-3-5.5-8.4-5.5c-6.1,0-10.1,3.5-11.1,9.3h-10.3
				c1.4-10.2,9.8-17.2,21.7-17.2c12,0,19.1,5.7,19.1,16.2V61h-11v-5.3c-3.6,3.9-8.9,6.1-14.9,6.1C156.7,61.7,150.6,56.7,150.6,48.9z
				 M169.3,54.3c4.5,0,9.2-1.8,12-5V36.2c-2,1.7-5.1,2.7-8.7,3.9c-6.4,2.1-11.1,3.7-11.1,8.4C161.5,52.2,164.5,54.3,169.3,54.3z"/>
			<path d="M191.7,13.7h11.8l6.3,18.2l6.2,18.1l6.3-18.1l6.4-18.2h11.2L222,61h-12.5L191.7,13.7z"/>
			<path d="M238.2,37.4c0-15.3,9.4-24.9,22.9-24.9c12.8,0,22.4,9.1,22.4,25.1v0.9h-34.3c0.3,10.2,4.9,15.7,11.9,15.7
				c5.7,0,9.8-3.7,11.3-10.8h10.5c-2.1,11.8-10.1,18.8-21.9,18.8C247.4,62.1,238.2,52.8,238.2,37.4z M249.6,31.8h22.7
				c-1.5-7.4-5.6-11.3-11.3-11.3C255.2,20.5,251,24.5,249.6,31.8z"/>
		</g>
		<g>
			<g>
				<path d="M30.5,15.3c8.4,0,15.3,6.8,15.3,15.3H61C61,13.7,47.4,0,30.5,0C13.7,0,0,13.7,0,30.5h15.3
					C15.3,22.1,22.1,15.3,30.5,15.3z"/>
				<path d="M15.3,30.5c0,8.4-6.8,15.3-15.3,15.3V61c16.9,0,30.5-13.7,30.5-30.5H15.3z"/>
				<path d="M61,45.8c-8.4,0-15.3-6.8-15.3-15.3l-15.3,0C30.5,47.4,44.2,61,61,61L61,45.8z"/>
			</g>
		</g>
	</g>
</g>
</svg>
