<?xml version="1.0" encoding="utf-8"?>
<!-- Generator: Adobe Illustrator 27.5.0, SVG Export Plug-In . SVG Version: 6.00 Build 0)  -->
<svg version="1.1" id="Layer_1" xmlns="http://www.w3.org/2000/svg" xmlns:xlink="http://www.w3.org/1999/xlink" x="0px" y="0px"
	 viewBox="0 0 500 500" style="enable-background:new 0 0 500 500;" xml:space="preserve">
<style type="text/css">
	.st0{fill:#020203;}
</style>
<path class="st0" d="M124.39,249.87L124.39,249.87c0-69.19,56.09-125.3,125.3-125.3c69.2,0,125.29,56.1,125.29,125.3h124.58
	C499.56,111.87,387.69,0,249.69,0C111.69,0-0.18,111.87-0.18,249.87H124.39z"/>
<path class="st0" d="M374.62,249.87H250.05c0,138,111.86,249.87,249.87,249.87V375.17C430.72,375.17,374.62,319.06,374.62,249.87"/>
<path class="st0" d="M-0.18,375.16v124.57c138,0,249.87-111.86,249.87-249.87H125.11C125.11,319.07,69.01,375.16-0.18,375.16"/>
</svg>
