<?xml version="1.0" encoding="UTF-8"?>
<svg id="Layer_1" data-name="Layer 1" xmlns="http://www.w3.org/2000/svg" viewBox="0 0 1575.1 220.36">
  <defs>
    <style>
      .cls-1 {
        stroke-width: 0px;
        fill: #777E88;
      }
    </style>
  </defs>
  <path class="cls-1" d="M332.61,109c-18.37-4.47-34.25-8.19-34.25-20.35,0-8.19,8.44-14.89,24.08-14.89,17.62,0,29.29,7.94,33.51,25.81h29.04c-4.96-30.28-28.05-47.9-62.79-47.9s-54.11,17.13-54.11,39.96c0,30.03,31.28,35.74,56.59,41.94,16.88,3.97,31.02,8.44,31.02,20.6,0,9.68-8.69,16.63-26.56,16.63s-30.03-9.68-33.51-29.04h-29.54c4.72,34.25,29.04,51.13,63.79,51.13s56.34-18.37,56.34-41.95c0-29.29-28.79-35.99-53.61-41.95Z"/>
  <path class="cls-1" d="M458.94,51.42c-38.47,0-65.28,27.3-65.28,70.99s26.31,70.49,65.03,70.49c33.75,0,56.59-19.85,62.55-53.61h-30.03c-4.47,20.35-15.89,30.78-32.27,30.78-20.11,0-33.01-15.64-34-44.68h97.79v-2.48c0-45.67-27.3-71.48-63.79-71.48ZM426.18,106.52c3.97-20.85,15.89-32.27,32.52-32.27s28.05,11.17,32.26,32.27h-64.78Z"/>
  <path class="cls-1" d="M596.69,74.75c17.37,0,29.53,11.67,33.01,34h30.28c-4.47-36.49-29.04-57.33-63.29-57.33-38.97,0-65.53,26.31-65.53,70.99s26.31,70.49,65.53,70.49c35.25,0,59.57-21.59,63.29-59.32h-30.03c-2.98,23.58-15.39,35.99-33.26,35.99-20.35,0-33.76-16.13-33.76-47.41s13.4-47.41,33.76-47.41Z"/>
  <path class="cls-1" d="M701.68,76.24v-21.34h-31.77v134.78h31.77v-92.08c6.7-10.92,19.85-16.63,34.01-16.63,3.22,0,6.45.25,9.68.74v-29.04h-3.23c-17.87,0-31.77,8.44-40.46,23.58Z"/>
  <path class="cls-1" d="M811.14,51.42c-38.47,0-65.28,27.3-65.28,70.98s26.31,70.49,65.03,70.49c33.75,0,56.59-19.85,62.55-53.61h-30.03c-4.46,20.35-15.88,30.78-32.26,30.78-20.11,0-33.01-15.64-34-44.68h97.79v-2.48c0-45.67-27.3-71.48-63.79-71.48ZM778.38,106.52c3.97-20.85,15.88-32.27,32.52-32.27s28.05,11.17,32.26,32.27h-64.78Z"/>
  <path class="cls-1" d="M936.97,28.09h-31.27v26.8h-31.77v23.33h31.77v80.67c0,19.86,10.42,30.78,32.26,30.78h38.47v-23.58h-23.83c-10.92,0-15.64-3.97-15.64-12.91v-74.96h39.47v-23.33h-39.47v-26.8Z"/>
  <path class="cls-1" d="M1046.68,51.92c-34,0-57.83,19.86-61.8,48.9h29.29c2.98-16.63,14.4-26.56,31.77-26.56,15.39,0,23.83,6.2,23.83,15.64,0,9.93-10.18,14.89-31.28,21.34-28.54,8.69-56.34,17.62-56.34,44.18,0,22.09,17.37,36.49,45.17,36.49,17.13,0,32.26-6.2,42.44-17.38v15.14h31.27v-91.59c0-30.03-20.1-46.17-54.35-46.17ZM1069.76,156.41c-7.94,8.93-21.35,14.15-34.25,14.15-13.65,0-22.34-5.71-22.34-16.14,0-13.4,13.66-18.12,31.77-24.07,10.18-3.48,19.11-6.45,24.82-11.17v37.23Z"/>
  <path class="cls-1" d="M1145.71,76.24v-21.34h-31.77v134.77h31.77v-92.08c6.7-10.92,19.85-16.63,34-16.63,3.22,0,6.45.25,9.68.74v-29.04h-3.23c-17.87,0-31.77,8.44-40.46,23.58Z"/>
  <rect class="cls-1" x="1199.07" y="16.67" width="31.77" height="27.05"/>
  <rect class="cls-1" x="1199.07" y="54.9" width="31.77" height="134.77"/>
  <path class="cls-1" d="M1331.86,154.42c-6.21,8.69-16.88,14.64-29.04,14.64-16.38,0-27.3-9.68-27.3-27.3V54.9h-31.77v91.84c0,27.55,18.87,45.67,47.91,45.67,16.63,0,30.78-7.2,40.21-18.61v15.88h31.77V54.9h-31.77v99.53Z"/>
  <path class="cls-1" d="M1529.18,52.17c-18.37,0-33.51,8.19-43.19,20.85-7.2-13.15-20.85-20.85-38.47-20.85-16.38,0-30.04,7.2-38.97,18.86v-16.14h-31.77v134.78h31.77v-100.27c5.96-8.19,15.64-13.65,27.05-13.65,14.64,0,24.57,8.93,24.57,26.06v87.86h31.77v-91.83c0-3.48-.25-6.7-.74-9.68,6.45-7.45,15.63-12.41,26.55-12.41,15.39,0,25.81,8.93,25.81,26.06v87.86h31.52v-91.83c0-27.55-18.12-45.67-45.92-45.67Z"/>
  <path class="cls-1" d="M48.95,53l59.05,114.35h59.05l-59.05-114.35h-59.05ZM50.82,110.18H0c0,59.65,48.35,108,108,108v-50.82c-31.58,0-57.17-25.6-57.18-57.17ZM108,2.18v50.82c31.58,0,57.17,25.6,57.17,57.17h50.82c0-59.65-48.35-108-108-108Z"/>
</svg>