<svg xmlns="http://www.w3.org/2000/svg" id="uuid-98d94f6b-169c-4be2-a7f6-fa2547ecd4c4" width="339.58" height="72.79" viewBox="0 0 339.58 72.79"><path fill="#777E88" d="M62.37,0H10.43C4.68,0,0,4.68,0,10.43V62.37c0,5.75,4.68,10.43,10.43,10.43H62.37c5.75,0,10.43-4.68,10.43-10.43V10.43c0-5.75-4.68-10.43-10.43-10.43Zm7.14,62.37c0,3.93-3.2,7.14-7.14,7.14H10.43c-3.93,0-7.14-3.2-7.14-7.14V10.43c0-3.93,3.2-7.14,7.14-7.14H62.37c3.94,0,7.14,3.2,7.14,7.14V62.37Z"/><path fill="#777E88" d="M49.17,42.11h-.02c-1.87,0-3.62,.73-4.95,2.04-1.33,1.33-2.06,3.09-2.07,4.97,0,1.84,.71,3.58,1.99,4.91,1.32,1.35,3.1,2.1,5.01,2.1h0c1.89,0,3.66-.73,4.97-2.04,1.31-1.31,2.05-3.12,2.04-4.95,0-3.86-3.12-7.02-6.98-7.03Zm2.92,10.04c-.81,.78-1.87,1.22-2.95,1.18-1.05,.03-2.13-.4-2.93-1.18-.82-.8-1.3-1.91-1.29-3.04,0-2.02,1.62-4.21,4.22-4.21h0c1.14,0,2.21,.44,3,1.24,.79,.79,1.23,1.86,1.23,3,0,1.15-.46,2.22-1.28,3.02Z"/><path fill="#777E88" d="M28.88,19.16c-1.32-1.34-3.08-2.08-4.94-2.09h-.03c-3.85,0-6.99,3.12-7.01,6.96-.01,1.85,.74,3.68,2.07,5,1.31,1.32,3.05,2.04,4.89,2.04,.03,0,.07,0,.1,0,1.85,0,3.6-.73,4.91-2.06,1.29-1.3,2.04-3.08,2.05-4.88,.02-1.87-.71-3.64-2.04-4.98Zm-4.98,9.15h0c-1.13,0-2.2-.44-2.99-1.24-.8-.8-1.24-1.87-1.24-3,0-2.32,1.91-4.21,4.23-4.21,1.13,0,2.2,.44,3,1.24,.8,.8,1.24,1.87,1.23,3,0,2.32-1.91,4.21-4.23,4.21Z"/><path fill="#777E88" d="M48.75,30.67h0c1.89,0,3.65-.73,4.97-2.05,1.32-1.32,2.04-3.09,2.04-4.98-.01-3.85-3.15-6.97-7.01-6.97h-.02c-1.88,0-3.64,.74-4.96,2.07-1.31,1.32-2.03,3.08-2.02,4.95,.02,3.92,3.09,6.99,7,6.99Zm0-11.23h0c1.13,0,2.19,.44,2.98,1.24,.8,.8,1.24,1.87,1.23,3.01,0,2.32-1.91,4.2-4.23,4.2h0c-1.14,0-2.2-.45-2.99-1.26-.79-.8-1.24-1.89-1.23-2.99,.03-2.36,1.89-4.2,4.23-4.2Z"/><path fill="#777E88" d="M58.48,31.4c-.1-.1-.19-.2-.28-.31l-.39-.43-2.06,1.94,3.81,3.93-3.79,3.89,1.99,1.89,.31-.26c.06-.05,.12-.1,.18-.16l.51-.52c1.23-1.26,2.46-2.52,3.69-3.78,.63-.65,.62-1.45,0-2.11l-3.96-4.07Z"/><path fill="#777E88" d="M40.43,30.69l-3.93,3.81-3.89-3.79-1.66,1.75-.18,.28,.2,.25s.06,.08,.1,.12l1.05,1.03c1.12,1.09,2.24,2.19,3.36,3.27,.3,.29,.66,.44,1.01,.44s.72-.15,1.04-.45c1.35-1.3,2.69-2.61,4.03-3.92l.36-.35c.05-.05,.1-.12,.17-.22l.19-.24-1.86-1.98Z"/><path fill="#777E88" d="M14.88,31c-.06,.04-.1,.08-.14,.12l-4.39,4.26c-.08,.07-.15,.16-.21,.24-.27,.38-.34,.84-.19,1.27,.15,.43,.49,.76,.94,.88,.13,.04,.26,.06,.39,.06,.37,0,.71-.16,1.03-.47l4.33-4.21c.06-.05,.11-.12,.16-.17l.27-.31-1.86-1.96-.34,.28Z"/><path fill="#777E88" d="M106.24,37.74c-.48-.51-1.05-.94-1.72-1.28-.67-.34-1.37-.63-2.11-.88l-2.04-.7c-.56-.19-1.08-.37-1.56-.56-.48-.19-.91-.41-1.28-.67-.37-.26-.67-.58-.88-.95-.22-.37-.33-.82-.33-1.35,0-1.02,.44-1.73,1.32-2.14,.88-.4,1.9-.6,3.04-.6,1.08,0,2.1,.12,3.04,.35,.94,.23,1.76,.47,2.44,.72,.25-.53,.46-1.1,.63-1.72,.17-.62,.29-1.24,.35-1.86-.87-.31-1.88-.58-3.04-.81s-2.35-.35-3.55-.35c-2.91,0-5.12,.62-6.62,1.86-1.5,1.24-2.25,2.91-2.25,5.02,0,1.58,.45,2.83,1.35,3.76,.9,.93,2.34,1.77,4.32,2.51l1.63,.6c.59,.19,1.14,.38,1.65,.58,.51,.2,.96,.44,1.35,.72,.39,.28,.7,.62,.93,1.02,.23,.4,.35,.92,.35,1.53,0,.56-.15,1.06-.44,1.51-.3,.45-.68,.83-1.16,1.14-.48,.31-1.05,.54-1.7,.7-.65,.16-1.33,.23-2.04,.23-.99,0-1.99-.1-3-.3-1.01-.2-1.93-.47-2.76-.81-.25,.62-.47,1.25-.67,1.88-.2,.64-.33,1.26-.4,1.88,.96,.34,2,.61,3.11,.81,1.11,.2,2.42,.3,3.9,.3s2.79-.19,4-.56,2.24-.89,3.09-1.56c.85-.67,1.51-1.47,1.97-2.42,.46-.94,.7-1.99,.7-3.14,0-1.02-.15-1.9-.44-2.63-.29-.73-.68-1.35-1.16-1.86Z"/><path fill="#777E88" d="M131.4,28.07c-.84-.98-1.87-1.74-3.11-2.3-1.24-.56-2.68-.84-4.32-.84-1.92,0-3.58,.33-5,1-1.41,.67-2.58,1.57-3.51,2.7-.93,1.13-1.62,2.46-2.07,4-.45,1.53-.67,3.18-.67,4.95s.23,3.45,.7,4.95c.47,1.5,1.2,2.8,2.21,3.9,1.01,1.1,2.28,1.95,3.83,2.56,1.55,.6,3.41,.91,5.58,.91,1.49,0,2.84-.11,4.07-.33,1.22-.22,2.35-.54,3.37-.98-.03-.65-.12-1.31-.28-1.97-.16-.67-.36-1.23-.6-1.7-1.98,.78-4.07,1.16-6.27,1.16-2.51,0-4.41-.6-5.69-1.81-1.29-1.21-1.96-3.11-2.02-5.72h16.22c.03-.34,.06-.75,.09-1.23,.03-.48,.05-.94,.05-1.37,0-1.58-.22-3.04-.65-4.39-.43-1.35-1.07-2.51-1.91-3.48Zm-13.75,7.04c.22-2.04,.83-3.64,1.84-4.79,1.01-1.15,2.46-1.72,4.35-1.72,.96,0,1.79,.18,2.49,.53,.7,.36,1.27,.83,1.72,1.42,.45,.59,.79,1.28,1.02,2.07,.23,.79,.35,1.62,.35,2.49h-11.76Z"/><path fill="#777E88" d="M156.35,45.2c-.81,.31-1.6,.53-2.39,.65-.79,.12-1.65,.19-2.58,.19-2.32,0-4.15-.69-5.48-2.07-1.33-1.38-2-3.55-2-6.53,0-2.6,.59-4.69,1.77-6.27,1.18-1.58,2.96-2.37,5.34-2.37,1.95,0,3.69,.26,5.2,.79,.25-.53,.44-1.14,.58-1.84,.14-.7,.21-1.31,.21-1.84-.9-.34-1.84-.59-2.83-.74-.99-.16-2.14-.23-3.44-.23-1.92,0-3.61,.33-5.07,.98-1.46,.65-2.67,1.53-3.65,2.65-.98,1.12-1.71,2.43-2.21,3.95-.5,1.52-.74,3.16-.74,4.92,0,3.81,1.01,6.84,3.02,9.09,2.01,2.25,5,3.37,8.97,3.37,2.35,0,4.44-.36,6.27-1.07-.03-.68-.14-1.35-.33-2-.19-.65-.4-1.19-.65-1.63Z"/><path fill="#777E88" d="M175.59,25.45c-.19-.03-.41-.05-.67-.07s-.52-.02-.77-.02c-1.67,0-3.04,.39-4.11,1.16-1.07,.77-1.93,1.69-2.58,2.74,0-.53-.05-1.17-.14-1.93-.09-.76-.19-1.37-.28-1.84-.28-.06-.59-.11-.93-.14-.34-.03-.68-.05-1.02-.05s-.67,.02-.98,.05c-.31,.03-.64,.08-.98,.14v23.84c.37,.06,.77,.11,1.18,.14,.42,.03,.8,.05,1.14,.05s.72-.02,1.14-.05c.42-.03,.8-.08,1.14-.14v-11.85c0-1.61,.18-2.93,.53-3.95,.36-1.02,.84-1.83,1.44-2.42,.6-.59,1.28-1,2.04-1.23,.76-.23,1.56-.35,2.39-.35h.63c.26,0,.52,.03,.77,.09,.06-.37,.12-.76,.16-1.16,.05-.4,.07-.79,.07-1.16,0-.34-.02-.67-.05-.98-.03-.31-.08-.6-.14-.88Z"/><path fill="#777E88" d="M197.43,28.07c-.84-.98-1.87-1.74-3.11-2.3-1.24-.56-2.68-.84-4.32-.84-1.92,0-3.59,.33-5,1-1.41,.67-2.58,1.57-3.51,2.7-.93,1.13-1.62,2.46-2.07,4-.45,1.53-.67,3.18-.67,4.95s.23,3.45,.7,4.95c.47,1.5,1.2,2.8,2.21,3.9,1.01,1.1,2.28,1.95,3.83,2.56s3.41,.91,5.58,.91c1.49,0,2.84-.11,4.07-.33,1.22-.22,2.35-.54,3.37-.98-.03-.65-.12-1.31-.28-1.97-.16-.67-.36-1.23-.6-1.7-1.98,.78-4.07,1.16-6.27,1.16-2.51,0-4.41-.6-5.69-1.81-1.29-1.21-1.96-3.11-2.02-5.72h16.22c.03-.34,.06-.75,.09-1.23,.03-.48,.05-.94,.05-1.37,0-1.58-.22-3.04-.65-4.39-.43-1.35-1.07-2.51-1.91-3.48Zm-13.75,7.04c.22-2.04,.83-3.64,1.84-4.79,1.01-1.15,2.46-1.72,4.35-1.72,.96,0,1.79,.18,2.49,.53,.7,.36,1.27,.83,1.72,1.42,.45,.59,.79,1.28,1.02,2.07,.23,.79,.35,1.62,.35,2.49h-11.76Z"/><path fill="#777E88" d="M218.16,45.62c-.37,.09-.79,.18-1.25,.26-.47,.08-.96,.12-1.49,.12-.68,0-1.25-.07-1.7-.21-.45-.14-.81-.42-1.07-.84-.26-.42-.45-1.01-.56-1.79-.11-.77-.16-1.81-.16-3.11v-10.87h6.04c.06-.31,.11-.62,.14-.93,.03-.31,.05-.63,.05-.98,0-.65-.06-1.24-.19-1.77h-6.04v-5.9h-.37l-7.99,8.92,.19,.65h3.63v13.52c0,2.51,.63,4.31,1.88,5.39,1.25,1.08,3,1.63,5.23,1.63,.77,0,1.5-.04,2.18-.12,.68-.08,1.33-.19,1.95-.35,0-.5-.02-1.07-.07-1.72-.05-.65-.18-1.29-.39-1.91Z"/><path fill="#777E88" d="M231.21,24.94c-1.18,0-2.4,.09-3.67,.28-1.27,.19-2.43,.45-3.49,.79,0,1.43,.29,2.65,.88,3.67,.9-.28,1.82-.5,2.77-.67,.94-.17,1.96-.26,3.04-.26,1.77,0,3.11,.36,4.04,1.07,.93,.71,1.39,1.98,1.39,3.81v.88c-.43-.06-.97-.12-1.6-.16-.64-.05-1.45-.07-2.44-.07-1.33,0-2.6,.16-3.81,.49-1.21,.33-2.28,.82-3.21,1.49-.93,.67-1.67,1.5-2.21,2.51-.54,1.01-.81,2.18-.81,3.51s.23,2.53,.7,3.49c.46,.96,1.12,1.75,1.97,2.37,.85,.62,1.89,1.07,3.11,1.35s2.59,.42,4.11,.42c1.61,0,3.19-.13,4.74-.4,1.55-.26,2.86-.52,3.95-.77v-14.92c0-3.1-.81-5.35-2.42-6.76-1.61-1.41-3.97-2.11-7.06-2.11Zm4.97,20.77c-.59,.16-1.26,.27-2.02,.35-.76,.08-1.5,.12-2.21,.12-.56,0-1.15-.03-1.77-.09-.62-.06-1.19-.23-1.7-.51s-.94-.68-1.28-1.21c-.34-.53-.51-1.25-.51-2.18,0-1.46,.5-2.54,1.51-3.25,1.01-.71,2.47-1.07,4.39-1.07,.49,0,1.1,.03,1.81,.09,.71,.06,1.3,.12,1.77,.19v7.57Z"/><path fill="#777E88" d="M260.53,25.45c-.19-.03-.41-.05-.67-.07-.26-.02-.52-.02-.77-.02-1.67,0-3.04,.39-4.11,1.16-1.07,.77-1.93,1.69-2.58,2.74,0-.53-.05-1.17-.14-1.93-.09-.76-.19-1.37-.28-1.84-.28-.06-.59-.11-.93-.14-.34-.03-.68-.05-1.02-.05s-.67,.02-.98,.05c-.31,.03-.64,.08-.98,.14v23.84c.37,.06,.77,.11,1.18,.14,.42,.03,.8,.05,1.14,.05s.72-.02,1.14-.05c.42-.03,.8-.08,1.14-.14v-11.85c0-1.61,.18-2.93,.53-3.95,.36-1.02,.84-1.83,1.44-2.42,.6-.59,1.28-1,2.04-1.23,.76-.23,1.56-.35,2.39-.35h.63c.26,0,.52,.03,.77,.09,.06-.37,.12-.76,.16-1.16,.05-.4,.07-.79,.07-1.16,0-.34-.02-.67-.05-.98-.03-.31-.08-.6-.14-.88Z"/><path fill="#777E88" d="M266.2,20.25c.4,.06,.84,.11,1.3,.14,.46,.03,.88,.05,1.25,.05,.34,0,.73-.01,1.19-.05,.45-.03,.86-.08,1.23-.14,.06-.37,.1-.77,.12-1.21,.02-.43,.02-.82,.02-1.16s0-.73-.02-1.16c-.02-.43-.05-.82-.12-1.16-.37-.06-.79-.11-1.25-.14-.46-.03-.87-.05-1.21-.05s-.74,.02-1.21,.05c-.46,.03-.9,.08-1.3,.14-.06,.34-.1,.73-.12,1.16-.02,.43-.02,.82-.02,1.16s0,.73,.02,1.16c.01,.43,.05,.84,.12,1.21Z"/><path fill="#777E88" d="M264.07,26.36c-.03,.33-.05,.64-.05,.95s.01,.63,.05,.95,.08,.61,.14,.86h3.02v20.21c.34,.06,.72,.11,1.14,.14,.42,.03,.78,.05,1.09,.05,.34,0,.72-.02,1.14-.05,.42-.03,.8-.08,1.14-.14V25.5h-7.53c-.06,.25-.11,.54-.14,.86Z"/><path fill="#777E88" d="M296.83,25.31c-.34,0-.72,.02-1.14,.05-.42,.03-.8,.08-1.14,.14v20.03c-1.12,.34-2.46,.51-4.04,.51-1.05,0-1.98-.11-2.79-.33-.81-.22-1.49-.6-2.04-1.16-.56-.56-.98-1.32-1.26-2.3-.28-.98-.42-2.21-.42-3.69v-13.06c-.34-.06-.73-.11-1.16-.14-.43-.03-.82-.05-1.16-.05-.31,0-.68,.02-1.11,.05-.44,.03-.82,.08-1.16,.14v13.24c0,2.39,.29,4.31,.88,5.76,.59,1.46,1.39,2.59,2.42,3.39,1.02,.81,2.21,1.34,3.55,1.6,1.35,.26,2.78,.4,4.3,.4,1.61,0,3.17-.14,4.67-.42,1.5-.28,2.8-.57,3.88-.88V25.5c-.34-.06-.72-.11-1.14-.14-.42-.03-.8-.05-1.14-.05Z"/><path fill="#777E88" d="M337.69,27.26c-1.25-1.55-3.26-2.32-6.02-2.32-.9,0-1.71,.12-2.42,.37-.71,.25-1.35,.57-1.9,.98-.56,.4-1.06,.87-1.51,1.39-.45,.53-.83,1.05-1.14,1.58-.53-1.36-1.29-2.42-2.3-3.18-1.01-.76-2.44-1.14-4.3-1.14-.9,0-1.72,.12-2.46,.37-.74,.25-1.4,.57-1.97,.98-.57,.4-1.07,.86-1.49,1.37-.42,.51-.77,1.05-1.05,1.6,0-.53-.05-1.17-.14-1.93-.09-.76-.19-1.37-.28-1.84-.34-.06-.66-.11-.95-.14-.3-.03-.61-.05-.95-.05s-.67,.02-1,.05c-.33,.03-.66,.08-1,.14v23.84c.34,.06,.73,.11,1.16,.14,.43,.03,.82,.05,1.16,.05s.72-.02,1.14-.05c.42-.03,.8-.08,1.14-.14v-12.17c0-1.36,.15-2.56,.44-3.6,.29-1.04,.7-1.9,1.21-2.58,.51-.68,1.11-1.19,1.79-1.53,.68-.34,1.41-.51,2.18-.51,1.36,0,2.35,.52,2.97,1.56,.62,1.04,.93,2.6,.93,4.67v14.17c.34,.06,.72,.11,1.14,.14,.42,.03,.8,.05,1.14,.05s.72-.02,1.14-.05c.42-.03,.8-.08,1.14-.14v-13.48c0-2.23,.49-3.92,1.46-5.06,.98-1.15,2.25-1.72,3.83-1.72,1.49,0,2.56,.54,3.21,1.6,.65,1.07,.98,2.67,.98,4.81v13.85c.34,.06,.72,.11,1.14,.14,.42,.03,.8,.05,1.14,.05s.73-.02,1.16-.05c.43-.03,.82-.08,1.16-.14v-15.2c0-3.04-.63-5.33-1.88-6.88Z"/></svg>