<svg xmlns="http://www.w3.org/2000/svg" viewBox="0 0 100 100"><defs><style>.cls-1{fill:#000000;stroke:black;strokeWidth:4;}</style></defs>
<g id="Layer_2" data-name="Layer 2">
<g id="Layer_1-2" data-name="Layer 1">
<path class="cls-1" d="M77.68,67.9a9.49,9.49,0,1,1-9.45-9.52A9.43,9.43,0,0,1,77.68,67.9Zm-9.47,6.5a6.54,6.54,0,1,0,0-13.07,6.54,6.54,0,1,0,0,13.07Z"/>
<path class="cls-1" d="M32.15,41.6a9.48,9.48,0,1,1,9.51-9.39A9.5,9.5,0,0,1,32.15,41.6Zm0-2.93a6.55,6.55,0,1,0-6.55-6.57A6.56,6.56,0,0,0,32.17,38.67Z"/>
<path class="cls-1" d="M58.71,32.14A9.49,9.49,0,1,1,68.2,41.6,9.45,9.45,0,0,1,58.71,32.14Zm9.47,6.53a6.55,6.55,0,1,0-6.53-6.59A6.53,6.53,0,0,0,68.18,38.67Z"/>
<path class="cls-1" d="M80.55,42.27c.21.24.4.46.61.67l5.65,5.82a1.5,1.5,0,0,1,0,2.28c-2,2.06-4,4.1-6,6.15l-.31.26-2.12-2,5.4-5.53-5.43-5.59Z"/>
<path class="cls-1" d="M42.6,44.45l2-2.13,5.54,5.4,5.59-5.42,2,2.12c-.06.07-.13.17-.21.25-2.09,2-4.17,4.07-6.27,6.09a1.48,1.48,0,0,1-2.21,0l-6.3-6.14Z"/>
<path class="cls-1" d="M19.72,42.31l2,2.11a3.85,3.85,0,0,1-.27.3l-6.18,6a1.48,1.48,0,0,1-1.53.45,1.46,1.46,0,0,1-.8-2.28,1.55,1.55,0,0,1,.24-.27l6.26-6.09Z"/>
</g></g></svg>