<?xml version="1.0" encoding="UTF-8"?>
<svg id="Layer_1" data-name="Layer 1" xmlns="http://www.w3.org/2000/svg" viewBox="0 0 500 500">
  <defs>
    <style>
      .cls-1 {
        stroke-width: 0px;
      }
    </style>
  </defs>
  <path class="cls-1" d="M113.3,117.65l136.69,264.7h136.7L250,117.65H113.3ZM117.65,250H0c0,138.07,111.93,250,250,250v-117.65c-73.09,0-132.35-59.25-132.35-132.35ZM250,0v117.65c73.09,0,132.35,59.25,132.35,132.35h117.65C500,111.93,388.07,0,250,0Z"/>
  <path class="cls-1" d="M113.3,117.65l136.69,264.7h136.7L250,117.65H113.3ZM117.65,250H0c0,138.07,111.93,250,250,250v-117.65c-73.09,0-132.35-59.25-132.35-132.35ZM250,0v117.65c73.09,0,132.35,59.25,132.35,132.35h117.65C500,111.93,388.07,0,250,0Z"/>
</svg>