<?xml version="1.0" encoding="utf-8"?>
<!-- Generator: Adobe Illustrator 27.0.0, SVG Export Plug-In . SVG Version: 6.00 Build 0)  -->
<svg version="1.1" id="Layer_1" xmlns="http://www.w3.org/2000/svg" xmlns:xlink="http://www.w3.org/1999/xlink" x="0px" y="0px"
	 viewBox="0 0 500 500" style="enable-background:new 0 0 500 500;" xml:space="preserve">
<style type="text/css">
	.st0{fill:url(#SVGID_1_);}
</style>
<linearGradient id="SVGID_1_" gradientUnits="userSpaceOnUse" x1="80.9118" y1="388.5147" x2="378.1815" y2="91.245">
	<stop  offset="0" style="stop-color:#2B2B2B"/>
	<stop  offset="1" style="stop-color:#000000"/>
</linearGradient>
<path class="st0" d="M235.64,44.5c3.03,2.5,22.3,18.26,37.74,24.83c5.33,2.27,9.93,3.48,9.93,3.48c7.24,1.9,11.62,1.72,17.88,2.48
	c6.3,0.77,10.49,2,18.87,4.47c30.07,8.86,53.63,28.3,53.63,28.3c8.53,7.04,16.28,15.29,31.78,31.78c6.58,7,7.5,8.27,11.42,11.92
	c4.99,4.64,16.15,14.88,32.77,23.34c9.91,5.04,15.08,6.04,24.33,12.91c8.83,6.55,10.1,10.07,10.43,12.41
	c0.75,5.39-2.31,12.99-6.95,17.88c-1.94,2.04-4.5,3.97-4.97,7.45c-0.33,2.46,0.56,4.36,0.99,5.46c2.42,6.2,0.49,13.1-0.99,18.37
	c-2.7,9.61-10.37,15.36-16.39,19.86c-18.61,13.94-39.06,15.1-45.68,15.39c-11.1,0.48-17.86-6.43-32.28-4.47
	c-1.17,0.16-3.34,0.49-10.43,2.48c-17.16,4.82-54.02,16.78-61.57,16.88c-6.56,0.09-8.11-0.31-8.11-0.31
	c-0.88-0.23-1.59-0.48-1.82-0.18c-0.62,0.78,3.05,4.28,6.46,8.44c2.64,3.22,10.82,13.2,8.44,16.88c-1.18,1.82-4.57,1.54-5.46,1.49
	c-12.47-0.65-30.11,20.24-36.74,31.28c-23.74,39.54,1.49,106.44,1.98,107.73c0,0,0.01,0.01,0.01,0.02c0,0.29-5.39,0.45-6.95,0.5
	c-29.24,0.86-76.47-16.88-76.47-16.88c-27.15-10.2-40.72-15.3-48.66-19.37C65.73,391.89,38.7,334.14,36.52,329.02
	c-7.59-17.86-7.68-22.35-7.68-22.35c-0.01-0.66-0.03-2.78-0.76-2.98c-2.05-0.54-6.43,14.8-8.94,14.4
	c-2.17-0.35-3.02-12.56-1.49-24.83c4.65-37.41,29.6-61.29,26.81-63.56c-2.15-1.75-18.97,10.93-26.08,19.84
	c-0.59,0.74-2.18,2.79-2.72,2.51c-1.21-0.64,3.81-12.37,4.47-13.9c11.02-25.73,43.9-48.19,43.2-49.16
	c-0.63-0.88-26.59,19.6-29.79,16.39c-3-3.01,12.86-27.87,35.75-47.17c13.07-11.02,24.59-17,23.83-18.37
	c-0.81-1.47-14.6,4.13-24.33,9.93c-7.72,4.6-12.58,7.49-16.17,11.85c-0.34,0.41-1.4,1.73-1.71,1.55
	c-0.82-0.47,4.64-11.29,5.46-12.91c13.02-25.79,59.09-48.17,59.09-48.17s25.07-12.15,70.51-25.82l0,0c0,0,1.23-10.11,1.49-11.92
	c1.34-9.32,9.9-27.81,24.83-29.79C224.02,33.01,233.62,42.43,235.64,44.5z"/>
</svg>
