<?xml version="1.0" standalone="no"?>
<!DOCTYPE svg PUBLIC "-//W3C//DTD SVG 20010904//EN"
 "http://www.w3.org/TR/2001/REC-SVG-20010904/DTD/svg10.dtd">
<svg version="1.0" xmlns="http://www.w3.org/2000/svg"
 width="700.000000pt" height="700.000000pt" viewBox="0 0 700.000000 700.000000"
 preserveAspectRatio="xMidYMid meet">
<metadata>
Created by potrace 1.14, written by Peter Selinger 2001-2017
</metadata>
<g transform="translate(0.000000,700.000000) scale(0.100000,-0.100000)"
fill="#000000" stroke="none">
<path d="M3278 6995 c-1 -1 -41 -6 -88 -9 -81 -6 -119 -11 -185 -21 -16 -3
-50 -8 -75 -11 -25 -3 -106 -19 -180 -35 -726 -157 -1395 -552 -1891 -1119
-66 -75 -194 -239 -241 -310 -10 -14 -31 -44 -48 -68 -16 -23 -30 -45 -30 -48
0 -3 -15 -29 -33 -57 -54 -83 -71 -114 -145 -262 -61 -125 -161 -357 -166
-388 -1 -7 -4 -17 -8 -22 -18 -29 -114 -395 -132 -500 -41 -248 -50 -335 -51
-510 l0 -130 868 -1 867 -2 1 22 c4 137 16 234 43 363 44 206 148 439 286 635
72 102 260 299 357 372 366 276 830 403 1278 349 193 -24 362 -73 543 -159
425 -201 754 -568 903 -1006 42 -124 42 -124 64 -233 23 -118 31 -193 34 -291
l1 -52 870 0 c796 0 870 2 871 17 2 30 -2 185 -6 236 -8 89 -16 169 -20 195
-2 14 -7 45 -10 70 -3 25 -13 81 -21 125 -9 44 -17 91 -20 105 -8 43 -62 242
-85 315 -13 39 -23 72 -24 75 -3 10 -18 48 -62 160 -49 125 -145 325 -193 405
-16 28 -34 59 -39 70 -16 36 -172 268 -239 355 -163 212 -440 494 -607 616
-22 16 -46 35 -53 42 -8 6 -56 41 -107 77 -341 238 -714 412 -1115 519 -171
46 -270 64 -560 102 -48 6 -546 15 -552 9z"/>
<path d="M1767 3502 c-13 -3 -17 -15 -18 -55 -1 -78 -8 -153 -24 -243 -22
-127 -76 -318 -96 -338 -5 -6 -9 -15 -9 -22 0 -15 -51 -124 -97 -206 -67 -120
-166 -249 -273 -358 -123 -124 -155 -152 -272 -231 -74 -50 -274 -159 -304
-166 -5 -1 -45 -16 -89 -32 -111 -42 -225 -70 -350 -87 -77 -11 -95 -12 -167
-13 l-68 -1 0 -873 0 -873 90 2 c90 2 250 12 292 19 13 2 50 6 83 10 72 8 347
61 392 76 17 5 44 12 59 15 53 10 323 102 435 150 135 56 342 162 454 231 93
57 168 106 175 113 3 3 28 20 55 39 223 152 494 411 698 664 318 396 579 936
672 1390 2 10 6 26 9 35 3 9 8 33 11 52 3 19 8 42 10 50 2 8 6 29 9 45 2 17 7
48 11 70 18 116 24 177 32 318 6 105 18 148 19 65 0 -73 16 -261 29 -333 2
-16 7 -48 11 -70 3 -22 12 -71 19 -110 8 -38 16 -81 19 -95 8 -49 38 -157 77
-285 128 -410 327 -782 609 -1141 77 -98 343 -376 430 -450 421 -356 845 -585
1350 -729 154 -44 372 -88 495 -101 33 -4 62 -8 65 -9 8 -5 219 -17 309 -19
l76 -1 2 868 c1 655 -2 869 -10 872 -7 2 -60 6 -119 9 -59 4 -113 8 -120 11
-7 2 -31 7 -53 10 -152 22 -380 102 -530 185 -115 65 -115 64 -210 135 -209
155 -368 337 -493 564 -29 52 -52 95 -52 97 0 2 -11 27 -23 56 -35 79 -80 212
-93 273 -2 11 -8 40 -14 65 -18 83 -31 194 -34 296 -1 23 -4 46 -8 49 -5 6
-1271 9 -1733 5 -22 0 -418 1 -881 2 -462 2 -848 2 -857 0z m1738 -62 c3 -5 1
-10 -4 -10 -6 0 -11 5 -11 10 0 6 2 10 4 10 3 0 8 -4 11 -10z"/>
</g>
</svg>
