<?xml version="1.0" encoding="UTF-8"?>
<svg id="Layer_1" data-name="Layer 1" xmlns="http://www.w3.org/2000/svg" xmlns:xlink="http://www.w3.org/1999/xlink" viewBox="0 0 1690.31 882">
  <defs>
    <style>
      .cls-1 {
        fill: url(#New_Gradient_Swatch_4);
      }

      .cls-1, .cls-2, .cls-3, .cls-4, .cls-5, .cls-6, .cls-7, .cls-8, .cls-9, .cls-10, .cls-11, .cls-12, .cls-13, .cls-14, .cls-15, .cls-16, .cls-17, .cls-18, .cls-19, .cls-20, .cls-21, .cls-22, .cls-23, .cls-24, .cls-25 {
        stroke-width: 0px;
      }

      .cls-2 {
        fill: url(#New_Gradient_Swatch_3);
      }

      .cls-3 {
        fill: url(#New_Gradient_Swatch_3-3);
      }

      .cls-4 {
        fill: url(#New_Gradient_Swatch_3-4);
      }

      .cls-5 {
        fill: url(#New_Gradient_Swatch_3-7);
      }

      .cls-6 {
        fill: url(#New_Gradient_Swatch_3-6);
      }

      .cls-7 {
        fill: url(#New_Gradient_Swatch_3-2);
      }

      .cls-8 {
        fill: url(#New_Gradient_Swatch_3-5);
      }

      .cls-9 {
        fill: url(#New_Gradient_Swatch_4-3);
      }

      .cls-10 {
        fill: url(#New_Gradient_Swatch_4-2);
      }

      .cls-26 {
        stroke-width: .6px;
      }

      .cls-26, .cls-27, .cls-28, .cls-29, .cls-30, .cls-31, .cls-32 {
        stroke-miterlimit: 10;
      }

      .cls-26, .cls-27, .cls-29, .cls-30, .cls-31, .cls-32 {
        stroke: #2f363e;
      }

      .cls-26, .cls-29, .cls-31 {
        fill: #151b23;
      }

      .cls-27 {
        stroke-dasharray: 0 0 9 6;
      }

      .cls-27, .cls-28 {
        fill: none;
      }

      .cls-27, .cls-30, .cls-31 {
        stroke-width: 1.47px;
      }

      .cls-28 {
        stroke: #fff;
        stroke-width: 2.5px;
      }

      .cls-33 {
        filter: url(#drop-shadow-7);
      }

      .cls-11 {
        fill: #34383e;
      }

      .cls-12 {
        fill: #2f363e;
      }

      .cls-13 {
        fill: #18c133;
      }

      .cls-14, .cls-30, .cls-32 {
        fill: #0d1116;
      }

      .cls-15 {
        fill: #d4145a;
      }

      .cls-16 {
        fill: #c8c8c8;
      }

      .cls-17 {
        fill: #9797fd;
      }

      .cls-18 {
        fill: #fe5f58;
      }

      .cls-19 {
        fill: #fff;
      }

      .cls-20 {
        fill: #fbb03b;
      }

      .cls-21 {
        fill: #ffa565;
      }

      .cls-22 {
        fill: #ffbd2d;
      }

      .cls-23 {
        fill: #e97070;
      }

      .cls-24 {
        fill: #00bfff;
      }

      .cls-25 {
        fill: #00ffd5;
      }

      .cls-32 {
        stroke-width: 1.46px;
      }
    </style>
    <linearGradient id="New_Gradient_Swatch_4" data-name="New Gradient Swatch 4" x1="163.25" y1="299.44" x2="163.25" y2="258.84" gradientUnits="userSpaceOnUse">
      <stop offset="0" stop-color="#0afdca"/>
      <stop offset="1" stop-color="#07befd"/>
    </linearGradient>
    <linearGradient id="New_Gradient_Swatch_4-2" data-name="New Gradient Swatch 4" x1="155.61" y1="299.44" x2="155.61" y2="258.84" xlink:href="#New_Gradient_Swatch_4"/>
    <linearGradient id="New_Gradient_Swatch_4-3" data-name="New Gradient Swatch 4" x1="170.9" y1="299.44" x2="170.9" y2="258.84" xlink:href="#New_Gradient_Swatch_4"/>
    <filter id="drop-shadow-7" filterUnits="userSpaceOnUse">
      <feOffset dx="0" dy="0"/>
      <feGaussianBlur result="blur" stdDeviation="14.67"/>
      <feFlood flood-color="#000" flood-opacity=".45"/>
      <feComposite in2="blur" operator="in"/>
      <feComposite in="SourceGraphic"/>
    </filter>
    <linearGradient id="New_Gradient_Swatch_3" data-name="New Gradient Swatch 3" x1="891.95" y1="194.77" x2="993.1" y2="194.77" gradientUnits="userSpaceOnUse">
      <stop offset="0" stop-color="#00ffd5"/>
      <stop offset="1" stop-color="#00bfff"/>
    </linearGradient>
    <linearGradient id="New_Gradient_Swatch_3-2" data-name="New Gradient Swatch 3" x1="891.95" y1="205.01" x2="993.1" y2="205.01" xlink:href="#New_Gradient_Swatch_3"/>
    <linearGradient id="New_Gradient_Swatch_3-3" data-name="New Gradient Swatch 3" x1="891.95" y1="205.01" x2="993.1" y2="205.01" xlink:href="#New_Gradient_Swatch_3"/>
    <linearGradient id="New_Gradient_Swatch_3-4" data-name="New Gradient Swatch 3" x1="135.18" y1="397.29" x2="281.54" y2="397.29" xlink:href="#New_Gradient_Swatch_3"/>
    <linearGradient id="New_Gradient_Swatch_3-5" data-name="New Gradient Swatch 3" x1="135.18" y1="396.93" x2="281.54" y2="396.93" xlink:href="#New_Gradient_Swatch_3"/>
    <linearGradient id="New_Gradient_Swatch_3-6" data-name="New Gradient Swatch 3" x1="135.18" y1="396.93" x2="281.54" y2="396.93" xlink:href="#New_Gradient_Swatch_3"/>
    <linearGradient id="New_Gradient_Swatch_3-7" data-name="New Gradient Swatch 3" x1="135.18" y1="396.93" x2="281.54" y2="396.93" xlink:href="#New_Gradient_Swatch_3"/>
  </defs>
  <rect class="cls-14" width="1690.31" height="882"/>
  <g>
    <g>
      <g>
        <path class="cls-16" d="M150.73,497.62v15.24c0,2.68-.81,4.79-2.43,6.33-1.62,1.54-3.85,2.3-6.68,2.3s-5.03-.77-6.58-2.32c-1.55-1.55-2.33-3.67-2.33-6.38v-15.17h2.74v15.36c0,1.96.54,3.47,1.61,4.53,1.07,1.05,2.65,1.58,4.74,1.58s3.52-.53,4.59-1.59c1.07-1.06,1.61-2.57,1.61-4.55v-15.33h2.74Z"/>
        <path class="cls-16" d="M165.03,521.16h-2.74v-21.11h-7.46v-2.43h17.65v2.43h-7.46v21.11Z"/>
        <path class="cls-16" d="M192.53,521.16h-3.11l-6.33-10.36-6.44,10.36h-2.9l7.83-12.3-7.3-11.24h3.03l5.85,9.33,5.89-9.33h2.92l-7.3,11.14,7.86,12.4Z"/>
        <path class="cls-16" d="M217.16,509.36c0,3.77-.95,6.73-2.86,8.89s-4.56,3.24-7.95,3.24-6.14-1.06-8.03-3.18c-1.88-2.12-2.83-5.11-2.83-8.98s.94-6.8,2.83-8.92c1.89-2.11,4.57-3.16,8.05-3.16s6.02,1.07,7.92,3.22,2.85,5.11,2.85,8.89ZM198.39,509.36c0,3.19.68,5.61,2.04,7.25,1.36,1.65,3.33,2.47,5.92,2.47s4.58-.82,5.91-2.46c1.33-1.64,2-4.06,2-7.26s-.66-5.57-1.99-7.21c-1.33-1.64-3.29-2.46-5.89-2.46s-4.59.82-5.95,2.47-2.04,4.04-2.04,7.19Z"/>
        <path class="cls-16" d="M231.99,498.73c0-.61.15-1.06.45-1.34.3-.28.68-.43,1.13-.43s.8.14,1.11.43c.31.29.47.74.47,1.34s-.16,1.05-.47,1.34c-.31.3-.68.44-1.11.44-.45,0-.83-.15-1.13-.44-.3-.29-.45-.74-.45-1.34ZM234.89,521.16h-2.67v-17.65h2.67v17.65Z"/>
        <path class="cls-16" d="M263.89,521.16v-11.48c0-1.41-.3-2.46-.9-3.16-.6-.7-1.54-1.05-2.8-1.05-1.66,0-2.89.48-3.69,1.43-.79.96-1.19,2.43-1.19,4.41v9.86h-2.67v-11.48c0-1.41-.3-2.46-.9-3.16-.6-.7-1.54-1.05-2.82-1.05-1.67,0-2.9.5-3.68,1.51-.78,1-1.17,2.65-1.17,4.94v9.26h-2.67v-17.65h2.17l.43,2.42h.13c.5-.86,1.22-1.53,2.13-2.01.92-.48,1.95-.72,3.08-.72,2.76,0,4.56,1,5.41,3h.13c.53-.92,1.29-1.65,2.29-2.19s2.14-.81,3.41-.81c2,0,3.49.51,4.49,1.54s1.49,2.67,1.49,4.92v11.52h-2.67Z"/>
        <path class="cls-16" d="M281.11,521.49c-1.15,0-2.2-.21-3.15-.64-.95-.42-1.75-1.08-2.39-1.96h-.19c.13,1.03.19,2.01.19,2.93v7.26h-2.67v-25.58h2.17l.37,2.42h.13c.69-.97,1.49-1.66,2.4-2.09s1.96-.64,3.14-.64c2.34,0,4.15.8,5.42,2.4,1.27,1.6,1.91,3.84,1.91,6.73s-.65,5.15-1.94,6.76c-1.29,1.61-3.09,2.41-5.39,2.41ZM280.72,505.46c-1.8,0-3.11.5-3.91,1.5-.81,1-1.22,2.59-1.24,4.77v.6c0,2.48.41,4.25,1.24,5.32s2.15,1.6,3.98,1.6c1.52,0,2.72-.62,3.58-1.85s1.3-2.94,1.3-5.11-.43-3.89-1.3-5.07c-.86-1.17-2.08-1.76-3.65-1.76Z"/>
        <path class="cls-16" d="M296.6,521.16h-2.67v-25.06h2.67v25.06Z"/>
        <path class="cls-16" d="M310.55,521.49c-2.61,0-4.67-.79-6.18-2.38s-2.26-3.79-2.26-6.62.7-5.11,2.1-6.78c1.4-1.67,3.28-2.51,5.65-2.51,2.21,0,3.96.73,5.25,2.18,1.29,1.46,1.93,3.37,1.93,5.76v1.69h-12.16c.05,2.07.58,3.65,1.57,4.72.99,1.07,2.39,1.61,4.2,1.61,1.9,0,3.78-.4,5.64-1.19v2.38c-.95.41-1.84.7-2.68.88-.84.18-1.86.27-3.05.27ZM309.83,505.43c-1.42,0-2.55.46-3.39,1.38s-1.34,2.2-1.49,3.83h9.23c0-1.69-.38-2.98-1.13-3.87-.75-.9-1.83-1.34-3.22-1.34Z"/>
        <path class="cls-16" d="M344.92,521.16v-11.48c0-1.41-.3-2.46-.9-3.16-.6-.7-1.54-1.05-2.8-1.05-1.66,0-2.89.48-3.69,1.43-.79.96-1.19,2.43-1.19,4.41v9.86h-2.67v-11.48c0-1.41-.3-2.46-.9-3.16-.6-.7-1.54-1.05-2.82-1.05-1.67,0-2.9.5-3.68,1.51-.78,1-1.17,2.65-1.17,4.94v9.26h-2.67v-17.65h2.17l.43,2.42h.13c.5-.86,1.22-1.53,2.13-2.01.92-.48,1.95-.72,3.08-.72,2.76,0,4.56,1,5.41,3h.13c.53-.92,1.29-1.65,2.29-2.19s2.14-.81,3.41-.81c2,0,3.49.51,4.49,1.54s1.49,2.67,1.49,4.92v11.52h-2.67Z"/>
        <path class="cls-16" d="M361.39,521.49c-2.61,0-4.67-.79-6.18-2.38s-2.26-3.79-2.26-6.62.7-5.11,2.1-6.78c1.4-1.67,3.28-2.51,5.65-2.51,2.21,0,3.96.73,5.25,2.18,1.29,1.46,1.93,3.37,1.93,5.76v1.69h-12.16c.05,2.07.58,3.65,1.57,4.72.99,1.07,2.39,1.61,4.2,1.61,1.9,0,3.78-.4,5.64-1.19v2.38c-.95.41-1.84.7-2.68.88-.84.18-1.86.27-3.05.27ZM360.66,505.43c-1.42,0-2.55.46-3.39,1.38s-1.34,2.2-1.49,3.83h9.23c0-1.69-.38-2.98-1.13-3.87-.75-.9-1.83-1.34-3.22-1.34Z"/>
        <path class="cls-16" d="M385.34,521.16v-11.42c0-1.44-.33-2.51-.98-3.22-.66-.71-1.68-1.06-3.08-1.06-1.85,0-3.2.5-4.06,1.5-.86,1-1.29,2.65-1.29,4.94v9.26h-2.67v-17.65h2.17l.43,2.42h.13c.55-.87,1.32-1.54,2.3-2.02s2.09-.72,3.3-.72c2.13,0,3.73.51,4.8,1.54,1.07,1.03,1.61,2.67,1.61,4.92v11.52h-2.67Z"/>
        <path class="cls-16" d="M400.03,519.28c.47,0,.93-.03,1.37-.1.44-.07.79-.14,1.05-.22v2.04c-.29.14-.72.25-1.28.35-.56.09-1.07.14-1.52.14-3.41,0-5.12-1.8-5.12-5.4v-10.5h-2.53v-1.29l2.53-1.11,1.13-3.77h1.55v4.09h5.12v2.08h-5.12v10.39c0,1.06.25,1.88.76,2.45.5.57,1.2.85,2.08.85Z"/>
        <path class="cls-16" d="M417.65,521.16l-.53-2.51h-.13c-.88,1.11-1.76,1.86-2.63,2.25-.88.39-1.97.59-3.28.59-1.75,0-3.12-.45-4.12-1.35-.99-.9-1.49-2.19-1.49-3.85,0-3.56,2.85-5.43,8.55-5.6l3-.1v-1.1c0-1.38-.3-2.41-.89-3.07s-1.55-.99-2.86-.99c-1.47,0-3.14.45-4.99,1.35l-.82-2.05c.87-.47,1.82-.84,2.86-1.11,1.04-.27,2.07-.4,3.12-.4,2.1,0,3.66.47,4.68,1.4s1.52,2.43,1.52,4.49v12.05h-1.98ZM411.61,519.28c1.66,0,2.97-.46,3.92-1.37.95-.91,1.43-2.19,1.43-3.83v-1.59l-2.67.11c-2.13.08-3.66.41-4.6.99-.94.58-1.41,1.5-1.41,2.73,0,.97.29,1.7.88,2.21.58.5,1.4.76,2.46.76Z"/>
        <path class="cls-16" d="M431.67,519.28c.47,0,.93-.03,1.37-.1.44-.07.79-.14,1.05-.22v2.04c-.29.14-.72.25-1.28.35-.56.09-1.07.14-1.52.14-3.41,0-5.12-1.8-5.12-5.4v-10.5h-2.53v-1.29l2.53-1.11,1.13-3.77h1.55v4.09h5.12v2.08h-5.12v10.39c0,1.06.25,1.88.76,2.45.5.57,1.2.85,2.08.85Z"/>
        <path class="cls-16" d="M438.21,498.73c0-.61.15-1.06.45-1.34.3-.28.68-.43,1.13-.43s.8.14,1.11.43c.31.29.47.74.47,1.34s-.16,1.05-.47,1.34c-.31.3-.68.44-1.11.44-.45,0-.83-.15-1.13-.44-.3-.29-.45-.74-.45-1.34ZM441.11,521.16h-2.67v-17.65h2.67v17.65Z"/>
        <path class="cls-16" d="M462.84,512.32c0,2.88-.72,5.12-2.17,6.74-1.45,1.62-3.45,2.42-6.01,2.42-1.58,0-2.98-.37-4.2-1.11s-2.17-1.8-2.83-3.19c-.67-1.39-1-3.01-1-4.86,0-2.88.72-5.12,2.16-6.72,1.44-1.61,3.44-2.41,5.99-2.41s4.43.82,5.89,2.46c1.46,1.64,2.18,3.87,2.18,6.67ZM449.39,512.32c0,2.25.45,3.97,1.35,5.15.9,1.18,2.23,1.77,3.98,1.77s3.08-.59,3.99-1.76,1.36-2.9,1.36-5.16-.45-3.95-1.36-5.11-2.25-1.75-4.02-1.75-3.07.57-3.96,1.72c-.89,1.15-1.34,2.86-1.34,5.14Z"/>
        <path class="cls-16" d="M480.43,521.16v-11.42c0-1.44-.33-2.51-.98-3.22-.66-.71-1.68-1.06-3.08-1.06-1.85,0-3.2.5-4.06,1.5-.86,1-1.29,2.65-1.29,4.94v9.26h-2.67v-17.65h2.17l.43,2.42h.13c.55-.87,1.32-1.54,2.3-2.02s2.09-.72,3.3-.72c2.13,0,3.73.51,4.8,1.54,1.07,1.03,1.61,2.67,1.61,4.92v11.52h-2.67Z"/>
        <path class="cls-16" d="M514.04,512.32c0,2.88-.72,5.12-2.17,6.74-1.45,1.62-3.45,2.42-6.01,2.42-1.58,0-2.98-.37-4.2-1.11s-2.17-1.8-2.83-3.19c-.67-1.39-1-3.01-1-4.86,0-2.88.72-5.12,2.16-6.72,1.44-1.61,3.44-2.41,5.99-2.41s4.43.82,5.89,2.46c1.46,1.64,2.18,3.87,2.18,6.67ZM500.6,512.32c0,2.25.45,3.97,1.35,5.15.9,1.18,2.23,1.77,3.98,1.77s3.08-.59,3.99-1.76,1.36-2.9,1.36-5.16-.45-3.95-1.36-5.11-2.25-1.75-4.02-1.75-3.07.57-3.96,1.72c-.89,1.15-1.34,2.86-1.34,5.14Z"/>
        <path class="cls-16" d="M531.63,521.16v-11.42c0-1.44-.33-2.51-.98-3.22-.66-.71-1.68-1.06-3.08-1.06-1.85,0-3.2.5-4.06,1.5-.86,1-1.29,2.65-1.29,4.94v9.26h-2.67v-17.65h2.17l.43,2.42h.13c.55-.87,1.32-1.54,2.3-2.02s2.09-.72,3.3-.72c2.13,0,3.73.51,4.8,1.54,1.07,1.03,1.61,2.67,1.61,4.92v11.52h-2.67Z"/>
        <path class="cls-16" d="M567.43,521.16h-3.22l-8.58-11.42-2.46,2.19v9.23h-2.74v-23.55h2.74v11.68l10.68-11.68h3.24l-9.47,10.23,9.82,13.32Z"/>
        <path class="cls-16" d="M573.76,521.16h-2.67v-25.06h2.67v25.06Z"/>
        <path class="cls-16" d="M591.11,521.16l-.53-2.51h-.13c-.88,1.11-1.76,1.86-2.63,2.25-.88.39-1.97.59-3.28.59-1.75,0-3.12-.45-4.12-1.35-.99-.9-1.49-2.19-1.49-3.85,0-3.56,2.85-5.43,8.55-5.6l3-.1v-1.1c0-1.38-.3-2.41-.89-3.07s-1.55-.99-2.86-.99c-1.47,0-3.14.45-4.99,1.35l-.82-2.05c.87-.47,1.82-.84,2.86-1.11,1.04-.27,2.07-.4,3.12-.4,2.1,0,3.66.47,4.68,1.4s1.52,2.43,1.52,4.49v12.05h-1.98ZM585.07,519.28c1.66,0,2.97-.46,3.92-1.37.95-.91,1.43-2.19,1.43-3.83v-1.59l-2.67.11c-2.13.08-3.66.41-4.6.99-.94.58-1.41,1.5-1.41,2.73,0,.97.29,1.7.88,2.21.58.5,1.4.76,2.46.76Z"/>
        <path class="cls-16" d="M603.29,521.16l-6.7-17.65h2.87l3.8,10.47c.86,2.45,1.36,4.04,1.51,4.77h.13c.12-.57.49-1.75,1.12-3.54.63-1.79,2.04-5.69,4.23-11.7h2.87l-6.7,17.65h-3.12Z"/>
        <path class="cls-16" d="M624.22,521.49c-2.61,0-4.67-.79-6.18-2.38s-2.26-3.79-2.26-6.62.7-5.11,2.1-6.78c1.4-1.67,3.28-2.51,5.65-2.51,2.21,0,3.96.73,5.25,2.18,1.29,1.46,1.93,3.37,1.93,5.76v1.69h-12.16c.05,2.07.58,3.65,1.57,4.72.99,1.07,2.39,1.61,4.2,1.61,1.9,0,3.78-.4,5.64-1.19v2.38c-.95.41-1.84.7-2.68.88-.84.18-1.86.27-3.05.27ZM623.5,505.43c-1.42,0-2.55.46-3.39,1.38s-1.34,2.2-1.49,3.83h9.23c0-1.69-.38-2.98-1.13-3.87-.75-.9-1.83-1.34-3.22-1.34Z"/>
        <path class="cls-16" d="M635.71,519.46c0-.72.16-1.26.49-1.63s.8-.56,1.41-.56,1.11.19,1.46.56c.35.37.52.92.52,1.63s-.18,1.23-.53,1.61-.84.56-1.45.56c-.55,0-1-.17-1.36-.51-.36-.34-.54-.89-.54-1.67Z"/>
      </g>
      <g>
        <rect class="cls-29" x="129.71" y="242.34" width="67.08" height="67.08" rx="11" ry="11"/>
        <g>
          <path class="cls-1" d="M163.25,268.24c4.22,0,7.64,3.42,7.64,7.64h7.64c0-8.44-6.85-15.29-15.29-15.29s-15.29,6.85-15.29,15.29h7.64c0-4.22,3.42-7.64,7.64-7.64Z"/>
          <path class="cls-10" d="M155.61,275.89c0,4.22-3.42,7.64-7.64,7.64v7.64c8.44,0,15.29-6.85,15.29-15.29h-7.64Z"/>
          <path class="cls-9" d="M178.54,283.53c-4.22,0-7.64-3.42-7.64-7.64h-7.64c0,8.44,6.85,15.29,15.29,15.29v-7.64Z"/>
        </g>
      </g>
    </g>
    <g>
      <g class="cls-33">
        <path class="cls-30" d="M1107.68,217h453.36v463.39c0,5.31-4.31,9.62-9.62,9.62h-443.75V217h0Z"/>
        <path class="cls-31" d="M872.51,235.31h235.17v454.7h-225.55c-5.31,0-9.62-4.31-9.62-9.62V235.31h0Z"/>
        <line class="cls-26" x1="1107.68" y1="235.31" x2="1107.68" y2="690.01"/>
        <g>
          <path class="cls-31" d="M1190.1-145.25h62.97v688.54h-62.97c-5.31,0-9.62-4.31-9.62-9.62V-135.63c0-5.31,4.31-9.62,9.62-9.62Z" transform="translate(1415.79 -1017.76) rotate(90)"/>
          <g>
            <path class="cls-2" d="M903.93,194.77c2.83,0,5.12,2.29,5.12,5.12h5.12c0-5.66-4.59-10.24-10.24-10.24s-10.24,4.59-10.24,10.24h5.12c0-2.83,2.29-5.12,5.12-5.12Z"/>
            <path class="cls-7" d="M898.81,199.89c0,2.83-2.29,5.12-5.12,5.12v5.12c5.66,0,10.24-4.59,10.24-10.24h-5.12Z"/>
            <path class="cls-3" d="M914.17,205.01c-2.83,0-5.12-2.29-5.12-5.12h-5.12c0,5.66,4.59,10.24,10.24,10.24v-5.12Z"/>
          </g>
        </g>
        <rect class="cls-11" x="893.69" y="265.74" width="192.89" height="28.52"/>
        <rect class="cls-11" x="893.69" y="353.95" width="192.89" height="18.93"/>
        <rect class="cls-11" x="893.69" y="389.47" width="192.89" height="18.93"/>
        <rect class="cls-11" x="893.69" y="424.99" width="192.89" height="18.93"/>
        <rect class="cls-11" x="893.69" y="460.51" width="192.89" height="18.93"/>
        <rect class="cls-11" x="893.69" y="496.04" width="192.89" height="18.93"/>
      </g>
      <g>
        <circle class="cls-18" cx="1509.52" cy="189.65" r="3.36"/>
        <circle class="cls-22" cx="1520.39" cy="189.65" r="3.36"/>
        <circle class="cls-13" cx="1531.25" cy="189.65" r="3.36"/>
      </g>
      <polyline class="cls-27" points="1461.51 398.13 1334.84 333.84 1208.17 398.13 1461.51 525.84 1334.84 589.25 1208.17 525.84"/>
      <circle class="cls-32" cx="1334.84" cy="588.81" r="45.74"/>
      <circle class="cls-32" cx="1334.84" cy="461.55" r="45.74"/>
      <circle class="cls-32" cx="1334.84" cy="333.39" r="45.74"/>
      <circle class="cls-32" cx="1461.51" cy="525.84" r="45.74"/>
      <circle class="cls-32" cx="1461.51" cy="397.69" r="45.74"/>
      <circle class="cls-32" cx="1208.17" cy="397.69" r="45.74"/>
      <g>
        <path class="cls-25" d="M1183.93,411.77v-27.27c0-5.85,4.76-10.61,10.61-10.61h27.27c5.85,0,10.61,4.76,10.61,10.61v27.27c0,5.85-4.76,10.61-10.61,10.61h-27.27c-5.85,0-10.61-4.76-10.61-10.61ZM1194.54,376.33c-4.5,0-8.17,3.66-8.17,8.17v27.27c0,4.5,3.66,8.17,8.17,8.17h27.27c4.5,0,8.17-3.66,8.17-8.17v-27.27c0-4.5-3.66-8.17-8.17-8.17h-27.27Z"/>
        <g>
          <path class="cls-25" d="M1208.17,393.97c-2.3,0-4.16,1.86-4.16,4.16h-4.16c0-4.6,3.73-8.33,8.33-8.33s8.33,3.73,8.33,8.33h-4.16c0-2.3-1.86-4.16-4.16-4.16Z"/>
          <path class="cls-25" d="M1212.34,398.13c0,2.3,1.86,4.16,4.16,4.16v4.16c-4.6,0-8.33-3.73-8.33-8.33h4.16Z"/>
          <path class="cls-25" d="M1199.85,402.3c2.3,0,4.16-1.86,4.16-4.16h4.16c0,4.6-3.73,8.33-8.33,8.33v-4.16Z"/>
        </g>
      </g>
      <g>
        <path class="cls-23" d="M1310.6,475.18v-27.27c0-5.85,4.76-10.61,10.61-10.61h27.27c5.85,0,10.61,4.76,10.61,10.61v27.27c0,5.85-4.76,10.61-10.61,10.61h-27.27c-5.85,0-10.61-4.76-10.61-10.61ZM1321.21,439.74c-4.5,0-8.17,3.66-8.17,8.17v27.27c0,4.5,3.66,8.17,8.17,8.17h27.27c4.5,0,8.17-3.66,8.17-8.17v-27.27c0-4.5-3.66-8.17-8.17-8.17h-27.27Z"/>
        <g>
          <path class="cls-23" d="M1334.84,457.38c-2.3,0-4.16,1.86-4.16,4.16h-4.16c0-4.6,3.73-8.33,8.33-8.33s8.33,3.73,8.33,8.33h-4.16c0-2.3-1.86-4.16-4.16-4.16Z"/>
          <path class="cls-23" d="M1339.01,461.55c0,2.3,1.86,4.16,4.16,4.16v4.16c-4.6,0-8.33-3.73-8.33-8.33h4.16Z"/>
          <path class="cls-23" d="M1326.52,465.71c2.3,0,4.16-1.86,4.16-4.16h4.16c0,4.6-3.73,8.33-8.33,8.33v-4.16Z"/>
        </g>
      </g>
      <g>
        <path class="cls-21" d="M1437.27,539.48v-27.27c0-5.85,4.76-10.61,10.61-10.61h27.27c5.85,0,10.61,4.76,10.61,10.61v27.27c0,5.85-4.76,10.61-10.61,10.61h-27.27c-5.85,0-10.61-4.76-10.61-10.61ZM1447.88,504.04c-4.5,0-8.17,3.66-8.17,8.17v27.27c0,4.5,3.66,8.17,8.17,8.17h27.27c4.5,0,8.17-3.66,8.17-8.17v-27.27c0-4.5-3.66-8.17-8.17-8.17h-27.27Z"/>
        <g>
          <path class="cls-21" d="M1461.51,521.68c-2.3,0-4.16,1.86-4.16,4.16h-4.16c0-4.6,3.73-8.33,8.33-8.33s8.33,3.73,8.33,8.33h-4.16c0-2.3-1.86-4.16-4.16-4.16Z"/>
          <path class="cls-21" d="M1465.68,525.84c0,2.3,1.86,4.16,4.16,4.16v4.16c-4.6,0-8.33-3.73-8.33-8.33h4.16Z"/>
          <path class="cls-21" d="M1453.18,530.01c2.3,0,4.16-1.86,4.16-4.16h4.16c0,4.6-3.73,8.33-8.33,8.33v-4.16Z"/>
        </g>
      </g>
      <g>
        <path class="cls-20" d="M1310.6,602.89v-27.27c0-5.85,4.76-10.61,10.61-10.61h27.27c5.85,0,10.61,4.76,10.61,10.61v27.27c0,5.85-4.76,10.61-10.61,10.61h-27.27c-5.85,0-10.61-4.76-10.61-10.61ZM1321.21,567.45c-4.5,0-8.17,3.66-8.17,8.17v27.27c0,4.5,3.66,8.17,8.17,8.17h27.27c4.5,0,8.17-3.66,8.17-8.17v-27.27c0-4.5-3.66-8.17-8.17-8.17h-27.27Z"/>
        <g>
          <path class="cls-20" d="M1334.84,585.09c-2.3,0-4.16,1.86-4.16,4.16h-4.16c0-4.6,3.73-8.33,8.33-8.33s8.33,3.73,8.33,8.33h-4.16c0-2.3-1.86-4.16-4.16-4.16Z"/>
          <path class="cls-20" d="M1339.01,589.25c0,2.3,1.86,4.16,4.16,4.16v4.16c-4.6,0-8.33-3.73-8.33-8.33h4.16Z"/>
          <path class="cls-20" d="M1326.52,593.42c2.3,0,4.16-1.86,4.16-4.16h4.16c0,4.6-3.73,8.33-8.33,8.33v-4.16Z"/>
        </g>
      </g>
      <g>
        <path class="cls-24" d="M1310.6,347.47v-27.27c0-5.85,4.76-10.61,10.61-10.61h27.27c5.85,0,10.61,4.76,10.61,10.61v27.27c0,5.85-4.76,10.61-10.61,10.61h-27.27c-5.85,0-10.61-4.76-10.61-10.61ZM1321.21,312.03c-4.5,0-8.17,3.66-8.17,8.17v27.27c0,4.5,3.66,8.17,8.17,8.17h27.27c4.5,0,8.17-3.66,8.17-8.17v-27.27c0-4.5-3.66-8.17-8.17-8.17h-27.27Z"/>
        <g>
          <path class="cls-24" d="M1334.84,329.67c-2.3,0-4.16,1.86-4.16,4.16h-4.16c0-4.6,3.73-8.33,8.33-8.33s8.33,3.73,8.33,8.33h-4.16c0-2.3-1.86-4.16-4.16-4.16Z"/>
          <path class="cls-24" d="M1339.01,333.84c0,2.3,1.86,4.16,4.16,4.16v4.16c-4.6,0-8.33-3.73-8.33-8.33h4.16Z"/>
          <path class="cls-24" d="M1326.52,338c2.3,0,4.16-1.86,4.16-4.16h4.16c0,4.6-3.73,8.33-8.33,8.33v-4.16Z"/>
        </g>
      </g>
      <g>
        <path class="cls-17" d="M1437.27,411.77v-27.27c0-5.85,4.76-10.61,10.61-10.61h27.27c5.85,0,10.61,4.76,10.61,10.61v27.27c0,5.85-4.76,10.61-10.61,10.61h-27.27c-5.85,0-10.61-4.76-10.61-10.61ZM1447.88,376.33c-4.5,0-8.17,3.66-8.17,8.17v27.27c0,4.5,3.66,8.17,8.17,8.17h27.27c4.5,0,8.17-3.66,8.17-8.17v-27.27c0-4.5-3.66-8.17-8.17-8.17h-27.27Z"/>
        <g>
          <path class="cls-17" d="M1461.51,393.97c-2.3,0-4.16,1.86-4.16,4.16h-4.16c0-4.6,3.73-8.33,8.33-8.33s8.33,3.73,8.33,8.33h-4.16c0-2.3-1.86-4.16-4.16-4.16Z"/>
          <path class="cls-17" d="M1465.68,398.13c0,2.3,1.86,4.16,4.16,4.16v4.16c-4.6,0-8.33-3.73-8.33-8.33h4.16Z"/>
          <path class="cls-17" d="M1453.18,402.3c2.3,0,4.16-1.86,4.16-4.16h4.16c0,4.6-3.73,8.33-8.33,8.33v-4.16Z"/>
        </g>
      </g>
      <circle class="cls-32" cx="1208.17" cy="525.4" r="45.74"/>
      <g>
        <path class="cls-15" d="M1183.93,539.48v-27.27c0-5.85,4.76-10.61,10.61-10.61h27.27c5.85,0,10.61,4.76,10.61,10.61v27.27c0,5.85-4.76,10.61-10.61,10.61h-27.27c-5.85,0-10.61-4.76-10.61-10.61ZM1194.54,504.04c-4.5,0-8.17,3.66-8.17,8.17v27.27c0,4.5,3.66,8.17,8.17,8.17h27.27c4.5,0,8.17-3.66,8.17-8.17v-27.27c0-4.5-3.66-8.17-8.17-8.17h-27.27Z"/>
        <g>
          <path class="cls-15" d="M1208.17,521.68c-2.3,0-4.16,1.86-4.16,4.16h-4.16c0-4.6,3.73-8.33,8.33-8.33s8.33,3.73,8.33,8.33h-4.16c0-2.3-1.86-4.16-4.16-4.16Z"/>
          <path class="cls-15" d="M1212.34,525.84c0,2.3,1.86,4.16,4.16,4.16v4.16c-4.6,0-8.33-3.73-8.33-8.33h4.16Z"/>
          <path class="cls-15" d="M1199.85,530.01c2.3,0,4.16-1.86,4.16-4.16h4.16c0,4.6-3.73,8.33-8.33,8.33v-4.16Z"/>
        </g>
      </g>
    </g>
    <g>
      <g>
        <circle class="cls-14" cx="927.04" cy="634.55" r="84"/>
        <path class="cls-12" d="M927.04,719.28c-46.72,0-84.73-38.01-84.73-84.73s38.01-84.73,84.73-84.73,84.73,38.01,84.73,84.73-38.01,84.73-84.73,84.73ZM927.04,551.28c-45.91,0-83.27,37.35-83.27,83.27s37.35,83.27,83.27,83.27,83.27-37.35,83.27-83.27-37.35-83.27-83.27-83.27Z"/>
      </g>
      <g>
        <g>
          <path class="cls-28" d="M930.16,619.93c-10.65,0-19.29,8.64-19.29,19.29s8.64,19.29,19.29,19.29,19.29-8.64,19.29-19.29-8.64-19.29-19.29-19.29h0Z"/>
          <path class="cls-28" d="M958.03,592.05c-4.74,0-8.58,3.84-8.58,8.58s3.84,8.58,8.58,8.58,8.58-3.84,8.58-8.58-3.84-8.58-8.58-8.58h0Z"/>
          <path class="cls-28" d="M957.15,659.89c-4.74,0-8.58,3.84-8.58,8.58s3.84,8.58,8.58,8.58,8.58-3.84,8.58-8.58-3.84-8.58-8.58-8.58h0Z"/>
          <path class="cls-28" d="M915.57,596.24c-4.74,0-8.58,3.84-8.58,8.58s3.84,8.58,8.58,8.58,8.58-3.84,8.58-8.58-3.84-8.58-8.58-8.58h0Z"/>
          <line class="cls-28" x1="922.63" y1="621.46" x2="918.96" y2="612.8"/>
          <line class="cls-28" x1="952.77" y1="607.92" x2="941.75" y2="623.17"/>
          <line class="cls-28" x1="943.37" y1="653.53" x2="951.12" y2="661.93"/>
          <path class="cls-28" d="M901.62,659.58c-4.47,1.58-6.81,6.48-5.23,10.95,1.58,4.47,6.48,6.81,10.95,5.23,4.47-1.58,6.81-6.48,5.23-10.95-1.58-4.47-6.48-6.81-10.95-5.23h0Z"/>
          <line class="cls-28" x1="910.3" y1="661.22" x2="916.96" y2="653.85"/>
          <line class="cls-28" x1="910.87" y1="634.65" x2="896.12" y2="631.16"/>
          <path class="cls-28" d="M888.73,623.72c-3.27.82-5.26,4.13-4.44,7.4.82,3.27,4.13,5.26,7.4,4.44,3.27-.82,5.26-4.13,4.44-7.4-.82-3.27-4.13-5.26-7.4-4.44h0Z"/>
        </g>
        <g>
          <g>
            <path class="cls-28" d="M938.97,646.19c-3.85,0-6.97-3.12-6.97-6.97"/>
            <path class="cls-28" d="M928.32,639.22c0,3.85-3.12,6.97-6.97,6.97"/>
          </g>
          <path class="cls-28" d="M923.2,639.22c0-3.85,3.12-6.97,6.97-6.97s6.97,3.12,6.97,6.97"/>
        </g>
      </g>
    </g>
  </g>
  <g>
    <path class="cls-4" d="M133.25,402.6v-27.03h8.17v27.39c0,6.04,4.03,9.39,9.58,9.39s9.76-3.36,9.76-9.33v-27.45h7.87v27.09c0,10.37-7.08,16.35-17.75,16.35s-17.63-6.04-17.63-16.41Z"/>
    <path class="cls-8" d="M185.59,382.04h-14.58v-6.47h37.33v6.47h-14.64v36.24h-8.11v-36.24Z"/>
    <path class="cls-6" d="M223.34,396.5l-14.28-20.92h9.52l10.13,15.01,10.19-15.01h9.09l-14.34,20.68,15.19,22.02h-9.64l-10.86-16.1-10.86,16.1h-9.15l15.01-21.78Z"/>
    <path class="cls-5" d="M245.37,396.93c0-14.34,8.11-22.14,19.83-22.14s19.77,7.81,19.77,22.14-8.11,22.14-19.77,22.14-19.83-7.81-19.83-22.14ZM276.66,396.93c0-10.25-4.58-15.62-11.47-15.62s-11.53,5.37-11.53,15.62,4.64,15.62,11.53,15.62,11.47-5.37,11.47-15.62Z"/>
    <path class="cls-19" d="M300.45,375.57h20.01c9.15,0,14.76,4.94,14.76,13.05s-5.55,12.99-14.64,12.99h-12.02v16.65h-8.11v-42.7ZM308.56,381.98v13.36h11.35c4.58,0,7.26-2.26,7.26-6.65s-2.68-6.71-7.26-6.71h-11.35Z"/>
    <path class="cls-19" d="M337.84,385.15h7.81v5.25c2.13-3.72,5.55-5.79,9.94-5.79h.79v7.14c-.79-.12-1.59-.18-2.38-.18-3.48,0-6.71,1.4-8.36,4.09v22.63h-7.81v-33.12Z"/>
    <path class="cls-19" d="M356.75,401.75c0-10.98,6.59-17.45,16.29-17.45s16.35,6.47,16.35,17.45-6.53,17.32-16.35,17.32-16.29-6.47-16.29-17.32ZM381.58,401.68c0-7.63-3.36-11.65-8.54-11.65s-8.48,4.03-8.48,11.65,3.36,11.65,8.48,11.65,8.54-3.96,8.54-11.65Z"/>
    <path class="cls-19" d="M397.19,410.71v-19.83h-7.81v-5.73h7.81v-6.59h7.69v6.59h9.7v5.73h-9.7v18.42c0,2.2,1.16,3.17,3.84,3.17h5.86v5.79h-9.46c-5.37,0-7.93-2.68-7.93-7.56Z"/>
    <path class="cls-19" d="M415.19,401.75c0-10.98,6.59-17.45,16.29-17.45s16.35,6.47,16.35,17.45-6.53,17.32-16.35,17.32-16.29-6.47-16.29-17.32ZM440.02,401.68c0-7.63-3.36-11.65-8.54-11.65s-8.48,4.03-8.48,11.65,3.36,11.65,8.48,11.65,8.54-3.96,8.54-11.65Z"/>
    <path class="cls-19" d="M450.2,401.75c0-10.98,6.53-17.45,16.11-17.45,8.42,0,14.46,5.12,15.56,14.09h-7.44c-.85-5.49-3.84-8.36-8.11-8.36-5,0-8.3,4.03-8.3,11.65s3.29,11.65,8.3,11.65c4.39,0,7.44-3.05,8.17-8.85h7.38c-.92,9.27-6.89,14.58-15.56,14.58-9.64,0-16.11-6.4-16.11-17.32Z"/>
    <path class="cls-19" d="M484.11,401.75c0-10.98,6.59-17.45,16.29-17.45s16.35,6.47,16.35,17.45-6.53,17.32-16.35,17.32-16.29-6.47-16.29-17.32ZM508.94,401.68c0-7.63-3.36-11.65-8.54-11.65s-8.48,4.03-8.48,11.65,3.36,11.65,8.48,11.65,8.54-3.96,8.54-11.65Z"/>
    <path class="cls-19" d="M519.55,375.57h7.81v42.7h-7.81v-42.7Z"/>
  </g>
</svg>