<?xml version="1.0" encoding="UTF-8"?>
<svg id="Layer_1" data-name="Layer 1" xmlns="http://www.w3.org/2000/svg" xmlns:xlink="http://www.w3.org/1999/xlink" viewBox="0 0 1686 882">
  <defs>
    <style>
      .cls-1 {
        fill: url(#New_Gradient_Swatch_4);
      }

      .cls-1, .cls-2, .cls-3, .cls-4, .cls-5, .cls-6, .cls-7, .cls-8, .cls-9, .cls-10, .cls-11, .cls-12, .cls-13, .cls-14, .cls-15, .cls-16, .cls-17, .cls-18, .cls-19, .cls-20, .cls-21, .cls-22, .cls-23, .cls-24 {
        stroke-width: 0px;
      }

      .cls-2 {
        fill: url(#New_Gradient_Swatch_3);
      }

      .cls-3 {
        fill: url(#New_Gradient_Swatch_3-3);
      }

      .cls-4 {
        fill: url(#New_Gradient_Swatch_3-4);
      }

      .cls-5 {
        fill: url(#New_Gradient_Swatch_3-8);
      }

      .cls-6 {
        fill: url(#New_Gradient_Swatch_3-7);
      }

      .cls-7 {
        fill: url(#New_Gradient_Swatch_3-6);
      }

      .cls-8 {
        fill: url(#New_Gradient_Swatch_3-2);
      }

      .cls-9 {
        fill: url(#New_Gradient_Swatch_3-5);
      }

      .cls-10 {
        fill: url(#New_Gradient_Swatch_4-3);
      }

      .cls-11 {
        fill: url(#New_Gradient_Swatch_4-2);
      }

      .cls-25 {
        stroke-width: .6px;
      }

      .cls-25, .cls-26, .cls-27, .cls-28, .cls-29, .cls-30, .cls-31 {
        stroke-miterlimit: 10;
      }

      .cls-25, .cls-26, .cls-28, .cls-29, .cls-30, .cls-31 {
        stroke: #2f363e;
      }

      .cls-25, .cls-26, .cls-29, .cls-31 {
        fill: #151b23;
      }

      .cls-26 {
        stroke-width: 1.2px;
      }

      .cls-27 {
        fill: none;
        stroke: #fff;
        stroke-width: 2.5px;
      }

      .cls-28 {
        stroke-dasharray: 0 0 8.8 1.47;
      }

      .cls-28, .cls-15, .cls-30 {
        fill: #0d1116;
      }

      .cls-28, .cls-30, .cls-31 {
        stroke-width: 1.47px;
      }

      .cls-32 {
        filter: url(#drop-shadow-7);
      }

      .cls-12 {
        fill: #34383e;
      }

      .cls-13 {
        fill: #2f363e;
      }

      .cls-14 {
        fill: #18c133;
      }

      .cls-16 {
        fill: #c8c8c8;
      }

      .cls-17 {
        fill: #9797fd;
      }

      .cls-18 {
        fill: #fe5f58;
      }

      .cls-19 {
        fill: #fff;
      }

      .cls-20 {
        fill: #ffa565;
      }

      .cls-21 {
        fill: #ffbd2d;
      }

      .cls-22 {
        fill: #e97070;
      }

      .cls-23 {
        fill: #00bfff;
      }

      .cls-24 {
        fill: #00ffd5;
      }
    </style>
    <linearGradient id="New_Gradient_Swatch_4" data-name="New Gradient Swatch 4" x1="163.25" y1="299.44" x2="163.25" y2="258.84" gradientUnits="userSpaceOnUse">
      <stop offset="0" stop-color="#0afdca"/>
      <stop offset="1" stop-color="#07befd"/>
    </linearGradient>
    <linearGradient id="New_Gradient_Swatch_4-2" data-name="New Gradient Swatch 4" x1="155.61" y1="299.44" x2="155.61" y2="258.84" xlink:href="#New_Gradient_Swatch_4"/>
    <linearGradient id="New_Gradient_Swatch_4-3" data-name="New Gradient Swatch 4" x1="170.9" y1="299.44" x2="170.9" y2="258.84" xlink:href="#New_Gradient_Swatch_4"/>
    <filter id="drop-shadow-7" filterUnits="userSpaceOnUse">
      <feOffset dx="0" dy="0"/>
      <feGaussianBlur result="blur" stdDeviation="14.67"/>
      <feFlood flood-color="#000" flood-opacity=".45"/>
      <feComposite in2="blur" operator="in"/>
      <feComposite in="SourceGraphic"/>
    </filter>
    <linearGradient id="New_Gradient_Swatch_3" data-name="New Gradient Swatch 3" x1="891.95" y1="194.77" x2="993.1" y2="194.77" gradientUnits="userSpaceOnUse">
      <stop offset="0" stop-color="#00ffd5"/>
      <stop offset="1" stop-color="#00bfff"/>
    </linearGradient>
    <linearGradient id="New_Gradient_Swatch_3-2" data-name="New Gradient Swatch 3" x1="891.95" y1="205.01" x2="993.1" y2="205.01" xlink:href="#New_Gradient_Swatch_3"/>
    <linearGradient id="New_Gradient_Swatch_3-3" data-name="New Gradient Swatch 3" x1="891.95" y1="205.01" x2="993.1" y2="205.01" xlink:href="#New_Gradient_Swatch_3"/>
    <linearGradient id="New_Gradient_Swatch_3-4" data-name="New Gradient Swatch 3" x1="129.36" y1="396.93" x2="256.96" y2="396.93" xlink:href="#New_Gradient_Swatch_3"/>
    <linearGradient id="New_Gradient_Swatch_3-5" data-name="New Gradient Swatch 3" x1="129.36" y1="396.93" x2="256.96" y2="396.93" xlink:href="#New_Gradient_Swatch_3"/>
    <linearGradient id="New_Gradient_Swatch_3-6" data-name="New Gradient Swatch 3" x1="129.36" y1="401.63" x2="256.96" y2="401.63" xlink:href="#New_Gradient_Swatch_3"/>
    <linearGradient id="New_Gradient_Swatch_3-7" data-name="New Gradient Swatch 3" x1="129.36" y1="401.72" x2="256.96" y2="401.72" xlink:href="#New_Gradient_Swatch_3"/>
    <linearGradient id="New_Gradient_Swatch_3-8" data-name="New Gradient Swatch 3" x1="129.36" y1="401.69" x2="256.96" y2="401.69" xlink:href="#New_Gradient_Swatch_3"/>
  </defs>
  <rect class="cls-15" width="1690.31" height="882"/>
  <g>
    <g>
      <g>
        <path class="cls-16" d="M132.95,497.62h6.65c3.12,0,5.38.47,6.78,1.4,1.4.93,2.09,2.41,2.09,4.43,0,1.4-.39,2.55-1.17,3.46s-1.91,1.5-3.41,1.76v.16c3.58.61,5.36,2.49,5.36,5.64,0,2.1-.71,3.75-2.13,4.93-1.42,1.18-3.41,1.77-5.97,1.77h-8.21v-23.55ZM135.69,507.7h4.51c1.93,0,3.32-.3,4.17-.91s1.27-1.63,1.27-3.07c0-1.32-.47-2.27-1.42-2.86-.94-.58-2.45-.88-4.51-.88h-4.03v7.71ZM135.69,510.02v8.81h4.91c1.9,0,3.33-.37,4.29-1.1s1.44-1.89,1.44-3.45c0-1.46-.49-2.53-1.47-3.22-.98-.69-2.48-1.03-4.49-1.03h-4.69Z"/>
        <path class="cls-16" d="M157.25,503.51v11.45c0,1.44.33,2.51.98,3.22s1.68,1.06,3.08,1.06c1.85,0,3.2-.5,4.05-1.51.85-1.01,1.28-2.66,1.28-4.94v-9.28h2.67v17.65h-2.21l-.39-2.37h-.15c-.55.87-1.31,1.54-2.28,2-.97.46-2.08.69-3.33.69-2.15,0-3.76-.51-4.82-1.53-1.07-1.02-1.6-2.65-1.6-4.9v-11.55h2.71Z"/>
        <path class="cls-16" d="M175.58,498.73c0-.61.15-1.06.45-1.34.3-.28.68-.43,1.13-.43s.8.14,1.11.43c.31.29.47.74.47,1.34s-.16,1.05-.47,1.34c-.31.3-.68.44-1.11.44-.45,0-.83-.15-1.13-.44-.3-.29-.45-.74-.45-1.34ZM178.48,521.16h-2.67v-17.65h2.67v17.65Z"/>
        <path class="cls-16" d="M187.65,521.16h-2.67v-25.06h2.67v25.06Z"/>
        <path class="cls-16" d="M206.16,518.8h-.15c-1.23,1.79-3.08,2.69-5.54,2.69-2.31,0-4.1-.79-5.39-2.37-1.28-1.58-1.92-3.82-1.92-6.73s.64-5.17,1.93-6.78,3.08-2.42,5.38-2.42,4.23.87,5.51,2.61h.21l-.11-1.27-.06-1.24v-7.18h2.67v25.06h-2.17l-.35-2.37ZM200.81,519.25c1.83,0,3.15-.5,3.97-1.49s1.23-2.6,1.23-4.81v-.56c0-2.5-.42-4.29-1.25-5.35-.83-1.07-2.16-1.6-3.99-1.6-1.57,0-2.77.61-3.6,1.83-.83,1.22-1.25,2.94-1.25,5.16s.41,3.96,1.24,5.11c.83,1.15,2.04,1.72,3.64,1.72Z"/>
        <path class="cls-16" d="M221.77,503.51h2.87l3.87,10.07c.85,2.3,1.37,3.96,1.58,4.98h.13c.14-.55.43-1.48.88-2.81.45-1.33,1.9-5.4,4.37-12.23h2.87l-7.59,20.1c-.75,1.99-1.63,3.4-2.63,4.23s-2.24,1.25-3.7,1.25c-.82,0-1.62-.09-2.42-.27v-2.14c.59.13,1.25.19,1.98.19,1.84,0,3.15-1.03,3.93-3.09l.98-2.51-7.12-17.75Z"/>
        <path class="cls-16" d="M257.25,512.32c0,2.88-.72,5.12-2.17,6.74-1.45,1.62-3.45,2.42-6.01,2.42-1.58,0-2.98-.37-4.2-1.11s-2.17-1.8-2.83-3.19c-.67-1.39-1-3.01-1-4.86,0-2.88.72-5.12,2.16-6.72,1.44-1.61,3.44-2.41,5.99-2.41s4.43.82,5.89,2.46c1.46,1.64,2.18,3.87,2.18,6.67ZM243.81,512.32c0,2.25.45,3.97,1.35,5.15.9,1.18,2.23,1.77,3.98,1.77s3.08-.59,3.99-1.76,1.36-2.9,1.36-5.16-.45-3.95-1.36-5.11-2.25-1.75-4.02-1.75-3.07.57-3.96,1.72c-.89,1.15-1.34,2.86-1.34,5.14Z"/>
        <path class="cls-16" d="M265.28,503.51v11.45c0,1.44.33,2.51.98,3.22s1.68,1.06,3.08,1.06c1.85,0,3.2-.5,4.05-1.51.85-1.01,1.28-2.66,1.28-4.94v-9.28h2.67v17.65h-2.21l-.39-2.37h-.15c-.55.87-1.31,1.54-2.28,2-.97.46-2.08.69-3.33.69-2.15,0-3.76-.51-4.82-1.53-1.07-1.02-1.6-2.65-1.6-4.9v-11.55h2.71Z"/>
        <path class="cls-16" d="M291.89,503.19c.78,0,1.49.06,2.11.19l-.37,2.48c-.73-.16-1.37-.24-1.93-.24-1.43,0-2.65.58-3.66,1.74-1.01,1.16-1.52,2.6-1.52,4.33v9.47h-2.67v-17.65h2.21l.31,3.27h.13c.65-1.15,1.44-2.03,2.37-2.66s1.94-.93,3.04-.93Z"/>
        <path class="cls-16" d="M322.75,512.32c0,2.88-.72,5.12-2.17,6.74-1.45,1.62-3.45,2.42-6.01,2.42-1.58,0-2.98-.37-4.2-1.11s-2.17-1.8-2.83-3.19c-.67-1.39-1-3.01-1-4.86,0-2.88.72-5.12,2.16-6.72,1.44-1.61,3.44-2.41,5.99-2.41s4.43.82,5.89,2.46c1.46,1.64,2.18,3.87,2.18,6.67ZM309.3,512.32c0,2.25.45,3.97,1.35,5.15.9,1.18,2.23,1.77,3.98,1.77s3.08-.59,3.99-1.76,1.36-2.9,1.36-5.16-.45-3.95-1.36-5.11-2.25-1.75-4.02-1.75-3.07.57-3.96,1.72c-.89,1.15-1.34,2.86-1.34,5.14Z"/>
        <path class="cls-16" d="M342.68,521.16l-3.24-10.36c-.2-.63-.59-2.07-1.14-4.32h-.13c-.43,1.88-.81,3.33-1.13,4.35l-3.33,10.32h-3.09l-4.82-17.65h2.8c1.14,4.43,2,7.81,2.6,10.13.6,2.32.94,3.88,1.02,4.69h.13c.12-.61.31-1.4.57-2.38.26-.97.49-1.74.68-2.31l3.24-10.13h2.9l3.16,10.13c.6,1.85,1.01,3.4,1.22,4.65h.13c.04-.39.16-.98.35-1.79.19-.81,1.31-5.14,3.36-13h2.77l-4.88,17.65h-3.17Z"/>
        <path class="cls-16" d="M366.82,521.16v-11.42c0-1.44-.33-2.51-.98-3.22-.66-.71-1.68-1.06-3.08-1.06-1.85,0-3.2.5-4.06,1.5-.86,1-1.29,2.65-1.29,4.94v9.26h-2.67v-17.65h2.17l.43,2.42h.13c.55-.87,1.32-1.54,2.3-2.02s2.09-.72,3.3-.72c2.13,0,3.73.51,4.8,1.54,1.07,1.03,1.61,2.67,1.61,4.92v11.52h-2.67Z"/>
        <path class="cls-16" d="M406.16,521.16h-2.71l-4.75-15.77c-.23-.7-.48-1.58-.76-2.64-.28-1.06-.42-1.7-.44-1.92-.24,1.42-.61,2.97-1.13,4.66l-4.61,15.67h-2.71l-6.26-23.55h2.9l3.72,14.54c.52,2.04.89,3.89,1.13,5.54.29-1.96.72-3.89,1.29-5.77l4.22-14.32h2.9l4.43,14.45c.52,1.66.95,3.54,1.3,5.64.2-1.52.59-3.38,1.16-5.57l3.7-14.51h2.9l-6.3,23.55Z"/>
        <path class="cls-16" d="M427.42,521.16l-.53-2.51h-.13c-.88,1.11-1.76,1.86-2.63,2.25-.88.39-1.97.59-3.28.59-1.75,0-3.12-.45-4.12-1.35-.99-.9-1.49-2.19-1.49-3.85,0-3.56,2.85-5.43,8.55-5.6l3-.1v-1.1c0-1.38-.3-2.41-.89-3.07s-1.55-.99-2.86-.99c-1.47,0-3.14.45-4.99,1.35l-.82-2.05c.87-.47,1.82-.84,2.86-1.11,1.04-.27,2.07-.4,3.12-.4,2.1,0,3.66.47,4.68,1.4s1.52,2.43,1.52,4.49v12.05h-1.98ZM421.38,519.28c1.66,0,2.97-.46,3.92-1.37.95-.91,1.43-2.19,1.43-3.83v-1.59l-2.67.11c-2.13.08-3.66.41-4.6.99-.94.58-1.41,1.5-1.41,2.73,0,.97.29,1.7.88,2.21.58.5,1.4.76,2.46.76Z"/>
        <path class="cls-16" d="M438.41,521.16h-2.67v-25.06h2.67v25.06Z"/>
        <path class="cls-16" d="M447.57,521.16h-2.67v-25.06h2.67v25.06Z"/>
        <path class="cls-16" d="M461.52,521.49c-2.61,0-4.67-.79-6.18-2.38s-2.26-3.79-2.26-6.62.7-5.11,2.1-6.78c1.4-1.67,3.28-2.51,5.65-2.51,2.21,0,3.96.73,5.25,2.18,1.29,1.46,1.93,3.37,1.93,5.76v1.69h-12.16c.05,2.07.58,3.65,1.57,4.72.99,1.07,2.39,1.61,4.2,1.61,1.9,0,3.78-.4,5.64-1.19v2.38c-.95.41-1.84.7-2.68.88-.84.18-1.86.27-3.05.27ZM460.8,505.43c-1.42,0-2.55.46-3.39,1.38s-1.34,2.2-1.49,3.83h9.23c0-1.69-.38-2.98-1.13-3.87-.75-.9-1.83-1.34-3.22-1.34Z"/>
        <path class="cls-16" d="M479.1,519.28c.47,0,.93-.03,1.37-.1.44-.07.79-.14,1.05-.22v2.04c-.29.14-.72.25-1.28.35-.56.09-1.07.14-1.52.14-3.41,0-5.12-1.8-5.12-5.4v-10.5h-2.53v-1.29l2.53-1.11,1.13-3.77h1.55v4.09h5.12v2.08h-5.12v10.39c0,1.06.25,1.88.76,2.45.5.57,1.2.85,2.08.85Z"/>
        <path class="cls-16" d="M510.49,512.32c0,2.88-.72,5.12-2.17,6.74-1.45,1.62-3.45,2.42-6.01,2.42-1.58,0-2.98-.37-4.2-1.11s-2.17-1.8-2.83-3.19c-.67-1.39-1-3.01-1-4.86,0-2.88.72-5.12,2.16-6.72,1.44-1.61,3.44-2.41,5.99-2.41s4.43.82,5.89,2.46c1.46,1.64,2.18,3.87,2.18,6.67ZM497.04,512.32c0,2.25.45,3.97,1.35,5.15.9,1.18,2.23,1.77,3.98,1.77s3.08-.59,3.99-1.76,1.36-2.9,1.36-5.16-.45-3.95-1.36-5.11-2.25-1.75-4.02-1.75-3.07.57-3.96,1.72c-.89,1.15-1.34,2.86-1.34,5.14Z"/>
        <path class="cls-16" d="M528.08,521.16v-11.42c0-1.44-.33-2.51-.98-3.22-.66-.71-1.68-1.06-3.08-1.06-1.85,0-3.2.5-4.06,1.5-.86,1-1.29,2.65-1.29,4.94v9.26h-2.67v-17.65h2.17l.43,2.42h.13c.55-.87,1.32-1.54,2.3-2.02s2.09-.72,3.3-.72c2.13,0,3.73.51,4.8,1.54,1.07,1.03,1.61,2.67,1.61,4.92v11.52h-2.67Z"/>
        <path class="cls-16" d="M563.87,521.16h-3.22l-8.58-11.42-2.46,2.19v9.23h-2.74v-23.55h2.74v11.68l10.68-11.68h3.24l-9.47,10.23,9.82,13.32Z"/>
        <path class="cls-16" d="M570.21,521.16h-2.67v-25.06h2.67v25.06Z"/>
        <path class="cls-16" d="M587.55,521.16l-.53-2.51h-.13c-.88,1.11-1.76,1.86-2.63,2.25-.88.39-1.97.59-3.28.59-1.75,0-3.12-.45-4.12-1.35-.99-.9-1.49-2.19-1.49-3.85,0-3.56,2.85-5.43,8.55-5.6l3-.1v-1.1c0-1.38-.3-2.41-.89-3.07s-1.55-.99-2.86-.99c-1.47,0-3.14.45-4.99,1.35l-.82-2.05c.87-.47,1.82-.84,2.86-1.11,1.04-.27,2.07-.4,3.12-.4,2.1,0,3.66.47,4.68,1.4s1.52,2.43,1.52,4.49v12.05h-1.98ZM581.51,519.28c1.66,0,2.97-.46,3.92-1.37.95-.91,1.43-2.19,1.43-3.83v-1.59l-2.67.11c-2.13.08-3.66.41-4.6.99-.94.58-1.41,1.5-1.41,2.73,0,.97.29,1.7.88,2.21.58.5,1.4.76,2.46.76Z"/>
        <path class="cls-16" d="M599.73,521.16l-6.7-17.65h2.87l3.8,10.47c.86,2.45,1.36,4.04,1.51,4.77h.13c.12-.57.49-1.75,1.12-3.54.63-1.79,2.04-5.69,4.23-11.7h2.87l-6.7,17.65h-3.12Z"/>
        <path class="cls-16" d="M620.67,521.49c-2.61,0-4.67-.79-6.18-2.38s-2.26-3.79-2.26-6.62.7-5.11,2.1-6.78c1.4-1.67,3.28-2.51,5.65-2.51,2.21,0,3.96.73,5.25,2.18,1.29,1.46,1.93,3.37,1.93,5.76v1.69h-12.16c.05,2.07.58,3.65,1.57,4.72.99,1.07,2.39,1.61,4.2,1.61,1.9,0,3.78-.4,5.64-1.19v2.38c-.95.41-1.84.7-2.68.88-.84.18-1.86.27-3.05.27ZM619.95,505.43c-1.42,0-2.55.46-3.39,1.38s-1.34,2.2-1.49,3.83h9.23c0-1.69-.38-2.98-1.13-3.87-.75-.9-1.83-1.34-3.22-1.34Z"/>
        <path class="cls-16" d="M143.4,566.83l-.53-2.51h-.13c-.88,1.11-1.76,1.86-2.63,2.25-.88.39-1.97.59-3.28.59-1.75,0-3.12-.45-4.12-1.35-.99-.9-1.49-2.19-1.49-3.85,0-3.56,2.85-5.43,8.55-5.6l3-.1v-1.1c0-1.38-.3-2.41-.89-3.07s-1.55-.99-2.86-.99c-1.47,0-3.14.45-4.99,1.35l-.82-2.05c.87-.47,1.82-.84,2.86-1.11,1.04-.27,2.07-.4,3.12-.4,2.1,0,3.66.47,4.68,1.4s1.52,2.43,1.52,4.49v12.05h-1.98ZM137.36,564.95c1.66,0,2.97-.46,3.92-1.37.95-.91,1.43-2.19,1.43-3.83v-1.59l-2.67.11c-2.13.08-3.66.41-4.6.99-.94.58-1.41,1.5-1.41,2.73,0,.97.29,1.7.88,2.21.58.5,1.4.76,2.46.76Z"/>
        <path class="cls-16" d="M163.79,566.83v-11.42c0-1.44-.33-2.51-.98-3.22-.66-.71-1.68-1.06-3.08-1.06-1.85,0-3.2.5-4.06,1.5-.86,1-1.29,2.65-1.29,4.94v9.26h-2.67v-17.65h2.17l.43,2.42h.13c.55-.87,1.32-1.54,2.3-2.02s2.09-.72,3.3-.72c2.13,0,3.73.51,4.8,1.54,1.07,1.03,1.61,2.67,1.61,4.92v11.52h-2.67Z"/>
        <path class="cls-16" d="M184.8,564.47h-.15c-1.23,1.79-3.08,2.69-5.54,2.69-2.31,0-4.1-.79-5.39-2.37-1.28-1.58-1.92-3.82-1.92-6.73s.64-5.17,1.93-6.78,3.08-2.42,5.38-2.42,4.23.87,5.51,2.61h.21l-.11-1.27-.06-1.24v-7.18h2.67v25.06h-2.17l-.35-2.37ZM179.45,564.92c1.83,0,3.15-.5,3.97-1.49s1.23-2.6,1.23-4.81v-.56c0-2.5-.42-4.29-1.25-5.35-.83-1.07-2.16-1.6-3.99-1.6-1.57,0-2.77.61-3.6,1.83-.83,1.22-1.25,2.94-1.25,5.16s.41,3.96,1.24,5.11c.83,1.15,2.04,1.72,3.64,1.72Z"/>
        <path class="cls-16" d="M225.71,566.83v-11.48c0-1.41-.3-2.46-.9-3.16-.6-.7-1.54-1.05-2.8-1.05-1.66,0-2.89.48-3.69,1.43-.79.96-1.19,2.43-1.19,4.41v9.86h-2.67v-11.48c0-1.41-.3-2.46-.9-3.16-.6-.7-1.54-1.05-2.82-1.05-1.67,0-2.9.5-3.68,1.51-.78,1-1.17,2.65-1.17,4.94v9.26h-2.67v-17.65h2.17l.43,2.42h.13c.5-.86,1.22-1.53,2.13-2.01.92-.48,1.95-.72,3.08-.72,2.76,0,4.56,1,5.41,3h.13c.53-.92,1.29-1.65,2.29-2.19s2.14-.81,3.41-.81c2,0,3.49.51,4.49,1.54s1.49,2.67,1.49,4.92v11.52h-2.67Z"/>
        <path class="cls-16" d="M245.57,566.83l-.53-2.51h-.13c-.88,1.11-1.76,1.86-2.63,2.25-.88.39-1.97.59-3.28.59-1.75,0-3.12-.45-4.12-1.35-.99-.9-1.49-2.19-1.49-3.85,0-3.56,2.85-5.43,8.55-5.6l3-.1v-1.1c0-1.38-.3-2.41-.89-3.07s-1.55-.99-2.86-.99c-1.47,0-3.14.45-4.99,1.35l-.82-2.05c.87-.47,1.82-.84,2.86-1.11,1.04-.27,2.07-.4,3.12-.4,2.1,0,3.66.47,4.68,1.4s1.52,2.43,1.52,4.49v12.05h-1.98ZM239.53,564.95c1.66,0,2.97-.46,3.92-1.37.95-.91,1.43-2.19,1.43-3.83v-1.59l-2.67.11c-2.13.08-3.66.41-4.6.99-.94.58-1.41,1.5-1.41,2.73,0,.97.29,1.7.88,2.21.58.5,1.4.76,2.46.76Z"/>
        <path class="cls-16" d="M265.96,566.83v-11.42c0-1.44-.33-2.51-.98-3.22-.66-.71-1.68-1.06-3.08-1.06-1.85,0-3.2.5-4.06,1.5-.86,1-1.29,2.65-1.29,4.94v9.26h-2.67v-17.65h2.17l.43,2.42h.13c.55-.87,1.32-1.54,2.3-2.02s2.09-.72,3.3-.72c2.13,0,3.73.51,4.8,1.54,1.07,1.03,1.61,2.67,1.61,4.92v11.52h-2.67Z"/>
        <path class="cls-16" d="M285.81,566.83l-.53-2.51h-.13c-.88,1.11-1.76,1.86-2.63,2.25-.88.39-1.97.59-3.28.59-1.75,0-3.12-.45-4.12-1.35-.99-.9-1.49-2.19-1.49-3.85,0-3.56,2.85-5.43,8.55-5.6l3-.1v-1.1c0-1.38-.3-2.41-.89-3.07s-1.55-.99-2.86-.99c-1.47,0-3.14.45-4.99,1.35l-.82-2.05c.87-.47,1.82-.84,2.86-1.11,1.04-.27,2.07-.4,3.12-.4,2.1,0,3.66.47,4.68,1.4s1.52,2.43,1.52,4.49v12.05h-1.98ZM279.77,564.95c1.66,0,2.97-.46,3.92-1.37.95-.91,1.43-2.19,1.43-3.83v-1.59l-2.67.11c-2.13.08-3.66.41-4.6.99-.94.58-1.41,1.5-1.41,2.73,0,.97.29,1.7.88,2.21.58.5,1.4.76,2.46.76Z"/>
        <path class="cls-16" d="M308.57,549.18v1.69l-3.27.39c.3.38.57.87.81,1.47.24.61.35,1.29.35,2.05,0,1.73-.59,3.11-1.77,4.14-1.18,1.03-2.8,1.55-4.86,1.55-.53,0-1.02-.04-1.48-.13-1.14.6-1.71,1.36-1.71,2.27,0,.48.2.84.6,1.07.4.23,1.08.35,2.05.35h3.12c1.91,0,3.38.4,4.4,1.21,1.02.81,1.54,1.98,1.54,3.51,0,1.95-.78,3.44-2.35,4.47-1.57,1.03-3.85,1.54-6.86,1.54-2.31,0-4.09-.43-5.34-1.29-1.25-.86-1.88-2.07-1.88-3.64,0-1.07.34-2,1.03-2.79.69-.78,1.65-1.31,2.9-1.59-.45-.2-.83-.52-1.14-.95s-.46-.93-.46-1.5c0-.64.17-1.21.52-1.69.34-.48.89-.95,1.63-1.4-.91-.38-1.66-1.01-2.23-1.92-.57-.9-.86-1.93-.86-3.09,0-1.93.58-3.42,1.74-4.47s2.8-1.57,4.93-1.57c.92,0,1.76.11,2.5.32h6.1ZM294.49,569.8c0,.96.4,1.68,1.21,2.17.81.49,1.96.74,3.46.74,2.24,0,3.91-.33,4.98-1.01s1.62-1.58,1.62-2.73c0-.96-.3-1.62-.89-1.99-.59-.37-1.7-.56-3.33-.56h-3.2c-1.21,0-2.16.29-2.83.87-.68.58-1.01,1.41-1.01,2.5ZM295.94,554.84c0,1.23.35,2.17,1.05,2.8.7.63,1.67.95,2.92.95,2.61,0,3.91-1.27,3.91-3.8s-1.32-3.98-3.96-3.98c-1.26,0-2.22.34-2.9,1.01-.68.68-1.01,1.68-1.01,3.01Z"/>
        <path class="cls-16" d="M320.47,567.16c-2.61,0-4.67-.79-6.18-2.38s-2.26-3.79-2.26-6.62.7-5.11,2.1-6.78c1.4-1.67,3.28-2.51,5.65-2.51,2.21,0,3.96.73,5.25,2.18,1.29,1.46,1.93,3.37,1.93,5.76v1.69h-12.16c.05,2.07.58,3.65,1.57,4.72.99,1.07,2.39,1.61,4.2,1.61,1.9,0,3.78-.4,5.64-1.19v2.38c-.95.41-1.84.7-2.68.88-.84.18-1.86.27-3.05.27ZM319.75,551.1c-1.42,0-2.55.46-3.39,1.38s-1.34,2.2-1.49,3.83h9.23c0-1.69-.38-2.98-1.13-3.87-.75-.9-1.83-1.34-3.22-1.34Z"/>
        <path class="cls-16" d="M338.94,549.18h2.87l3.87,10.07c.85,2.3,1.37,3.96,1.58,4.98h.13c.14-.55.43-1.48.88-2.81.45-1.33,1.9-5.4,4.37-12.23h2.87l-7.59,20.1c-.75,1.99-1.63,3.4-2.63,4.23s-2.24,1.25-3.7,1.25c-.82,0-1.62-.09-2.42-.27v-2.14c.59.13,1.25.19,1.98.19,1.84,0,3.15-1.03,3.93-3.09l.98-2.51-7.12-17.75Z"/>
        <path class="cls-16" d="M374.42,557.99c0,2.88-.72,5.12-2.17,6.74-1.45,1.62-3.45,2.42-6.01,2.42-1.58,0-2.98-.37-4.2-1.11s-2.17-1.8-2.83-3.19c-.67-1.39-1-3.01-1-4.86,0-2.88.72-5.12,2.16-6.72,1.44-1.61,3.44-2.41,5.99-2.41s4.43.82,5.89,2.46c1.46,1.64,2.18,3.87,2.18,6.67ZM360.97,557.99c0,2.25.45,3.97,1.35,5.15.9,1.18,2.23,1.77,3.98,1.77s3.08-.59,3.99-1.76,1.36-2.9,1.36-5.16-.45-3.95-1.36-5.11-2.25-1.75-4.02-1.75-3.07.57-3.96,1.72c-.89,1.15-1.34,2.86-1.34,5.14Z"/>
        <path class="cls-16" d="M382.44,549.18v11.45c0,1.44.33,2.51.98,3.22s1.68,1.06,3.08,1.06c1.85,0,3.2-.5,4.05-1.51.85-1.01,1.28-2.66,1.28-4.94v-9.28h2.67v17.65h-2.21l-.39-2.37h-.15c-.55.87-1.31,1.54-2.28,2-.97.46-2.08.69-3.33.69-2.15,0-3.76-.51-4.82-1.53-1.07-1.02-1.6-2.65-1.6-4.9v-11.55h2.71Z"/>
        <path class="cls-16" d="M409.05,548.86c.78,0,1.49.06,2.11.19l-.37,2.48c-.73-.16-1.37-.24-1.93-.24-1.43,0-2.65.58-3.66,1.74-1.01,1.16-1.52,2.6-1.52,4.33v9.47h-2.67v-17.65h2.21l.31,3.27h.13c.65-1.15,1.44-2.03,2.37-2.66s1.94-.93,3.04-.93Z"/>
        <path class="cls-16" d="M431.73,567.16c-2.56,0-4.53-.79-5.94-2.36-1.4-1.57-2.1-3.8-2.1-6.68s.71-5.23,2.13-6.84c1.42-1.61,3.45-2.42,6.08-2.42.85,0,1.7.09,2.54.27s1.51.4,2,.64l-.82,2.27c-.59-.24-1.23-.43-1.93-.59-.7-.16-1.32-.23-1.85-.23-3.59,0-5.38,2.29-5.38,6.86,0,2.17.44,3.83,1.31,4.99.88,1.16,2.17,1.74,3.89,1.74,1.47,0,2.98-.32,4.53-.95v2.37c-1.18.61-2.67.92-4.46.92Z"/>
        <path class="cls-16" d="M449.26,548.86c.78,0,1.49.06,2.11.19l-.37,2.48c-.73-.16-1.37-.24-1.93-.24-1.43,0-2.65.58-3.66,1.74-1.01,1.16-1.52,2.6-1.52,4.33v9.47h-2.67v-17.65h2.21l.31,3.27h.13c.65-1.15,1.44-2.03,2.37-2.66s1.94-.93,3.04-.93Z"/>
        <path class="cls-16" d="M452.69,549.18h2.87l3.87,10.07c.85,2.3,1.37,3.96,1.58,4.98h.13c.14-.55.43-1.48.88-2.81.45-1.33,1.9-5.4,4.37-12.23h2.87l-7.59,20.1c-.75,1.99-1.63,3.4-2.63,4.23s-2.24,1.25-3.7,1.25c-.82,0-1.62-.09-2.42-.27v-2.14c.59.13,1.25.19,1.98.19,1.84,0,3.15-1.03,3.93-3.09l.98-2.51-7.12-17.75Z"/>
        <path class="cls-16" d="M481.15,567.16c-1.15,0-2.2-.21-3.15-.64-.95-.42-1.75-1.08-2.39-1.96h-.19c.13,1.03.19,2.01.19,2.93v7.26h-2.67v-25.58h2.17l.37,2.42h.13c.69-.97,1.49-1.66,2.4-2.09s1.96-.64,3.14-.64c2.34,0,4.15.8,5.42,2.4,1.27,1.6,1.91,3.84,1.91,6.73s-.65,5.15-1.94,6.76c-1.29,1.61-3.09,2.41-5.39,2.41ZM480.77,551.13c-1.8,0-3.11.5-3.91,1.5-.81,1-1.22,2.59-1.24,4.77v.6c0,2.48.41,4.25,1.24,5.32s2.15,1.6,3.98,1.6c1.52,0,2.72-.62,3.58-1.85s1.3-2.94,1.3-5.11-.43-3.89-1.3-5.07c-.86-1.17-2.08-1.76-3.65-1.76Z"/>
        <path class="cls-16" d="M499.68,564.95c.47,0,.93-.03,1.37-.1.44-.07.79-.14,1.05-.22v2.04c-.29.14-.72.25-1.28.35-.56.09-1.07.14-1.52.14-3.41,0-5.12-1.8-5.12-5.4v-10.5h-2.53v-1.29l2.53-1.11,1.13-3.77h1.55v4.09h5.12v2.08h-5.12v10.39c0,1.06.25,1.88.76,2.45.5.57,1.2.85,2.08.85Z"/>
        <path class="cls-16" d="M521.68,557.99c0,2.88-.72,5.12-2.17,6.74-1.45,1.62-3.45,2.42-6.01,2.42-1.58,0-2.98-.37-4.2-1.11s-2.17-1.8-2.83-3.19c-.67-1.39-1-3.01-1-4.86,0-2.88.72-5.12,2.16-6.72,1.44-1.61,3.44-2.41,5.99-2.41s4.43.82,5.89,2.46c1.46,1.64,2.18,3.87,2.18,6.67ZM508.23,557.99c0,2.25.45,3.97,1.35,5.15.9,1.18,2.23,1.77,3.98,1.77s3.08-.59,3.99-1.76,1.36-2.9,1.36-5.16-.45-3.95-1.36-5.11-2.25-1.75-4.02-1.75-3.07.57-3.96,1.72c-.89,1.15-1.34,2.86-1.34,5.14Z"/>
        <path class="cls-16" d="M541.64,549.18v1.69l-3.27.39c.3.38.57.87.81,1.47.24.61.35,1.29.35,2.05,0,1.73-.59,3.11-1.77,4.14-1.18,1.03-2.8,1.55-4.86,1.55-.53,0-1.02-.04-1.48-.13-1.14.6-1.71,1.36-1.71,2.27,0,.48.2.84.6,1.07.4.23,1.08.35,2.05.35h3.12c1.91,0,3.38.4,4.4,1.21,1.02.81,1.54,1.98,1.54,3.51,0,1.95-.78,3.44-2.35,4.47-1.57,1.03-3.85,1.54-6.86,1.54-2.31,0-4.09-.43-5.34-1.29-1.25-.86-1.88-2.07-1.88-3.64,0-1.07.34-2,1.03-2.79.69-.78,1.65-1.31,2.9-1.59-.45-.2-.83-.52-1.14-.95s-.46-.93-.46-1.5c0-.64.17-1.21.52-1.69.34-.48.89-.95,1.63-1.4-.91-.38-1.66-1.01-2.23-1.92-.57-.9-.86-1.93-.86-3.09,0-1.93.58-3.42,1.74-4.47s2.8-1.57,4.93-1.57c.92,0,1.76.11,2.5.32h6.1ZM527.56,569.8c0,.96.4,1.68,1.21,2.17.81.49,1.96.74,3.46.74,2.24,0,3.91-.33,4.98-1.01s1.62-1.58,1.62-2.73c0-.96-.3-1.62-.89-1.99-.59-.37-1.7-.56-3.33-.56h-3.2c-1.21,0-2.16.29-2.83.87-.68.58-1.01,1.41-1.01,2.5ZM529.01,554.84c0,1.23.35,2.17,1.05,2.8.7.63,1.67.95,2.92.95,2.61,0,3.91-1.27,3.91-3.8s-1.32-3.98-3.96-3.98c-1.26,0-2.22.34-2.9,1.01-.68.68-1.01,1.68-1.01,3.01Z"/>
        <path class="cls-16" d="M554.14,548.86c.78,0,1.49.06,2.11.19l-.37,2.48c-.73-.16-1.37-.24-1.93-.24-1.43,0-2.65.58-3.66,1.74-1.01,1.16-1.52,2.6-1.52,4.33v9.47h-2.67v-17.65h2.21l.31,3.27h.13c.65-1.15,1.44-2.03,2.37-2.66s1.94-.93,3.04-.93Z"/>
        <path class="cls-16" d="M571.23,566.83l-.53-2.51h-.13c-.88,1.11-1.76,1.86-2.63,2.25-.88.39-1.97.59-3.28.59-1.75,0-3.12-.45-4.12-1.35-.99-.9-1.49-2.19-1.49-3.85,0-3.56,2.85-5.43,8.55-5.6l3-.1v-1.1c0-1.38-.3-2.41-.89-3.07s-1.55-.99-2.86-.99c-1.47,0-3.14.45-4.99,1.35l-.82-2.05c.87-.47,1.82-.84,2.86-1.11,1.04-.27,2.07-.4,3.12-.4,2.1,0,3.66.47,4.68,1.4s1.52,2.43,1.52,4.49v12.05h-1.98ZM565.19,564.95c1.66,0,2.97-.46,3.92-1.37.95-.91,1.43-2.19,1.43-3.83v-1.59l-2.67.11c-2.13.08-3.66.41-4.6.99-.94.58-1.41,1.5-1.41,2.73,0,.97.29,1.7.88,2.21.58.5,1.4.76,2.46.76Z"/>
        <path class="cls-16" d="M587.76,567.16c-1.15,0-2.2-.21-3.15-.64-.95-.42-1.75-1.08-2.39-1.96h-.19c.13,1.03.19,2.01.19,2.93v7.26h-2.67v-25.58h2.17l.37,2.42h.13c.69-.97,1.49-1.66,2.4-2.09s1.96-.64,3.14-.64c2.34,0,4.15.8,5.42,2.4,1.27,1.6,1.91,3.84,1.91,6.73s-.65,5.15-1.94,6.76c-1.29,1.61-3.09,2.41-5.39,2.41ZM587.37,551.13c-1.8,0-3.11.5-3.91,1.5-.81,1-1.22,2.59-1.24,4.77v.6c0,2.48.41,4.25,1.24,5.32s2.15,1.6,3.98,1.6c1.52,0,2.72-.62,3.58-1.85s1.3-2.94,1.3-5.11-.43-3.89-1.3-5.07c-.86-1.17-2.08-1.76-3.65-1.76Z"/>
        <path class="cls-16" d="M612.66,566.83v-11.42c0-1.44-.33-2.51-.98-3.22-.66-.71-1.68-1.06-3.08-1.06-1.86,0-3.21.5-4.07,1.51-.85,1.01-1.28,2.66-1.28,4.96v9.23h-2.67v-25.06h2.67v7.58c0,.91-.04,1.67-.13,2.27h.16c.53-.85,1.27-1.52,2.25-2,.97-.49,2.08-.73,3.33-.73,2.16,0,3.78.51,4.86,1.54s1.62,2.66,1.62,4.89v11.52h-2.67Z"/>
        <path class="cls-16" d="M621.42,544.4c0-.61.15-1.06.45-1.34.3-.28.68-.43,1.13-.43s.8.14,1.11.43c.31.29.47.74.47,1.34s-.16,1.05-.47,1.34c-.31.3-.68.44-1.11.44-.45,0-.83-.15-1.13-.44-.3-.29-.45-.74-.45-1.34ZM624.32,566.83h-2.67v-17.65h2.67v17.65Z"/>
        <path class="cls-16" d="M637.87,567.16c-2.56,0-4.53-.79-5.94-2.36-1.4-1.57-2.1-3.8-2.1-6.68s.71-5.23,2.13-6.84c1.42-1.61,3.45-2.42,6.08-2.42.85,0,1.7.09,2.54.27s1.51.4,2,.64l-.82,2.27c-.59-.24-1.23-.43-1.93-.59-.7-.16-1.32-.23-1.85-.23-3.59,0-5.38,2.29-5.38,6.86,0,2.17.44,3.83,1.31,4.99.88,1.16,2.17,1.74,3.89,1.74,1.47,0,2.98-.32,4.53-.95v2.37c-1.18.61-2.67.92-4.46.92Z"/>
        <path class="cls-16" d="M135.19,603.47c.46-.65,1.17-1.51,2.11-2.58l5.7-6.04h3.17l-7.15,7.52,7.65,10.13h-3.24l-6.23-8.34-2.01,1.74v6.6h-2.64v-25.06h2.64v13.29c0,.59-.04,1.5-.13,2.74h.13Z"/>
        <path class="cls-16" d="M158.14,612.83c-2.61,0-4.67-.79-6.18-2.38s-2.26-3.79-2.26-6.62.7-5.11,2.1-6.78c1.4-1.67,3.28-2.51,5.65-2.51,2.21,0,3.96.73,5.25,2.18,1.29,1.46,1.93,3.37,1.93,5.76v1.69h-12.16c.05,2.07.58,3.65,1.57,4.72.99,1.07,2.39,1.61,4.2,1.61,1.9,0,3.78-.4,5.64-1.19v2.38c-.95.41-1.84.7-2.68.88-.84.18-1.86.27-3.05.27ZM157.41,596.77c-1.42,0-2.55.46-3.39,1.38s-1.34,2.2-1.49,3.83h9.23c0-1.69-.38-2.98-1.13-3.87-.75-.9-1.83-1.34-3.22-1.34Z"/>
        <path class="cls-16" d="M167.21,594.85h2.87l3.87,10.07c.85,2.3,1.37,3.96,1.58,4.98h.13c.14-.55.43-1.48.88-2.81.45-1.33,1.9-5.4,4.37-12.23h2.87l-7.59,20.1c-.75,1.99-1.63,3.4-2.63,4.23s-2.24,1.25-3.7,1.25c-.82,0-1.62-.09-2.42-.27v-2.14c.59.13,1.25.19,1.98.19,1.84,0,3.15-1.03,3.93-3.09l.98-2.51-7.12-17.75Z"/>
        <path class="cls-16" d="M198.84,607.69c0,1.64-.61,2.91-1.84,3.8-1.22.89-2.94,1.34-5.15,1.34-2.34,0-4.17-.37-5.48-1.11v-2.48c.85.43,1.76.77,2.73,1.01s1.91.37,2.81.37c1.4,0,2.47-.22,3.22-.67s1.13-1.12,1.13-2.04c0-.69-.3-1.28-.89-1.76-.6-.49-1.76-1.07-3.49-1.73-1.64-.61-2.81-1.15-3.5-1.6-.69-.46-1.21-.97-1.55-1.55-.34-.58-.51-1.27-.51-2.08,0-1.44.58-2.57,1.76-3.41s2.78-1.25,4.82-1.25c1.9,0,3.76.39,5.57,1.16l-.95,2.17c-1.77-.73-3.38-1.09-4.82-1.09-1.27,0-2.22.2-2.87.6-.64.4-.97.94-.97,1.64,0,.47.12.88.36,1.21s.63.65,1.17.95c.54.3,1.57.74,3.09,1.3,2.09.76,3.51,1.53,4.24,2.3s1.1,1.75,1.1,2.92Z"/>
        <path class="cls-16" d="M224.8,607.69c0,1.64-.61,2.91-1.84,3.8-1.22.89-2.94,1.34-5.15,1.34-2.34,0-4.17-.37-5.48-1.11v-2.48c.85.43,1.76.77,2.73,1.01s1.91.37,2.81.37c1.4,0,2.47-.22,3.22-.67s1.13-1.12,1.13-2.04c0-.69-.3-1.28-.89-1.76-.6-.49-1.76-1.07-3.49-1.73-1.64-.61-2.81-1.15-3.5-1.6-.69-.46-1.21-.97-1.55-1.55-.34-.58-.51-1.27-.51-2.08,0-1.44.58-2.57,1.76-3.41s2.78-1.25,4.82-1.25c1.9,0,3.76.39,5.57,1.16l-.95,2.17c-1.77-.73-3.38-1.09-4.82-1.09-1.27,0-2.22.2-2.87.6-.64.4-.97.94-.97,1.64,0,.47.12.88.36,1.21s.63.65,1.17.95c.54.3,1.57.74,3.09,1.3,2.09.76,3.51,1.53,4.24,2.3s1.1,1.75,1.1,2.92Z"/>
        <path class="cls-16" d="M237.43,612.83c-2.61,0-4.67-.79-6.18-2.38s-2.26-3.79-2.26-6.62.7-5.11,2.1-6.78c1.4-1.67,3.28-2.51,5.65-2.51,2.21,0,3.96.73,5.25,2.18,1.29,1.46,1.93,3.37,1.93,5.76v1.69h-12.16c.05,2.07.58,3.65,1.57,4.72.99,1.07,2.39,1.61,4.2,1.61,1.9,0,3.78-.4,5.64-1.19v2.38c-.95.41-1.84.7-2.68.88-.84.18-1.86.27-3.05.27ZM236.7,596.77c-1.42,0-2.55.46-3.39,1.38s-1.34,2.2-1.49,3.83h9.23c0-1.69-.38-2.98-1.13-3.87-.75-.9-1.83-1.34-3.22-1.34Z"/>
        <path class="cls-16" d="M256.35,612.83c-2.56,0-4.53-.79-5.94-2.36-1.4-1.57-2.1-3.8-2.1-6.68s.71-5.23,2.13-6.84c1.42-1.61,3.45-2.42,6.08-2.42.85,0,1.7.09,2.54.27s1.51.4,2,.64l-.82,2.27c-.59-.24-1.23-.43-1.93-.59-.7-.16-1.32-.23-1.85-.23-3.59,0-5.38,2.29-5.38,6.86,0,2.17.44,3.83,1.31,4.99.88,1.16,2.17,1.74,3.89,1.74,1.47,0,2.98-.32,4.53-.95v2.37c-1.18.61-2.67.92-4.46.92Z"/>
        <path class="cls-16" d="M268.34,594.85v11.45c0,1.44.33,2.51.98,3.22s1.68,1.06,3.08,1.06c1.85,0,3.2-.5,4.05-1.51.85-1.01,1.28-2.66,1.28-4.94v-9.28h2.67v17.65h-2.21l-.39-2.37h-.15c-.55.87-1.31,1.54-2.28,2-.97.46-2.08.69-3.33.69-2.15,0-3.76-.51-4.82-1.53-1.07-1.02-1.6-2.65-1.6-4.9v-11.55h2.71Z"/>
        <path class="cls-16" d="M294.95,594.53c.78,0,1.49.06,2.11.19l-.37,2.48c-.73-.16-1.37-.24-1.93-.24-1.43,0-2.65.58-3.66,1.74-1.01,1.16-1.52,2.6-1.52,4.33v9.47h-2.67v-17.65h2.21l.31,3.27h.13c.65-1.15,1.44-2.03,2.37-2.66s1.94-.93,3.04-.93Z"/>
        <path class="cls-16" d="M308.64,612.83c-2.61,0-4.67-.79-6.18-2.38s-2.26-3.79-2.26-6.62.7-5.11,2.1-6.78c1.4-1.67,3.28-2.51,5.65-2.51,2.21,0,3.96.73,5.25,2.18,1.29,1.46,1.93,3.37,1.93,5.76v1.69h-12.16c.05,2.07.58,3.65,1.57,4.72.99,1.07,2.39,1.61,4.2,1.61,1.9,0,3.78-.4,5.64-1.19v2.38c-.95.41-1.84.7-2.68.88-.84.18-1.86.27-3.05.27ZM307.91,596.77c-1.42,0-2.55.46-3.39,1.38s-1.34,2.2-1.49,3.83h9.23c0-1.69-.38-2.98-1.13-3.87-.75-.9-1.83-1.34-3.22-1.34Z"/>
        <path class="cls-16" d="M323.19,612.5h-2.67v-25.06h2.67v25.06Z"/>
        <path class="cls-16" d="M326.88,594.85h2.87l3.87,10.07c.85,2.3,1.37,3.96,1.58,4.98h.13c.14-.55.43-1.48.88-2.81.45-1.33,1.9-5.4,4.37-12.23h2.87l-7.59,20.1c-.75,1.99-1.63,3.4-2.63,4.23s-2.24,1.25-3.7,1.25c-.82,0-1.62-.09-2.42-.27v-2.14c.59.13,1.25.19,1.98.19,1.84,0,3.15-1.03,3.93-3.09l.98-2.51-7.12-17.75Z"/>
        <path class="cls-16" d="M346.74,610.8c0-.72.16-1.26.49-1.63s.8-.56,1.41-.56,1.11.19,1.46.56c.35.37.52.92.52,1.63s-.18,1.23-.53,1.61-.84.56-1.45.56c-.55,0-1-.17-1.36-.51-.36-.34-.54-.89-.54-1.67Z"/>
      </g>
      <g>
        <rect class="cls-29" x="129.71" y="242.34" width="67.08" height="67.08" rx="11" ry="11"/>
        <g>
          <path class="cls-1" d="M163.25,268.24c4.22,0,7.64,3.42,7.64,7.64h7.64c0-8.44-6.85-15.29-15.29-15.29s-15.29,6.85-15.29,15.29h7.64c0-4.22,3.42-7.64,7.64-7.64Z"/>
          <path class="cls-11" d="M155.61,275.89c0,4.22-3.42,7.64-7.64,7.64v7.64c8.44,0,15.29-6.85,15.29-15.29h-7.64Z"/>
          <path class="cls-10" d="M178.54,283.53c-4.22,0-7.64-3.42-7.64-7.64h-7.64c0,8.44,6.85,15.29,15.29,15.29v-7.64Z"/>
        </g>
      </g>
    </g>
    <g>
      <g class="cls-32">
        <path class="cls-30" d="M1107.68,217h453.36v463.39c0,5.31-4.31,9.62-9.62,9.62h-443.75V217h0Z"/>
        <path class="cls-31" d="M872.51,235.31h235.17v454.7h-225.55c-5.31,0-9.62-4.31-9.62-9.62V235.31h0Z"/>
        <line class="cls-25" x1="1107.68" y1="235.31" x2="1107.68" y2="690.01"/>
        <g>
          <path class="cls-31" d="M1190.1-145.25h62.97v688.54h-62.97c-5.31,0-9.62-4.31-9.62-9.62V-135.63c0-5.31,4.31-9.62,9.62-9.62Z" transform="translate(1415.79 -1017.76) rotate(90)"/>
          <g>
            <path class="cls-2" d="M903.93,194.77c2.83,0,5.12,2.29,5.12,5.12h5.12c0-5.66-4.59-10.24-10.24-10.24s-10.24,4.59-10.24,10.24h5.12c0-2.83,2.29-5.12,5.12-5.12Z"/>
            <path class="cls-8" d="M898.81,199.89c0,2.83-2.29,5.12-5.12,5.12v5.12c5.66,0,10.24-4.59,10.24-10.24h-5.12Z"/>
            <path class="cls-3" d="M914.17,205.01c-2.83,0-5.12-2.29-5.12-5.12h-5.12c0,5.66,4.59,10.24,10.24,10.24v-5.12Z"/>
          </g>
        </g>
        <rect class="cls-12" x="893.69" y="265.74" width="192.89" height="28.52"/>
        <rect class="cls-12" x="893.69" y="353.95" width="192.89" height="18.93"/>
        <rect class="cls-12" x="893.69" y="389.47" width="192.89" height="18.93"/>
        <rect class="cls-12" x="893.69" y="424.99" width="192.89" height="18.93"/>
        <rect class="cls-12" x="893.69" y="460.51" width="192.89" height="18.93"/>
        <rect class="cls-12" x="893.69" y="496.04" width="192.89" height="18.93"/>
      </g>
      <g>
        <circle class="cls-18" cx="1509.52" cy="189.65" r="3.36"/>
        <circle class="cls-21" cx="1520.39" cy="189.65" r="3.36"/>
        <circle class="cls-14" cx="1531.25" cy="189.65" r="3.36"/>
      </g>
      <rect class="cls-30" x="1161.48" y="289.68" width="91.73" height="91.73"/>
      <rect class="cls-30" x="1161.48" y="413.49" width="91.73" height="91.73"/>
      <rect class="cls-30" x="1288.5" y="413.49" width="91.73" height="91.73"/>
      <rect class="cls-30" x="1288.5" y="289.68" width="91.73" height="91.73"/>
      <rect class="cls-30" x="1415.52" y="289.68" width="91.73" height="91.73"/>
      <rect class="cls-26" x="1161.48" y="561.17" width="345.77" height="88.83"/>
      <g>
        <rect class="cls-28" x="1415.52" y="413.49" width="91.73" height="91.73"/>
        <circle class="cls-28" cx="1461.39" cy="459.8" r="24.31"/>
        <polygon class="cls-13" points="1469.74 457.52 1463.66 457.52 1463.66 451.45 1459.11 451.45 1459.11 457.52 1453.03 457.52 1453.03 462.07 1459.11 462.07 1459.11 468.15 1463.66 468.15 1463.66 462.07 1469.74 462.07 1469.74 457.52"/>
      </g>
      <g>
        <path class="cls-23" d="M1327.47,361.49h-16.43c-2.28,0-4.13-1.85-4.13-4.13v-9.93c0-2.28,1.85-4.13,4.13-4.13h16.43c2.28,0,4.13,1.85,4.13,4.13v9.93c0,2.28-1.85,4.13-4.13,4.13ZM1311.04,345.04c-1.32,0-2.39,1.07-2.39,2.39v9.93c0,1.32,1.07,2.39,2.39,2.39h16.43c1.32,0,2.39-1.07,2.39-2.39v-9.93c0-1.32-1.07-2.39-2.39-2.39h-16.43Z"/>
        <rect class="cls-23" x="1318.16" y="349.31" width="1.74" height="6.17"/>
        <g>
          <path class="cls-23" d="M1353.22,361.49h-6.59l-.43-3.37c-.63-.28-1.22-.61-1.76-1.01l-3.13,1.31-3.28-5.72,2.71-2.05c-.04-.34-.06-.67-.06-.98s.02-.64.06-.98l-2.71-2.05,3.28-5.72,3.13,1.31c.54-.4,1.13-.74,1.76-1.01l.43-3.37h6.59l.43,3.37c.63.27,1.22.61,1.76,1.01l3.13-1.31,3.28,5.72-2.71,2.05c.04.34.06.67.06.98s-.02.64-.06.98l2.71,2.05-3.28,5.72-3.13-1.31c-.54.4-1.13.74-1.76,1.01l-.43,3.37ZM1348.16,359.75h3.53l.36-2.88.49-.18c.81-.3,1.54-.72,2.17-1.25l.4-.34,2.67,1.12,1.76-3.06-2.32-1.75.08-.52c.07-.45.11-.85.11-1.22s-.04-.78-.11-1.22l-.08-.52,2.32-1.75-1.76-3.06-2.67,1.11-.4-.34c-.64-.53-1.37-.95-2.17-1.25l-.49-.18-.36-2.88h-3.53l-.36,2.88-.49.18c-.8.3-1.53.72-2.17,1.25l-.4.34-2.67-1.11-1.76,3.06,2.32,1.75-.08.52c-.07.45-.11.85-.11,1.23s.04.77.11,1.22l.08.52-2.32,1.75,1.76,3.06,2.67-1.12.4.34c.64.53,1.37.95,2.17,1.25l.49.18.36,2.88Z"/>
          <path class="cls-23" d="M1349.92,353.33c-2.02,0-3.66-1.64-3.66-3.66s1.64-3.66,3.66-3.66,3.66,1.64,3.66,3.66-1.64,3.66-3.66,3.66ZM1349.92,347.74c-1.06,0-1.92.86-1.92,1.92s.86,1.92,1.92,1.92,1.92-.86,1.92-1.92-.86-1.92-1.92-1.92Z"/>
        </g>
        <g>
          <path class="cls-23" d="M1311.67,336.63c0,.08-.01.17-.01.25v7.29h1.74v-6.56c-.59-.29-1.17-.62-1.72-.99Z"/>
          <path class="cls-23" d="M1319.03,329.52c-1.22,0-2.37.3-3.38.83.67.45,1.39.81,2.13,1.05.4-.09.82-.14,1.24-.14,3.1,0,5.63,2.53,5.63,5.63v7.29h1.74v-7.29c0-4.06-3.3-7.37-7.37-7.37Z"/>
        </g>
        <path class="cls-23" d="M1351.35,314.54h-20.35c-.29-.35-.59-.69-.92-1.01-5.24-5.24-13.76-5.24-18.99,0-5.24,5.24-5.24,13.76,0,18.99,2.62,2.62,6.06,3.93,9.5,3.93.39,0,.78-.02,1.17-.06-.12-.68-.5-1.28-1.03-1.69-3.04.04-6.09-1.1-8.4-3.41-4.56-4.56-4.56-11.98,0-16.54,2.28-2.28,5.27-3.42,8.27-3.42s5.99,1.14,8.27,3.42c.37.37.72.77,1.04,1.18l.26.34h20.58l8.32,6.74-7.95,6.45-2.6-2.6-2.54,2.54-2.54-2.54-2.54,2.54-2.54-2.54-2.9,2.9h-5.3s-.26.34-.26.34c-.32.41-.66.81-1.03,1.18-.27.27-.55.52-.83.75.28.52.51,1.07.7,1.64.47-.36.93-.74,1.36-1.17.32-.32.63-.66.92-1.01h5.17s2.18-2.18,2.18-2.18l2.54,2.54,2.54-2.54,2.54,2.54,2.54-2.54,2.48,2.48,10.83-8.78-10.47-8.48Z"/>
        <path class="cls-23" d="M1320.12,324.94c-2.46,0-4.46-2-4.46-4.46,0-1.19.46-2.31,1.31-3.15.84-.84,1.96-1.31,3.15-1.31h0c2.46,0,4.46,2,4.46,4.46s-2,4.46-4.46,4.46ZM1320.12,317.76c-.73,0-1.41.28-1.92.8-.51.51-.8,1.2-.8,1.92,0,1.5,1.22,2.72,2.72,2.72s2.72-1.22,2.72-2.72-1.22-2.72-2.72-2.72h0Z"/>
        <rect class="cls-23" x="1330.74" y="319.61" width="15.23" height="1.74"/>
      </g>
      <g>
        <path class="cls-17" d="M1454.5,361.49h-16.43c-2.28,0-4.13-1.85-4.13-4.13v-9.93c0-2.28,1.85-4.13,4.13-4.13h16.43c2.28,0,4.13,1.85,4.13,4.13v9.93c0,2.28-1.85,4.13-4.13,4.13ZM1438.06,345.04c-1.32,0-2.39,1.07-2.39,2.39v9.93c0,1.32,1.07,2.39,2.39,2.39h16.43c1.32,0,2.39-1.07,2.39-2.39v-9.93c0-1.32-1.07-2.39-2.39-2.39h-16.43Z"/>
        <rect class="cls-17" x="1445.18" y="349.31" width="1.74" height="6.17"/>
        <g>
          <path class="cls-17" d="M1480.24,361.49h-6.59l-.43-3.37c-.63-.28-1.22-.61-1.76-1.01l-3.13,1.31-3.28-5.72,2.71-2.05c-.04-.34-.06-.67-.06-.98s.02-.64.06-.98l-2.71-2.05,3.28-5.72,3.13,1.31c.54-.4,1.13-.74,1.76-1.01l.43-3.37h6.59l.43,3.37c.63.27,1.22.61,1.76,1.01l3.13-1.31,3.28,5.72-2.71,2.05c.04.34.06.67.06.98s-.02.64-.06.98l2.71,2.05-3.28,5.72-3.13-1.31c-.54.4-1.13.74-1.76,1.01l-.43,3.37ZM1475.18,359.75h3.53l.36-2.88.49-.18c.81-.3,1.54-.72,2.17-1.25l.4-.34,2.67,1.12,1.76-3.06-2.32-1.75.08-.52c.07-.45.11-.85.11-1.22s-.04-.78-.11-1.22l-.08-.52,2.32-1.75-1.76-3.06-2.67,1.11-.4-.34c-.64-.53-1.37-.95-2.17-1.25l-.49-.18-.36-2.88h-3.53l-.36,2.88-.49.18c-.8.3-1.53.72-2.17,1.25l-.4.34-2.67-1.11-1.76,3.06,2.32,1.75-.08.52c-.07.45-.11.85-.11,1.23s.04.77.11,1.22l.08.52-2.32,1.75,1.76,3.06,2.67-1.12.4.34c.64.53,1.37.95,2.17,1.25l.49.18.36,2.88Z"/>
          <path class="cls-17" d="M1476.94,353.33c-2.02,0-3.66-1.64-3.66-3.66s1.64-3.66,3.66-3.66,3.66,1.64,3.66,3.66-1.64,3.66-3.66,3.66ZM1476.94,347.74c-1.06,0-1.92.86-1.92,1.92s.86,1.92,1.92,1.92,1.92-.86,1.92-1.92-.86-1.92-1.92-1.92Z"/>
        </g>
        <g>
          <path class="cls-17" d="M1438.7,336.63c0,.08-.01.17-.01.25v7.29h1.74v-6.56c-.59-.29-1.17-.62-1.72-.99Z"/>
          <path class="cls-17" d="M1446.05,329.52c-1.22,0-2.37.3-3.38.83.67.45,1.39.81,2.13,1.05.4-.09.82-.14,1.24-.14,3.1,0,5.63,2.53,5.63,5.63v7.29h1.74v-7.29c0-4.06-3.3-7.37-7.37-7.37Z"/>
        </g>
        <path class="cls-17" d="M1478.37,314.54h-20.35c-.29-.35-.59-.69-.92-1.01-5.24-5.24-13.76-5.24-18.99,0-5.24,5.24-5.24,13.76,0,18.99,2.62,2.62,6.06,3.93,9.5,3.93.39,0,.78-.02,1.17-.06-.12-.68-.5-1.28-1.03-1.69-3.04.04-6.09-1.1-8.4-3.41-4.56-4.56-4.56-11.98,0-16.54,2.28-2.28,5.27-3.42,8.27-3.42s5.99,1.14,8.27,3.42c.37.37.72.77,1.04,1.18l.26.34h20.58l8.32,6.74-7.95,6.45-2.6-2.6-2.54,2.54-2.54-2.54-2.54,2.54-2.54-2.54-2.9,2.9h-5.3s-.26.34-.26.34c-.32.41-.66.81-1.03,1.18-.27.27-.55.52-.83.75.28.52.51,1.07.7,1.64.47-.36.93-.74,1.36-1.17.32-.32.63-.66.92-1.01h5.17s2.18-2.18,2.18-2.18l2.54,2.54,2.54-2.54,2.54,2.54,2.54-2.54,2.48,2.48,10.83-8.78-10.47-8.48Z"/>
        <path class="cls-17" d="M1447.14,324.94c-2.46,0-4.46-2-4.46-4.46,0-1.19.46-2.31,1.31-3.15.84-.84,1.96-1.31,3.15-1.31h0c2.46,0,4.46,2,4.46,4.46s-2,4.46-4.46,4.46ZM1447.14,317.76c-.73,0-1.41.28-1.92.8-.51.51-.8,1.2-.8,1.92,0,1.5,1.22,2.72,2.72,2.72s2.72-1.22,2.72-2.72-1.22-2.72-2.72-2.72h0Z"/>
        <rect class="cls-17" x="1457.76" y="319.61" width="15.23" height="1.74"/>
      </g>
      <g>
        <path class="cls-24" d="M1200.45,361.49h-16.43c-2.28,0-4.13-1.85-4.13-4.13v-9.93c0-2.28,1.85-4.13,4.13-4.13h16.43c2.28,0,4.13,1.85,4.13,4.13v9.93c0,2.28-1.85,4.13-4.13,4.13ZM1184.02,345.04c-1.32,0-2.39,1.07-2.39,2.39v9.93c0,1.32,1.07,2.39,2.39,2.39h16.43c1.32,0,2.39-1.07,2.39-2.39v-9.93c0-1.32-1.07-2.39-2.39-2.39h-16.43Z"/>
        <rect class="cls-24" x="1191.14" y="349.31" width="1.74" height="6.17"/>
        <g>
          <path class="cls-24" d="M1226.19,361.49h-6.59l-.43-3.37c-.63-.28-1.22-.61-1.76-1.01l-3.13,1.31-3.28-5.72,2.71-2.05c-.04-.34-.06-.67-.06-.98s.02-.64.06-.98l-2.71-2.05,3.28-5.72,3.13,1.31c.54-.4,1.13-.74,1.76-1.01l.43-3.37h6.59l.43,3.37c.63.27,1.22.61,1.76,1.01l3.13-1.31,3.28,5.72-2.71,2.05c.04.34.06.67.06.98s-.02.64-.06.98l2.71,2.05-3.28,5.72-3.13-1.31c-.54.4-1.13.74-1.76,1.01l-.43,3.37ZM1221.13,359.75h3.53l.36-2.88.49-.18c.81-.3,1.54-.72,2.17-1.25l.4-.34,2.67,1.12,1.76-3.06-2.32-1.75.08-.52c.07-.45.11-.85.11-1.22s-.04-.78-.11-1.22l-.08-.52,2.32-1.75-1.76-3.06-2.67,1.11-.4-.34c-.64-.53-1.37-.95-2.17-1.25l-.49-.18-.36-2.88h-3.53l-.36,2.88-.49.18c-.8.3-1.53.72-2.17,1.25l-.4.34-2.67-1.11-1.76,3.06,2.32,1.75-.08.52c-.07.45-.11.85-.11,1.23s.04.77.11,1.22l.08.52-2.32,1.75,1.76,3.06,2.67-1.12.4.34c.64.53,1.37.95,2.17,1.25l.49.18.36,2.88Z"/>
          <path class="cls-24" d="M1222.9,353.33c-2.02,0-3.66-1.64-3.66-3.66s1.64-3.66,3.66-3.66,3.66,1.64,3.66,3.66-1.64,3.66-3.66,3.66ZM1222.9,347.74c-1.06,0-1.92.86-1.92,1.92s.86,1.92,1.92,1.92,1.92-.86,1.92-1.92-.86-1.92-1.92-1.92Z"/>
        </g>
        <g>
          <path class="cls-24" d="M1184.65,336.63c0,.08-.01.17-.01.25v7.29h1.74v-6.56c-.59-.29-1.17-.62-1.72-.99Z"/>
          <path class="cls-24" d="M1192.01,329.52c-1.22,0-2.37.3-3.38.83.67.45,1.39.81,2.13,1.05.4-.09.82-.14,1.24-.14,3.1,0,5.63,2.53,5.63,5.63v7.29h1.74v-7.29c0-4.06-3.3-7.37-7.37-7.37Z"/>
        </g>
        <path class="cls-24" d="M1224.33,314.54h-20.35c-.29-.35-.59-.69-.92-1.01-5.24-5.24-13.76-5.24-18.99,0-5.24,5.24-5.24,13.76,0,18.99,2.62,2.62,6.06,3.93,9.5,3.93.39,0,.78-.02,1.17-.06-.12-.68-.5-1.28-1.03-1.69-3.04.04-6.09-1.1-8.4-3.41-4.56-4.56-4.56-11.98,0-16.54,2.28-2.28,5.27-3.42,8.27-3.42s5.99,1.14,8.27,3.42c.37.37.72.77,1.04,1.18l.26.34h20.58l8.32,6.74-7.95,6.45-2.6-2.6-2.54,2.54-2.54-2.54-2.54,2.54-2.54-2.54-2.9,2.9h-5.3s-.26.34-.26.34c-.32.41-.66.81-1.03,1.18-.27.27-.55.52-.83.75.28.52.51,1.07.7,1.64.47-.36.93-.74,1.36-1.17.32-.32.63-.66.92-1.01h5.17s2.18-2.18,2.18-2.18l2.54,2.54,2.54-2.54,2.54,2.54,2.54-2.54,2.48,2.48,10.83-8.78-10.47-8.48Z"/>
        <path class="cls-24" d="M1193.1,324.94c-2.46,0-4.46-2-4.46-4.46,0-1.19.46-2.31,1.31-3.15.84-.84,1.96-1.31,3.15-1.31h0c2.46,0,4.46,2,4.46,4.46s-2,4.46-4.46,4.46ZM1193.1,317.76c-.73,0-1.41.28-1.92.8-.51.51-.8,1.2-.8,1.92,0,1.5,1.22,2.72,2.72,2.72s2.72-1.22,2.72-2.72-1.22-2.72-2.72-2.72h0Z"/>
        <rect class="cls-24" x="1203.72" y="319.61" width="15.23" height="1.74"/>
      </g>
      <g>
        <path class="cls-20" d="M1327.47,485.3h-16.43c-2.28,0-4.13-1.85-4.13-4.13v-9.93c0-2.28,1.85-4.13,4.13-4.13h16.43c2.28,0,4.13,1.85,4.13,4.13v9.93c0,2.28-1.85,4.13-4.13,4.13ZM1311.04,468.85c-1.32,0-2.39,1.07-2.39,2.39v9.93c0,1.32,1.07,2.39,2.39,2.39h16.43c1.32,0,2.39-1.07,2.39-2.39v-9.93c0-1.32-1.07-2.39-2.39-2.39h-16.43Z"/>
        <rect class="cls-20" x="1318.16" y="473.12" width="1.74" height="6.16"/>
        <g>
          <path class="cls-20" d="M1353.22,485.3h-6.59l-.43-3.37c-.63-.28-1.22-.61-1.76-1.01l-3.13,1.31-3.28-5.72,2.71-2.05c-.04-.34-.06-.67-.06-.98s.02-.64.06-.98l-2.71-2.05,3.28-5.72,3.13,1.31c.54-.4,1.13-.74,1.76-1.01l.43-3.37h6.59l.43,3.37c.63.27,1.22.61,1.76,1.01l3.13-1.31,3.28,5.72-2.71,2.05c.04.34.06.67.06.98s-.02.64-.06.98l2.71,2.05-3.28,5.72-3.13-1.31c-.54.4-1.13.74-1.76,1.01l-.43,3.37ZM1348.16,483.56h3.53l.36-2.88.49-.18c.81-.3,1.54-.72,2.17-1.25l.4-.34,2.67,1.12,1.76-3.06-2.32-1.75.08-.52c.07-.45.11-.85.11-1.22s-.04-.78-.11-1.22l-.08-.52,2.32-1.75-1.76-3.06-2.67,1.11-.4-.34c-.64-.53-1.37-.95-2.17-1.25l-.49-.18-.36-2.88h-3.53l-.36,2.88-.49.18c-.8.3-1.53.72-2.17,1.25l-.4.34-2.67-1.11-1.76,3.06,2.32,1.75-.08.52c-.07.45-.11.85-.11,1.23s.04.77.11,1.22l.08.52-2.32,1.75,1.76,3.06,2.67-1.12.4.34c.64.53,1.37.95,2.17,1.25l.49.18.36,2.88Z"/>
          <path class="cls-20" d="M1349.92,477.13c-2.02,0-3.66-1.64-3.66-3.66s1.64-3.66,3.66-3.66,3.66,1.64,3.66,3.66-1.64,3.66-3.66,3.66ZM1349.92,471.55c-1.06,0-1.92.86-1.92,1.92s.86,1.92,1.92,1.92,1.92-.86,1.92-1.92-.86-1.92-1.92-1.92Z"/>
        </g>
        <g>
          <path class="cls-20" d="M1311.67,460.44c0,.08-.01.17-.01.25v7.29h1.74v-6.56c-.59-.29-1.17-.62-1.72-.99Z"/>
          <path class="cls-20" d="M1319.03,453.32c-1.22,0-2.37.3-3.38.83.67.45,1.39.81,2.13,1.05.4-.09.82-.14,1.24-.14,3.1,0,5.63,2.53,5.63,5.63v7.29h1.74v-7.29c0-4.06-3.3-7.37-7.37-7.37Z"/>
        </g>
        <path class="cls-20" d="M1351.35,438.34h-20.35c-.29-.35-.59-.69-.92-1.01-5.24-5.24-13.76-5.24-18.99,0-5.24,5.24-5.24,13.76,0,18.99,2.62,2.62,6.06,3.93,9.5,3.93.39,0,.78-.02,1.17-.06-.12-.68-.5-1.28-1.03-1.69-3.04.04-6.09-1.1-8.4-3.41-4.56-4.56-4.56-11.98,0-16.54,2.28-2.28,5.27-3.42,8.27-3.42s5.99,1.14,8.27,3.42c.37.37.72.77,1.04,1.18l.26.34h20.58l8.32,6.74-7.95,6.45-2.6-2.6-2.54,2.54-2.54-2.54-2.54,2.54-2.54-2.54-2.9,2.9h-5.3s-.26.34-.26.34c-.32.41-.66.81-1.03,1.18-.27.27-.55.52-.83.75.28.52.51,1.07.7,1.64.47-.36.93-.74,1.36-1.17.32-.32.63-.66.92-1.01h5.17s2.18-2.18,2.18-2.18l2.54,2.54,2.54-2.54,2.54,2.54,2.54-2.54,2.48,2.48,10.83-8.78-10.47-8.48Z"/>
        <path class="cls-20" d="M1320.12,448.75c-2.46,0-4.46-2-4.46-4.46,0-1.19.46-2.31,1.31-3.15.84-.84,1.96-1.31,3.15-1.31h0c2.46,0,4.46,2,4.46,4.46s-2,4.46-4.46,4.46ZM1320.12,441.57c-.73,0-1.41.28-1.92.8-.51.51-.8,1.2-.8,1.92,0,1.5,1.22,2.72,2.72,2.72s2.72-1.22,2.72-2.72-1.22-2.72-2.72-2.72h0Z"/>
        <rect class="cls-20" x="1330.74" y="443.42" width="15.23" height="1.74"/>
      </g>
      <g>
        <path class="cls-22" d="M1200.45,485.3h-16.43c-2.28,0-4.13-1.85-4.13-4.13v-9.93c0-2.28,1.85-4.13,4.13-4.13h16.43c2.28,0,4.13,1.85,4.13,4.13v9.93c0,2.28-1.85,4.13-4.13,4.13ZM1184.02,468.85c-1.32,0-2.39,1.07-2.39,2.39v9.93c0,1.32,1.07,2.39,2.39,2.39h16.43c1.32,0,2.39-1.07,2.39-2.39v-9.93c0-1.32-1.07-2.39-2.39-2.39h-16.43Z"/>
        <rect class="cls-22" x="1191.14" y="473.12" width="1.74" height="6.16"/>
        <g>
          <path class="cls-22" d="M1226.19,485.3h-6.59l-.43-3.37c-.63-.28-1.22-.61-1.76-1.01l-3.13,1.31-3.28-5.72,2.71-2.05c-.04-.34-.06-.67-.06-.98s.02-.64.06-.98l-2.71-2.05,3.28-5.72,3.13,1.31c.54-.4,1.13-.74,1.76-1.01l.43-3.37h6.59l.43,3.37c.63.27,1.22.61,1.76,1.01l3.13-1.31,3.28,5.72-2.71,2.05c.04.34.06.67.06.98s-.02.64-.06.98l2.71,2.05-3.28,5.72-3.13-1.31c-.54.4-1.13.74-1.76,1.01l-.43,3.37ZM1221.13,483.56h3.53l.36-2.88.49-.18c.81-.3,1.54-.72,2.17-1.25l.4-.34,2.67,1.12,1.76-3.06-2.32-1.75.08-.52c.07-.45.11-.85.11-1.22s-.04-.78-.11-1.22l-.08-.52,2.32-1.75-1.76-3.06-2.67,1.11-.4-.34c-.64-.53-1.37-.95-2.17-1.25l-.49-.18-.36-2.88h-3.53l-.36,2.88-.49.18c-.8.3-1.53.72-2.17,1.25l-.4.34-2.67-1.11-1.76,3.06,2.32,1.75-.08.52c-.07.45-.11.85-.11,1.23s.04.77.11,1.22l.08.52-2.32,1.75,1.76,3.06,2.67-1.12.4.34c.64.53,1.37.95,2.17,1.25l.49.18.36,2.88Z"/>
          <path class="cls-22" d="M1222.9,477.13c-2.02,0-3.66-1.64-3.66-3.66s1.64-3.66,3.66-3.66,3.66,1.64,3.66,3.66-1.64,3.66-3.66,3.66ZM1222.9,471.55c-1.06,0-1.92.86-1.92,1.92s.86,1.92,1.92,1.92,1.92-.86,1.92-1.92-.86-1.92-1.92-1.92Z"/>
        </g>
        <g>
          <path class="cls-22" d="M1184.65,460.44c0,.08-.01.17-.01.25v7.29h1.74v-6.56c-.59-.29-1.17-.62-1.72-.99Z"/>
          <path class="cls-22" d="M1192.01,453.32c-1.22,0-2.37.3-3.38.83.67.45,1.39.81,2.13,1.05.4-.09.82-.14,1.24-.14,3.1,0,5.63,2.53,5.63,5.63v7.29h1.74v-7.29c0-4.06-3.3-7.37-7.37-7.37Z"/>
        </g>
        <path class="cls-22" d="M1224.33,438.34h-20.35c-.29-.35-.59-.69-.92-1.01-5.24-5.24-13.76-5.24-18.99,0-5.24,5.24-5.24,13.76,0,18.99,2.62,2.62,6.06,3.93,9.5,3.93.39,0,.78-.02,1.17-.06-.12-.68-.5-1.28-1.03-1.69-3.04.04-6.09-1.1-8.4-3.41-4.56-4.56-4.56-11.98,0-16.54,2.28-2.28,5.27-3.42,8.27-3.42s5.99,1.14,8.27,3.42c.37.37.72.77,1.04,1.18l.26.34h20.58l8.32,6.74-7.95,6.45-2.6-2.6-2.54,2.54-2.54-2.54-2.54,2.54-2.54-2.54-2.9,2.9h-5.3s-.26.34-.26.34c-.32.41-.66.81-1.03,1.18-.27.27-.55.52-.83.75.28.52.51,1.07.7,1.64.47-.36.93-.74,1.36-1.17.32-.32.63-.66.92-1.01h5.17s2.18-2.18,2.18-2.18l2.54,2.54,2.54-2.54,2.54,2.54,2.54-2.54,2.48,2.48,10.83-8.78-10.47-8.48Z"/>
        <path class="cls-22" d="M1193.1,448.75c-2.46,0-4.46-2-4.46-4.46,0-1.19.46-2.31,1.31-3.15.84-.84,1.96-1.31,3.15-1.31h0c2.46,0,4.46,2,4.46,4.46s-2,4.46-4.46,4.46ZM1193.1,441.57c-.73,0-1.41.28-1.92.8-.51.51-.8,1.2-.8,1.92,0,1.5,1.22,2.72,2.72,2.72s2.72-1.22,2.72-2.72-1.22-2.72-2.72-2.72h0Z"/>
        <rect class="cls-22" x="1203.72" y="443.42" width="15.23" height="1.74"/>
      </g>
    </g>
    <g>
      <g>
        <circle class="cls-15" cx="927.04" cy="634.55" r="84"/>
        <path class="cls-13" d="M927.04,719.28c-46.72,0-84.73-38.01-84.73-84.73s38.01-84.73,84.73-84.73,84.73,38.01,84.73,84.73-38.01,84.73-84.73,84.73ZM927.04,551.28c-45.91,0-83.27,37.35-83.27,83.27s37.35,83.27,83.27,83.27,83.27-37.35,83.27-83.27-37.35-83.27-83.27-83.27Z"/>
      </g>
      <g>
        <path class="cls-27" d="M947.02,629.86c2.59,0,4.69,2.1,4.69,4.69s-2.1,4.69-4.69,4.69-4.69-2.1-4.69-4.69,2.1-4.69,4.69-4.69h0Z"/>
        <path class="cls-27" d="M966.61,648.89v9.68c0,4.04-3.33,7.38-7.38,7.38h-67.76c-4.04,0-7.38-3.32-7.38-7.38v-48.04c0-4.06,3.32-7.38,7.38-7.38h67.76c4.06,0,7.38,3.33,7.38,7.38v10.75"/>
        <path class="cls-27" d="M945.51,621.48h20.39c2.25,0,4.09,1.84,4.09,4.09v17.96c0,2.25-1.84,4.09-4.09,4.09h-20.39c-6.37,0-11.58-5.21-11.58-11.58v-2.97c0-6.37,5.21-11.58,11.58-11.58h0Z"/>
        <line class="cls-27" x1="884.1" y1="610.6" x2="890.43" y2="610.6"/>
        <line class="cls-27" x1="896.68" y1="610.6" x2="903.02" y2="610.6"/>
        <line class="cls-27" x1="909.27" y1="610.6" x2="915.6" y2="610.6"/>
        <line class="cls-27" x1="921.85" y1="610.6" x2="928.19" y2="610.6"/>
        <line class="cls-27" x1="934.44" y1="610.6" x2="940.77" y2="610.6"/>
        <line class="cls-27" x1="947.02" y1="610.6" x2="953.36" y2="610.6"/>
        <line class="cls-27" x1="959.61" y1="610.6" x2="965.94" y2="610.6"/>
        <line class="cls-27" x1="884.1" y1="658.5" x2="890.43" y2="658.5"/>
        <line class="cls-27" x1="896.68" y1="658.5" x2="903.02" y2="658.5"/>
        <line class="cls-27" x1="909.27" y1="658.5" x2="915.6" y2="658.5"/>
        <line class="cls-27" x1="921.85" y1="658.5" x2="928.19" y2="658.5"/>
        <line class="cls-27" x1="934.44" y1="658.5" x2="940.77" y2="658.5"/>
        <line class="cls-27" x1="947.02" y1="658.5" x2="953.36" y2="658.5"/>
        <line class="cls-27" x1="959.61" y1="658.5" x2="965.94" y2="658.5"/>
      </g>
    </g>
  </g>
  <g>
    <path class="cls-4" d="M131.6,375.58h8.05l-.18,21.54,18.3-21.54h9.39l-14.4,16.96,14.76,25.74h-9.33l-10.8-19.46-7.87,8.91.12,10.55h-8.05v-42.7Z"/>
    <path class="cls-9" d="M169.3,375.58h7.81v42.7h-7.81v-42.7Z"/>
    <path class="cls-7" d="M179.79,409.86c0-6.53,6.83-8.72,13.85-10.86,5.19-1.59,7.69-2.81,7.69-5.25s-2.07-3.84-5.86-3.84c-4.27,0-7.08,2.44-7.81,6.53h-7.2c.98-7.14,6.83-12.02,15.19-12.02s13.36,3.97,13.36,11.35v22.51h-7.69v-3.72c-2.5,2.75-6.22,4.27-10.43,4.27-6.83,0-11.1-3.54-11.1-8.97ZM192.91,413.58c3.17,0,6.47-1.28,8.42-3.48v-9.15c-1.4,1.16-3.6,1.89-6.1,2.74-4.45,1.46-7.81,2.62-7.81,5.92,0,2.56,2.13,3.96,5.49,3.96Z"/>
    <path class="cls-6" d="M208.58,385.16h8.24l4.39,12.75,4.33,12.69,4.39-12.69,4.45-12.75h7.87l-12.44,33.12h-8.79l-12.44-33.12Z"/>
    <path class="cls-5" d="M241.15,401.75c0-10.74,6.59-17.45,16.04-17.45,8.97,0,15.68,6.34,15.68,17.57v.61h-24.04c.24,7.14,3.42,10.98,8.36,10.98,4.03,0,6.83-2.56,7.93-7.56h7.38c-1.46,8.3-7.08,13.18-15.37,13.18-9.52,0-15.98-6.53-15.98-17.32ZM249.15,397.84h15.92c-1.04-5.19-3.9-7.93-7.93-7.93s-7.02,2.81-7.99,7.93Z"/>
    <path class="cls-19" d="M285.68,375.58h8.05l3.11,16.78,3.05,16.59,3.96-16.59,3.9-16.78h7.75l3.9,16.78,3.96,16.84,3.05-16.84,3.11-16.78h7.69l-9.09,42.7h-9.15l-3.84-16.29-3.66-16.35-3.66,16.35-3.84,16.29h-9.21l-9.09-42.7Z"/>
    <path class="cls-19" d="M335.89,409.86c0-6.53,6.83-8.72,13.85-10.86,5.19-1.59,7.69-2.81,7.69-5.25s-2.07-3.84-5.86-3.84c-4.27,0-7.08,2.44-7.81,6.53h-7.2c.98-7.14,6.83-12.02,15.19-12.02s13.36,3.97,13.36,11.35v22.51h-7.69v-3.72c-2.5,2.75-6.22,4.27-10.43,4.27-6.83,0-11.1-3.54-11.1-8.97ZM349,413.58c3.17,0,6.47-1.28,8.42-3.48v-9.15c-1.4,1.16-3.6,1.89-6.1,2.74-4.45,1.46-7.81,2.62-7.81,5.92,0,2.56,2.13,3.96,5.49,3.96Z"/>
    <path class="cls-19" d="M368.58,375.58h7.81v42.7h-7.81v-42.7Z"/>
    <path class="cls-19" d="M379.93,375.58h7.81v42.7h-7.81v-42.7Z"/>
    <path class="cls-19" d="M390.54,401.75c0-10.74,6.59-17.45,16.04-17.45,8.97,0,15.68,6.34,15.68,17.57v.61h-24.04c.24,7.14,3.42,10.98,8.36,10.98,4.03,0,6.83-2.56,7.93-7.56h7.38c-1.46,8.3-7.08,13.18-15.37,13.18-9.52,0-15.98-6.53-15.98-17.32ZM398.53,397.84h15.92c-1.04-5.19-3.9-7.93-7.93-7.93s-7.02,2.81-7.99,7.93Z"/>
    <path class="cls-19" d="M430.07,410.72v-19.83h-7.81v-5.73h7.81v-6.59h7.69v6.59h9.7v5.73h-9.7v18.42c0,2.2,1.16,3.17,3.84,3.17h5.86v5.79h-9.46c-5.37,0-7.93-2.68-7.93-7.56Z"/>
  </g>
</svg>