<?xml version="1.0" encoding="UTF-8"?>
<svg id="Layer_1" data-name="Layer 1" xmlns="http://www.w3.org/2000/svg" xmlns:xlink="http://www.w3.org/1999/xlink" viewBox="0 0 1686 882">
  <defs>
    <style>
      .cls-1 {
        fill: url(#New_Gradient_Swatch_4);
      }

      .cls-1, .cls-2, .cls-3, .cls-4, .cls-5, .cls-6, .cls-7, .cls-8, .cls-9, .cls-10, .cls-11, .cls-12, .cls-13, .cls-14, .cls-15, .cls-16, .cls-17, .cls-18, .cls-19, .cls-20, .cls-21, .cls-22, .cls-23, .cls-24, .cls-25, .cls-26, .cls-27, .cls-28, .cls-29, .cls-30, .cls-31, .cls-32, .cls-33, .cls-34, .cls-35, .cls-36, .cls-37, .cls-38, .cls-39, .cls-40, .cls-41, .cls-42, .cls-43, .cls-44, .cls-45, .cls-46 {
        stroke-width: 0px;
      }

      .cls-2 {
        fill: url(#New_Gradient_Swatch_3);
      }

      .cls-3 {
        fill: url(#New_Gradient_Swatch_3-3);
      }

      .cls-4 {
        fill: url(#New_Gradient_Swatch_3-4);
      }

      .cls-5 {
        fill: url(#New_Gradient_Swatch_3-9);
      }

      .cls-6 {
        fill: url(#New_Gradient_Swatch_3-8);
      }

      .cls-7 {
        fill: url(#New_Gradient_Swatch_3-7);
      }

      .cls-8 {
        fill: url(#New_Gradient_Swatch_3-6);
      }

      .cls-9 {
        fill: url(#New_Gradient_Swatch_3-2);
      }

      .cls-10 {
        fill: url(#New_Gradient_Swatch_3-5);
      }

      .cls-11 {
        fill: url(#New_Gradient_Swatch_4-3);
      }

      .cls-12 {
        fill: url(#New_Gradient_Swatch_4-2);
      }

      .cls-47 {
        clip-path: url(#clippath);
      }

      .cls-13, .cls-48 {
        fill: none;
      }

      .cls-48 {
        stroke: #fff;
        stroke-width: 2.5px;
      }

      .cls-48, .cls-49 {
        stroke-miterlimit: 10;
      }

      .cls-50 {
        clip-path: url(#clippath-1);
      }

      .cls-51 {
        clip-path: url(#clippath-2);
      }

      .cls-14 {
        fill: url(#New_Gradient_Swatch_3-12);
      }

      .cls-15 {
        fill: url(#New_Gradient_Swatch_3-11);
      }

      .cls-16 {
        fill: url(#New_Gradient_Swatch_3-10);
      }

      .cls-17 {
        fill: url(#New_Gradient_Swatch_3-18);
      }

      .cls-18 {
        fill: url(#New_Gradient_Swatch_3-14);
      }

      .cls-19 {
        fill: url(#New_Gradient_Swatch_3-17);
      }

      .cls-20 {
        fill: url(#New_Gradient_Swatch_3-16);
      }

      .cls-21 {
        fill: url(#New_Gradient_Swatch_3-13);
      }

      .cls-22 {
        fill: url(#New_Gradient_Swatch_3-15);
      }

      .cls-49 {
        stroke: #2f363e;
      }

      .cls-49, .cls-27 {
        fill: #151b23;
      }

      .cls-23 {
        fill: #34383e;
      }

      .cls-24 {
        fill: #2f363e;
      }

      .cls-25 {
        fill: #18c133;
      }

      .cls-26 {
        fill: #0d1116;
      }

      .cls-28 {
        fill: #c8c8c8;
      }

      .cls-29 {
        fill: #fe5f58;
      }

      .cls-30 {
        fill: #fff;
      }

      .cls-31 {
        fill: #ffbd2d;
      }

      .cls-32 {
        fill: #00fdd6;
      }

      .cls-33 {
        fill: #00fed6;
      }

      .cls-34 {
        fill: #00fbd8;
      }

      .cls-35 {
        fill: #00f9d9;
      }

      .cls-36 {
        fill: #00fad8;
      }

      .cls-37 {
        fill: #00f4dc;
      }

      .cls-38 {
        fill: #00f7da;
      }

      .cls-39 {
        fill: #00f5dc;
      }

      .cls-40 {
        fill: #00f6db;
      }

      .cls-41 {
        fill: #00f3dd;
      }

      .cls-42 {
        fill: #00fcd7;
      }

      .cls-43 {
        fill: #00f1de;
      }

      .cls-44 {
        fill: #00f8da;
      }

      .cls-45 {
        fill: #00ffd5;
      }

      .cls-46 {
        fill: #00f2de;
      }
    </style>
    <clipPath id="clippath">
      <path class="cls-13" d="M904.58,195.41c2.82,0,5.11,2.29,5.11,5.11h5.11c0-5.64-4.57-10.21-10.21-10.21s-10.21,4.57-10.21,10.21h5.11c0-2.82,2.29-5.11,5.11-5.11Z"/>
    </clipPath>
    <clipPath id="clippath-1">
      <path class="cls-13" d="M899.47,200.52c0,2.82-2.29,5.11-5.11,5.11v5.11c5.64,0,10.21-4.57,10.21-10.21h-5.11Z"/>
    </clipPath>
    <clipPath id="clippath-2">
      <path class="cls-13" d="M914.79,205.63c-2.82,0-5.11-2.29-5.11-5.11h-5.11c0,5.64,4.57,10.21,10.21,10.21v-5.11Z"/>
    </clipPath>
    <linearGradient id="New_Gradient_Swatch_3" data-name="New Gradient Swatch 3" x1="127.01" y1="399.87" x2="635.86" y2="399.87" gradientUnits="userSpaceOnUse">
      <stop offset="0" stop-color="#00ffd5"/>
      <stop offset="1" stop-color="#00bfff"/>
    </linearGradient>
    <linearGradient id="New_Gradient_Swatch_3-2" data-name="New Gradient Swatch 3" y1="404.39" y2="404.39" xlink:href="#New_Gradient_Swatch_3"/>
    <linearGradient id="New_Gradient_Swatch_3-3" data-name="New Gradient Swatch 3" y1="404.63" y2="404.63" xlink:href="#New_Gradient_Swatch_3"/>
    <linearGradient id="New_Gradient_Swatch_3-4" data-name="New Gradient Swatch 3" y1="404.63" y2="404.63" xlink:href="#New_Gradient_Swatch_3"/>
    <linearGradient id="New_Gradient_Swatch_3-5" data-name="New Gradient Swatch 3" y1="399.23" x2="635.86" y2="399.23" xlink:href="#New_Gradient_Swatch_3"/>
    <linearGradient id="New_Gradient_Swatch_3-6" data-name="New Gradient Swatch 3" y1="399.02" y2="399.02" xlink:href="#New_Gradient_Swatch_3"/>
    <linearGradient id="New_Gradient_Swatch_3-7" data-name="New Gradient Swatch 3" y1="404.63" y2="404.63" xlink:href="#New_Gradient_Swatch_3"/>
    <linearGradient id="New_Gradient_Swatch_3-8" data-name="New Gradient Swatch 3" y1="399.23" x2="635.86" y2="399.23" xlink:href="#New_Gradient_Swatch_3"/>
    <linearGradient id="New_Gradient_Swatch_3-9" data-name="New Gradient Swatch 3" y1="399.02" y2="399.02" xlink:href="#New_Gradient_Swatch_3"/>
    <linearGradient id="New_Gradient_Swatch_3-10" data-name="New Gradient Swatch 3" x2="635.86" xlink:href="#New_Gradient_Swatch_3"/>
    <linearGradient id="New_Gradient_Swatch_3-11" data-name="New Gradient Swatch 3" y1="404.66" y2="404.66" xlink:href="#New_Gradient_Swatch_3"/>
    <linearGradient id="New_Gradient_Swatch_3-12" data-name="New Gradient Swatch 3" y1="399.97" x2="635.86" y2="399.97" xlink:href="#New_Gradient_Swatch_3"/>
    <linearGradient id="New_Gradient_Swatch_3-13" data-name="New Gradient Swatch 3" y1="404.66" y2="404.66" xlink:href="#New_Gradient_Swatch_3"/>
    <linearGradient id="New_Gradient_Swatch_3-14" data-name="New Gradient Swatch 3" y1="401.37" y2="401.37" xlink:href="#New_Gradient_Swatch_3"/>
    <linearGradient id="New_Gradient_Swatch_3-15" data-name="New Gradient Swatch 3" y1="404.63" y2="404.63" xlink:href="#New_Gradient_Swatch_3"/>
    <linearGradient id="New_Gradient_Swatch_3-16" data-name="New Gradient Swatch 3" y1="404.33" y2="404.33" xlink:href="#New_Gradient_Swatch_3"/>
    <linearGradient id="New_Gradient_Swatch_3-17" data-name="New Gradient Swatch 3" y1="404.63" y2="404.63" xlink:href="#New_Gradient_Swatch_3"/>
    <linearGradient id="New_Gradient_Swatch_3-18" data-name="New Gradient Swatch 3" y1="404.63" y2="404.63" xlink:href="#New_Gradient_Swatch_3"/>
    <linearGradient id="New_Gradient_Swatch_4" data-name="New Gradient Swatch 4" x1="163.25" y1="299.44" x2="163.25" y2="258.84" gradientUnits="userSpaceOnUse">
      <stop offset="0" stop-color="#0afdca"/>
      <stop offset="1" stop-color="#07befd"/>
    </linearGradient>
    <linearGradient id="New_Gradient_Swatch_4-2" data-name="New Gradient Swatch 4" x1="155.61" y1="299.44" x2="155.61" y2="258.84" xlink:href="#New_Gradient_Swatch_4"/>
    <linearGradient id="New_Gradient_Swatch_4-3" data-name="New Gradient Swatch 4" x1="170.9" y1="299.44" x2="170.9" y2="258.84" xlink:href="#New_Gradient_Swatch_4"/>
  </defs>
  <rect class="cls-26" x="-7.21" width="1697.52" height="882"/>
  <g>
    <g>
      <g>
        <path class="cls-26" d="M1550.28,689.28h-442.51V236.57h452.11v443.12c0,5.3-4.29,9.59-9.59,9.59Z"/>
        <path class="cls-24" d="M1550.27,690.01h-443.24V216.85h453.57v462.84c0,5.69-4.63,10.32-10.32,10.32ZM1108.49,688.55h441.78c4.89,0,8.86-3.97,8.86-8.86V218.31h-450.64v470.24Z"/>
      </g>
      <g>
        <path class="cls-27" d="M1107.76,689.28h-224.93c-5.3,0-9.59-4.29-9.59-9.59V235.84h234.52v453.44Z"/>
        <path class="cls-24" d="M1108.49,690.01h-225.66c-5.69,0-10.32-4.63-10.32-10.32V235.11h235.98v454.9ZM873.97,236.57v443.12c0,4.89,3.97,8.86,8.86,8.86h224.2V236.57h-233.06Z"/>
      </g>
      <rect class="cls-24" x="1107.46" y="235.84" width=".59" height="453.44"/>
      <g>
        <g>
          <path class="cls-27" d="M873.24,235.84v-62.8c0-5.3,4.29-9.59,9.59-9.59h667.44c5.3,0,9.59,4.29,9.59,9.59v62.8h-686.63Z"/>
          <path class="cls-24" d="M1560.6,236.57h-688.09v-63.53c0-5.69,4.63-10.32,10.32-10.32h667.44c5.69,0,10.32,4.63,10.32,10.32v63.53ZM873.97,235.11h685.16v-62.06c0-4.89-3.98-8.86-8.86-8.86h-667.44c-4.89,0-8.86,3.97-8.86,8.86v62.06Z"/>
        </g>
        <g>
          <g class="cls-47">
            <rect class="cls-33" x="894.36" y="190.31" width="1.41" height="10.21"/>
            <rect class="cls-32" x="895.78" y="190.31" width="1.58" height="10.21"/>
            <rect class="cls-42" x="897.35" y="190.31" width="1.58" height="10.21"/>
            <rect class="cls-34" x="898.93" y="190.31" width="1.58" height="10.21"/>
            <rect class="cls-36" x="900.5" y="190.31" width="1.58" height="10.21"/>
            <rect class="cls-35" x="902.08" y="190.31" width="1.58" height="10.21"/>
            <rect class="cls-44" x="903.66" y="190.31" width="1.58" height="10.21"/>
            <rect class="cls-38" x="905.23" y="190.31" width="1.58" height="10.21"/>
            <rect class="cls-40" x="906.81" y="190.31" width="1.58" height="10.21"/>
            <rect class="cls-39" x="908.39" y="190.31" width="1.58" height="10.21"/>
            <rect class="cls-37" x="909.96" y="190.31" width="1.58" height="10.21"/>
            <rect class="cls-41" x="911.54" y="190.31" width="1.58" height="10.21"/>
            <rect class="cls-46" x="913.11" y="190.31" width="1.58" height="10.21"/>
            <rect class="cls-43" x="914.69" y="190.31" width=".1" height="10.21"/>
          </g>
          <g class="cls-50">
            <rect class="cls-33" x="894.36" y="200.52" width="1.41" height="10.21"/>
            <rect class="cls-32" x="895.78" y="200.52" width="1.58" height="10.21"/>
            <rect class="cls-42" x="897.35" y="200.52" width="1.58" height="10.21"/>
            <rect class="cls-34" x="898.93" y="200.52" width="1.58" height="10.21"/>
            <rect class="cls-36" x="900.5" y="200.52" width="1.58" height="10.21"/>
            <rect class="cls-35" x="902.08" y="200.52" width="1.58" height="10.21"/>
            <rect class="cls-44" x="903.66" y="200.52" width=".92" height="10.21"/>
          </g>
          <g class="cls-51">
            <rect class="cls-44" x="904.58" y="200.52" width=".66" height="10.21"/>
            <rect class="cls-38" x="905.23" y="200.52" width="1.58" height="10.21"/>
            <rect class="cls-40" x="906.81" y="200.52" width="1.58" height="10.21"/>
            <rect class="cls-39" x="908.39" y="200.52" width="1.58" height="10.21"/>
            <rect class="cls-37" x="909.96" y="200.52" width="1.58" height="10.21"/>
            <rect class="cls-41" x="911.54" y="200.52" width="1.58" height="10.21"/>
            <rect class="cls-46" x="913.11" y="200.52" width="1.58" height="10.21"/>
            <rect class="cls-43" x="914.69" y="200.52" width=".1" height="10.21"/>
          </g>
        </g>
      </g>
      <rect class="cls-23" x="894.36" y="266.18" width="192.35" height="28.44"/>
      <rect class="cls-23" x="894.36" y="354.15" width="192.35" height="18.87"/>
      <rect class="cls-23" x="894.36" y="389.57" width="192.35" height="18.87"/>
      <rect class="cls-23" x="894.36" y="425" width="192.35" height="18.87"/>
      <rect class="cls-23" x="894.36" y="460.42" width="192.35" height="18.87"/>
      <rect class="cls-23" x="894.36" y="495.84" width="192.35" height="18.87"/>
    </g>
    <g>
      <circle class="cls-29" cx="1508.48" cy="190.31" r="3.35"/>
      <circle class="cls-31" cx="1519.32" cy="190.31" r="3.35"/>
      <circle class="cls-25" cx="1530.16" cy="190.31" r="3.35"/>
    </g>
    <g>
      <g>
        <circle class="cls-26" cx="927.04" cy="634.55" r="84"/>
        <path class="cls-24" d="M927.04,719.28c-46.72,0-84.73-38.01-84.73-84.73s38.01-84.73,84.73-84.73,84.73,38.01,84.73,84.73-38.01,84.73-84.73,84.73ZM927.04,551.28c-45.91,0-83.27,37.35-83.27,83.27s37.35,83.27,83.27,83.27,83.27-37.35,83.27-83.27-37.35-83.27-83.27-83.27Z"/>
      </g>
      <g>
        <polyline class="cls-48" points="898.93 602.46 898.93 588.9 963.3 588.9 963.3 680.19 898.93 680.19 898.93 643.14"/>
        <rect class="cls-48" x="879.59" y="603.46" width="38.68" height="38.68" rx="8" ry="8"/>
        <g>
          <path class="cls-30" d="M898.93,619.48c-1.83,0-3.32,1.49-3.32,3.32h-3.32c0-3.67,2.97-6.64,6.64-6.64,3.67,0,6.64,2.97,6.64,6.64h-3.32c0-1.83-1.49-3.32-3.32-3.32Z"/>
          <path class="cls-30" d="M902.25,622.8c0,1.83,1.49,3.32,3.32,3.32v3.32c-3.67,0-6.64-2.97-6.64-6.64h3.32Z"/>
          <path class="cls-30" d="M892.28,626.12c1.83,0,3.32-1.49,3.32-3.32h3.32c0,3.67-2.97,6.64-6.64,6.64v-3.32Z"/>
        </g>
        <g>
          <line class="cls-48" x1="912.94" y1="660.32" x2="948.52" y2="660.32"/>
          <line class="cls-48" x1="912.94" y1="650.01" x2="948.52" y2="650.01"/>
          <line class="cls-48" x1="915.84" y1="639.7" x2="948.52" y2="639.7"/>
          <line class="cls-48" x1="918.27" y1="629.39" x2="948.52" y2="629.39"/>
          <line class="cls-48" x1="918.27" y1="619.08" x2="948.52" y2="619.08"/>
          <line class="cls-48" x1="918.27" y1="608.78" x2="930.73" y2="608.78"/>
        </g>
      </g>
    </g>
    <g>
      <g>
        <rect class="cls-24" x="1284.75" y="278.33" width="220.04" height="8.84" transform="translate(2789.53 565.51) rotate(-180)"/>
        <rect class="cls-24" x="1372.65" y="302.01" width="132.13" height="8.84" transform="translate(2877.43 612.87) rotate(-180)"/>
        <rect class="cls-24" x="1343.35" y="325.69" width="161.44" height="8.84" transform="translate(2848.13 660.22) rotate(-180)"/>
      </g>
      <g>
        <rect class="cls-24" x="1164.9" y="648.11" width="87.42" height="8.84"/>
        <rect class="cls-24" x="1164.9" y="624.43" width="106.8" height="8.84"/>
      </g>
      <g>
        <rect class="cls-24" x="1164.9" y="447.45" width="339.89" height="8.84"/>
        <rect class="cls-24" x="1164.9" y="419.85" width="339.89" height="8.84"/>
        <rect class="cls-24" x="1164.9" y="392.24" width="339.89" height="8.84"/>
        <rect class="cls-24" x="1164.9" y="530.28" width="339.89" height="8.84"/>
        <rect class="cls-24" x="1164.9" y="557.89" width="339.89" height="8.84"/>
        <rect class="cls-24" x="1164.9" y="502.67" width="339.89" height="8.84"/>
        <rect class="cls-24" x="1164.9" y="475.06" width="339.89" height="8.84"/>
      </g>
      <g>
        <path class="cls-45" d="M1209.85,336.82h-33.23c-7.59,0-13.77-6.18-13.77-13.77v-33.23c0-7.59,6.18-13.77,13.77-13.77h33.23c7.59,0,13.77,6.18,13.77,13.77v33.23c0,7.59-6.18,13.77-13.77,13.77ZM1176.62,280.15c-5.33,0-9.67,4.34-9.67,9.67v33.23c0,5.33,4.34,9.67,9.67,9.67h33.23c5.33,0,9.67-4.34,9.67-9.67v-33.23c0-5.33-4.34-9.67-9.67-9.67h-33.23Z"/>
        <g>
          <path class="cls-45" d="M1193.23,301.56c-2.69,0-4.87,2.18-4.87,4.87h-4.87c0-5.38,4.36-9.73,9.73-9.73s9.73,4.36,9.73,9.73h-4.87c0-2.69-2.18-4.87-4.87-4.87Z"/>
          <path class="cls-45" d="M1198.1,306.43c0,2.69,2.18,4.87,4.87,4.87v4.87c-5.38,0-9.73-4.36-9.73-9.73h4.87Z"/>
          <path class="cls-45" d="M1183.5,311.3c2.69,0,4.87-2.18,4.87-4.87h4.87c0,5.38-4.36,9.73-9.73,9.73v-4.87Z"/>
        </g>
      </g>
    </g>
  </g>
  <g>
    <path class="cls-28" d="M142.73,492.48c-2.51,0-4.49.84-5.95,2.51s-2.18,3.96-2.18,6.87.7,5.3,2.1,6.93c1.4,1.63,3.4,2.45,5.99,2.45,1.59,0,3.41-.29,5.45-.86v2.33c-1.58.59-3.54.89-5.86.89-3.37,0-5.96-1.02-7.79-3.06s-2.74-4.94-2.74-8.7c0-2.35.44-4.42,1.32-6.19.88-1.77,2.15-3.14,3.81-4.09,1.66-.96,3.62-1.44,5.87-1.44,2.4,0,4.49.44,6.28,1.31l-1.12,2.28c-1.73-.81-3.46-1.22-5.19-1.22Z"/>
    <path class="cls-28" d="M159.98,513.59c-2.53,0-4.53-.77-5.99-2.31-1.46-1.54-2.2-3.68-2.2-6.42s.68-4.95,2.04-6.58,3.18-2.44,5.48-2.44c2.15,0,3.84.71,5.09,2.12s1.88,3.27,1.88,5.59v1.64h-11.8c.05,2.01.56,3.54,1.52,4.58.96,1.04,2.32,1.56,4.07,1.56,1.84,0,3.67-.39,5.47-1.16v2.31c-.92.4-1.78.68-2.6.85-.82.17-1.8.26-2.96.26ZM159.28,498.01c-1.38,0-2.47.45-3.29,1.34-.82.9-1.3,2.14-1.45,3.72h8.95c0-1.64-.37-2.89-1.09-3.76-.73-.87-1.77-1.3-3.12-1.3Z"/>
    <path class="cls-28" d="M178.51,495.84c.76,0,1.44.06,2.05.19l-.36,2.41c-.71-.16-1.33-.23-1.88-.23-1.39,0-2.57.56-3.55,1.69s-1.48,2.53-1.48,4.2v9.19h-2.59v-17.12h2.14l.3,3.17h.12c.63-1.11,1.4-1.97,2.3-2.58.9-.6,1.88-.91,2.95-.91Z"/>
    <path class="cls-28" d="M189.29,511.45c.46,0,.9-.03,1.33-.1.43-.07.77-.14,1.02-.21v1.98c-.28.14-.7.25-1.24.34s-1.04.13-1.48.13c-3.31,0-4.97-1.75-4.97-5.23v-10.19h-2.45v-1.25l2.45-1.08,1.09-3.66h1.5v3.97h4.97v2.02h-4.97v10.08c0,1.03.24,1.82.73,2.38.49.55,1.16.83,2.02.83Z"/>
    <path class="cls-28" d="M194.84,491.51c0-.59.15-1.03.44-1.3.29-.28.66-.41,1.09-.41s.78.14,1.08.42c.3.28.45.71.45,1.3s-.15,1.02-.45,1.3c-.3.29-.66.43-1.08.43-.44,0-.8-.14-1.09-.43-.29-.29-.44-.72-.44-1.3ZM197.65,513.28h-2.59v-17.12h2.59v17.12Z"/>
    <path class="cls-28" d="M210.87,498.17h-4.36v15.11h-2.59v-15.11h-3.06v-1.17l3.06-.94v-.95c0-4.21,1.84-6.31,5.52-6.31.91,0,1.97.18,3.19.55l-.67,2.08c-1-.32-1.85-.48-2.56-.48-.98,0-1.7.33-2.17.98s-.7,1.7-.7,3.13v1.11h4.36v2.02Z"/>
    <path class="cls-28" d="M211.28,496.15h2.78l3.75,9.77c.82,2.23,1.33,3.84,1.53,4.83h.12c.13-.53.42-1.44.85-2.73.43-1.29,1.85-5.24,4.24-11.87h2.78l-7.36,19.5c-.73,1.93-1.58,3.29-2.55,4.1-.97.81-2.17,1.21-3.59,1.21-.79,0-1.57-.09-2.34-.27v-2.08c.57.12,1.21.19,1.92.19,1.78,0,3.05-1,3.81-3l.95-2.44-6.91-17.22Z"/>
    <path class="cls-28" d="M235.72,496.15h2.78l3.75,9.77c.82,2.23,1.33,3.84,1.53,4.83h.12c.13-.53.42-1.44.85-2.73.43-1.29,1.85-5.24,4.24-11.87h2.78l-7.36,19.5c-.73,1.93-1.58,3.29-2.55,4.1-.97.81-2.17,1.21-3.59,1.21-.79,0-1.57-.09-2.34-.27v-2.08c.57.12,1.21.19,1.92.19,1.78,0,3.05-1,3.81-3l.95-2.44-6.91-17.22Z"/>
    <path class="cls-28" d="M269.34,504.7c0,2.79-.7,4.97-2.11,6.54s-3.35,2.35-5.83,2.35c-1.53,0-2.89-.36-4.08-1.08s-2.1-1.75-2.75-3.09c-.65-1.34-.97-2.92-.97-4.72,0-2.79.7-4.97,2.09-6.52,1.4-1.56,3.33-2.34,5.81-2.34s4.3.8,5.71,2.39c1.41,1.59,2.12,3.75,2.12,6.47ZM256.29,504.7c0,2.19.44,3.85,1.31,5s2.16,1.72,3.86,1.72,2.99-.57,3.87-1.71c.88-1.14,1.32-2.81,1.32-5.01s-.44-3.83-1.32-4.96c-.88-1.13-2.18-1.7-3.9-1.7s-2.98.56-3.84,1.67c-.87,1.11-1.3,2.78-1.3,4.98Z"/>
    <path class="cls-28" d="M276.32,496.15v11.11c0,1.4.32,2.44.95,3.12.63.69,1.63,1.03,2.98,1.03,1.79,0,3.1-.49,3.93-1.47s1.24-2.58,1.24-4.8v-9h2.59v17.12h-2.14l-.38-2.3h-.14c-.53.84-1.27,1.49-2.21,1.94-.94.45-2.02.67-3.23.67-2.08,0-3.64-.5-4.68-1.48-1.04-.99-1.55-2.57-1.55-4.75v-11.2h2.62Z"/>
    <path class="cls-28" d="M301.34,495.84c.76,0,1.44.06,2.05.19l-.36,2.41c-.71-.16-1.33-.23-1.88-.23-1.39,0-2.57.56-3.55,1.69s-1.48,2.53-1.48,4.2v9.19h-2.59v-17.12h2.14l.3,3.17h.12c.63-1.11,1.4-1.97,2.3-2.58.9-.6,1.88-.91,2.95-.91Z"/>
    <path class="cls-28" d="M326.56,510.98h-.14c-1.2,1.74-2.99,2.61-5.38,2.61-2.24,0-3.98-.77-5.23-2.3-1.25-1.53-1.87-3.71-1.87-6.53s.62-5.02,1.88-6.58,2.99-2.34,5.22-2.34,4.1.84,5.34,2.53h.2l-.11-1.23-.06-1.2v-6.97h2.59v24.31h-2.11l-.34-2.3ZM321.37,511.42c1.77,0,3.05-.48,3.85-1.45s1.2-2.52,1.2-4.66v-.55c0-2.43-.4-4.16-1.21-5.2-.81-1.04-2.1-1.55-3.87-1.55-1.52,0-2.69.59-3.49,1.77-.81,1.18-1.21,2.85-1.21,5.01s.4,3.84,1.2,4.95c.8,1.11,1.98,1.67,3.53,1.67Z"/>
    <path class="cls-28" d="M349.29,504.7c0,2.79-.7,4.97-2.11,6.54s-3.35,2.35-5.83,2.35c-1.53,0-2.89-.36-4.08-1.08s-2.1-1.75-2.75-3.09c-.65-1.34-.97-2.92-.97-4.72,0-2.79.7-4.97,2.09-6.52,1.4-1.56,3.33-2.34,5.81-2.34s4.3.8,5.71,2.39c1.41,1.59,2.12,3.75,2.12,6.47ZM336.25,504.7c0,2.19.44,3.85,1.31,5s2.16,1.72,3.86,1.72,2.99-.57,3.87-1.71c.88-1.14,1.32-2.81,1.32-5.01s-.44-3.83-1.32-4.96c-.88-1.13-2.18-1.7-3.9-1.7s-2.98.56-3.84,1.67c-.87,1.11-1.3,2.78-1.3,4.98Z"/>
    <path class="cls-28" d="M360.68,513.59c-2.48,0-4.4-.76-5.76-2.29s-2.04-3.68-2.04-6.48.69-5.08,2.07-6.64c1.38-1.56,3.35-2.34,5.9-2.34.82,0,1.65.09,2.47.27.82.18,1.47.39,1.94.62l-.8,2.2c-.57-.23-1.2-.42-1.88-.57-.68-.15-1.28-.23-1.8-.23-3.48,0-5.22,2.22-5.22,6.66,0,2.1.42,3.72,1.27,4.84.85,1.12,2.11,1.69,3.77,1.69,1.43,0,2.89-.31,4.39-.92v2.3c-1.15.59-2.59.89-4.33.89Z"/>
    <path class="cls-28" d="M371.51,496.15v11.11c0,1.4.32,2.44.95,3.12.63.69,1.63,1.03,2.98,1.03,1.79,0,3.1-.49,3.93-1.47s1.24-2.58,1.24-4.8v-9h2.59v17.12h-2.14l-.38-2.3h-.14c-.53.84-1.27,1.49-2.21,1.94-.94.45-2.02.67-3.23.67-2.08,0-3.64-.5-4.68-1.48-1.04-.99-1.55-2.57-1.55-4.75v-11.2h2.62Z"/>
    <path class="cls-28" d="M410.54,513.28v-11.14c0-1.36-.29-2.39-.88-3.07-.58-.68-1.49-1.02-2.72-1.02-1.62,0-2.81.46-3.58,1.39-.77.93-1.16,2.35-1.16,4.28v9.56h-2.59v-11.14c0-1.36-.29-2.39-.88-3.07-.58-.68-1.5-1.02-2.73-1.02-1.62,0-2.82.49-3.57,1.46-.76.97-1.13,2.57-1.13,4.79v8.98h-2.59v-17.12h2.11l.42,2.34h.12c.49-.83,1.18-1.48,2.07-1.95s1.89-.7,2.99-.7c2.68,0,4.43.97,5.25,2.91h.12c.51-.9,1.25-1.6,2.22-2.12s2.07-.78,3.31-.78c1.94,0,3.39.5,4.35,1.49.96,1,1.45,2.59,1.45,4.77v11.17h-2.59Z"/>
    <path class="cls-28" d="M425.72,513.59c-2.53,0-4.53-.77-5.99-2.31-1.46-1.54-2.2-3.68-2.2-6.42s.68-4.95,2.04-6.58,3.18-2.44,5.48-2.44c2.15,0,3.84.71,5.09,2.12s1.88,3.27,1.88,5.59v1.64h-11.8c.05,2.01.56,3.54,1.52,4.58.96,1.04,2.32,1.56,4.07,1.56,1.84,0,3.67-.39,5.47-1.16v2.31c-.92.4-1.78.68-2.6.85-.82.17-1.8.26-2.96.26ZM425.01,498.01c-1.38,0-2.47.45-3.29,1.34-.82.9-1.3,2.14-1.45,3.72h8.95c0-1.64-.37-2.89-1.09-3.76-.73-.87-1.77-1.3-3.12-1.3Z"/>
    <path class="cls-28" d="M448.15,513.28v-11.08c0-1.4-.32-2.44-.95-3.12-.64-.69-1.63-1.03-2.98-1.03-1.79,0-3.1.48-3.94,1.45-.83.97-1.25,2.57-1.25,4.8v8.98h-2.59v-17.12h2.11l.42,2.34h.12c.53-.84,1.28-1.5,2.23-1.96.96-.46,2.03-.7,3.2-.7,2.06,0,3.61.5,4.66,1.49,1.04,1,1.56,2.59,1.56,4.77v11.17h-2.59Z"/>
    <path class="cls-28" d="M461.61,511.45c.46,0,.9-.03,1.33-.1.43-.07.77-.14,1.02-.21v1.98c-.28.14-.7.25-1.24.34s-1.04.13-1.48.13c-3.31,0-4.97-1.75-4.97-5.23v-10.19h-2.45v-1.25l2.45-1.08,1.09-3.66h1.5v3.97h4.97v2.02h-4.97v10.08c0,1.03.24,1.82.73,2.38.49.55,1.16.83,2.02.83Z"/>
    <path class="cls-28" d="M478.42,508.6c0,1.59-.59,2.82-1.78,3.69s-2.85,1.3-5,1.3c-2.27,0-4.04-.36-5.31-1.08v-2.41c.82.42,1.71.75,2.65.98.94.24,1.85.36,2.73.36,1.35,0,2.4-.22,3.12-.65.73-.43,1.09-1.09,1.09-1.98,0-.67-.29-1.24-.87-1.71s-1.71-1.03-3.38-1.68c-1.59-.59-2.73-1.11-3.4-1.55s-1.17-.95-1.5-1.51-.49-1.23-.49-2.02c0-1.4.57-2.5,1.7-3.3,1.13-.81,2.69-1.21,4.67-1.21,1.84,0,3.65.38,5.41,1.12l-.92,2.11c-1.72-.71-3.28-1.06-4.67-1.06-1.23,0-2.16.19-2.78.58s-.94.92-.94,1.59c0,.46.12.85.35,1.17s.61.63,1.13.92c.52.29,1.52.71,3,1.27,2.03.74,3.4,1.48,4.12,2.23.71.75,1.07,1.69,1.07,2.83Z"/>
    <path class="cls-28" d="M501.48,513.28l-.52-2.44h-.12c-.85,1.07-1.71,1.8-2.55,2.18-.85.38-1.91.57-3.18.57-1.7,0-3.03-.44-3.99-1.31-.96-.88-1.45-2.12-1.45-3.73,0-3.46,2.77-5.27,8.3-5.44l2.91-.09v-1.06c0-1.34-.29-2.34-.87-2.98s-1.5-.96-2.77-.96c-1.43,0-3.04.44-4.84,1.31l-.8-1.98c.84-.46,1.77-.82,2.77-1.08,1-.26,2.01-.39,3.02-.39,2.04,0,3.55.45,4.54,1.36s1.48,2.36,1.48,4.36v11.69h-1.92ZM495.62,511.45c1.61,0,2.88-.44,3.8-1.33s1.38-2.12,1.38-3.72v-1.55l-2.59.11c-2.06.07-3.55.39-4.46.96-.91.57-1.37,1.45-1.37,2.65,0,.94.28,1.65.85,2.14.57.49,1.36.73,2.38.73Z"/>
    <path class="cls-28" d="M520.47,513.28v-11.08c0-1.4-.32-2.44-.95-3.12-.64-.69-1.63-1.03-2.98-1.03-1.79,0-3.1.48-3.94,1.45-.83.97-1.25,2.57-1.25,4.8v8.98h-2.59v-17.12h2.11l.42,2.34h.12c.53-.84,1.28-1.5,2.23-1.96.96-.46,2.03-.7,3.2-.7,2.06,0,3.61.5,4.66,1.49,1.04,1,1.56,2.59,1.56,4.77v11.17h-2.59Z"/>
    <path class="cls-28" d="M540.04,510.98h-.14c-1.2,1.74-2.99,2.61-5.38,2.61-2.24,0-3.98-.77-5.23-2.3-1.25-1.53-1.87-3.71-1.87-6.53s.62-5.02,1.88-6.58,2.99-2.34,5.22-2.34,4.1.84,5.34,2.53h.2l-.11-1.23-.06-1.2v-6.97h2.59v24.31h-2.11l-.34-2.3ZM534.86,511.42c1.77,0,3.05-.48,3.85-1.45s1.2-2.52,1.2-4.66v-.55c0-2.43-.4-4.16-1.21-5.2-.81-1.04-2.1-1.55-3.87-1.55-1.52,0-2.69.59-3.49,1.77-.81,1.18-1.21,2.85-1.21,5.01s.4,3.84,1.2,4.95c.8,1.11,1.98,1.67,3.53,1.67Z"/>
    <path class="cls-28" d="M140.53,551.99c-1.12,0-2.13-.21-3.05-.62-.92-.41-1.7-1.04-2.32-1.9h-.19c.12,1,.19,1.95.19,2.84v7.05h-2.59v-24.81h2.11l.36,2.34h.12c.67-.94,1.44-1.61,2.33-2.03.88-.42,1.9-.62,3.05-.62,2.27,0,4.02.78,5.26,2.33,1.23,1.55,1.85,3.73,1.85,6.53s-.63,5-1.88,6.55c-1.26,1.56-3,2.34-5.23,2.34ZM140.15,536.44c-1.75,0-3.02.48-3.8,1.45s-1.18,2.51-1.2,4.62v.58c0,2.41.4,4.13,1.2,5.16.8,1.04,2.09,1.55,3.86,1.55,1.48,0,2.64-.6,3.48-1.8.84-1.2,1.26-2.85,1.26-4.95s-.42-3.77-1.26-4.91c-.84-1.14-2.02-1.71-3.54-1.71Z"/>
    <path class="cls-28" d="M159.98,534.24c.76,0,1.44.06,2.05.19l-.36,2.41c-.71-.16-1.33-.23-1.88-.23-1.39,0-2.57.56-3.55,1.69s-1.48,2.53-1.48,4.2v9.19h-2.59v-17.12h2.14l.3,3.17h.12c.63-1.11,1.4-1.97,2.3-2.58.9-.6,1.88-.91,2.95-.91Z"/>
    <path class="cls-28" d="M180.01,543.1c0,2.79-.7,4.97-2.11,6.54-1.41,1.57-3.35,2.35-5.83,2.35-1.53,0-2.89-.36-4.08-1.08s-2.1-1.75-2.75-3.09c-.65-1.34-.97-2.92-.97-4.72,0-2.79.7-4.96,2.09-6.52,1.4-1.56,3.33-2.34,5.81-2.34s4.3.8,5.71,2.39c1.41,1.59,2.12,3.75,2.12,6.47ZM166.97,543.1c0,2.19.44,3.86,1.31,5,.88,1.15,2.16,1.72,3.86,1.72s2.99-.57,3.87-1.71c.88-1.14,1.32-2.81,1.32-5.01s-.44-3.83-1.32-4.96c-.88-1.13-2.18-1.7-3.9-1.7s-2.98.56-3.84,1.67c-.87,1.12-1.3,2.78-1.3,4.98Z"/>
    <path class="cls-28" d="M188.31,551.68l-6.5-17.12h2.78l3.69,10.16c.83,2.38,1.32,3.92,1.47,4.62h.12c.11-.55.48-1.7,1.09-3.43s1.98-5.52,4.1-11.35h2.78l-6.5,17.12h-3.03Z"/>
    <path class="cls-28" d="M207.82,551.99c-2.53,0-4.53-.77-5.99-2.31-1.46-1.54-2.2-3.68-2.2-6.42s.68-4.95,2.04-6.58,3.18-2.44,5.48-2.44c2.15,0,3.84.71,5.09,2.12,1.25,1.41,1.88,3.27,1.88,5.59v1.64h-11.8c.05,2.01.56,3.54,1.52,4.58.96,1.04,2.32,1.56,4.07,1.56,1.84,0,3.67-.38,5.47-1.16v2.31c-.92.4-1.78.68-2.6.85-.82.17-1.8.26-2.96.26ZM207.12,536.41c-1.38,0-2.47.45-3.29,1.34-.82.9-1.3,2.14-1.45,3.72h8.95c0-1.63-.37-2.89-1.09-3.76-.73-.87-1.77-1.3-3.12-1.3Z"/>
    <path class="cls-28" d="M232.39,549.85c.46,0,.9-.03,1.33-.1.43-.07.77-.14,1.02-.21v1.98c-.28.14-.7.25-1.24.34-.55.09-1.04.13-1.48.13-3.31,0-4.97-1.74-4.97-5.23v-10.19h-2.45v-1.25l2.45-1.08,1.09-3.66h1.5v3.97h4.97v2.02h-4.97v10.08c0,1.03.24,1.82.73,2.38.49.55,1.16.83,2.02.83Z"/>
    <path class="cls-28" d="M249.87,551.68v-11.08c0-1.39-.32-2.44-.95-3.12-.64-.69-1.63-1.03-2.98-1.03-1.8,0-3.12.49-3.95,1.47-.83.98-1.24,2.58-1.24,4.81v8.95h-2.59v-24.31h2.59v7.36c0,.89-.04,1.62-.12,2.2h.16c.51-.82,1.24-1.47,2.18-1.95.94-.47,2.02-.71,3.23-.71,2.09,0,3.66.5,4.71,1.49,1.05,1,1.57,2.58,1.57,4.74v11.17h-2.59Z"/>
    <path class="cls-28" d="M265.03,551.99c-2.53,0-4.53-.77-5.99-2.31-1.46-1.54-2.2-3.68-2.2-6.42s.68-4.95,2.04-6.58,3.18-2.44,5.48-2.44c2.15,0,3.84.71,5.09,2.12,1.25,1.41,1.88,3.27,1.88,5.59v1.64h-11.8c.05,2.01.56,3.54,1.52,4.58.96,1.04,2.32,1.56,4.07,1.56,1.84,0,3.67-.38,5.47-1.16v2.31c-.92.4-1.78.68-2.6.85-.82.17-1.8.26-2.96.26ZM264.32,536.41c-1.38,0-2.47.45-3.29,1.34-.82.9-1.3,2.14-1.45,3.72h8.95c0-1.63-.37-2.89-1.09-3.76-.73-.87-1.77-1.3-3.12-1.3Z"/>
    <path class="cls-28" d="M275.53,529.91c0-.59.15-1.03.44-1.3.29-.28.66-.41,1.09-.41s.78.14,1.08.42c.3.28.45.71.45,1.3s-.15,1.02-.45,1.3c-.3.29-.66.43-1.08.43-.44,0-.8-.14-1.09-.43-.29-.29-.44-.72-.44-1.3ZM278.34,551.68h-2.59v-17.12h2.59v17.12Z"/>
    <path class="cls-28" d="M291.65,534.24c.76,0,1.44.06,2.05.19l-.36,2.41c-.71-.16-1.33-.23-1.88-.23-1.39,0-2.57.56-3.55,1.69s-1.48,2.53-1.48,4.2v9.19h-2.59v-17.12h2.14l.3,3.17h.12c.63-1.11,1.4-1.97,2.3-2.58.9-.6,1.88-.91,2.95-.91Z"/>
    <path class="cls-28" d="M312.45,551.99c-2.53,0-4.53-.77-5.99-2.31-1.46-1.54-2.2-3.68-2.2-6.42s.68-4.95,2.04-6.58,3.18-2.44,5.48-2.44c2.15,0,3.84.71,5.09,2.12,1.25,1.41,1.88,3.27,1.88,5.59v1.64h-11.8c.05,2.01.56,3.54,1.52,4.58.96,1.04,2.32,1.56,4.07,1.56,1.84,0,3.67-.38,5.47-1.16v2.31c-.92.4-1.78.68-2.6.85-.82.17-1.8.26-2.96.26ZM311.75,536.41c-1.38,0-2.47.45-3.29,1.34-.82.9-1.3,2.14-1.45,3.72h8.95c0-1.63-.37-2.89-1.09-3.76-.73-.87-1.77-1.3-3.12-1.3Z"/>
    <path class="cls-28" d="M327.29,542.91l-5.95-8.36h2.95l4.52,6.56,4.5-6.56h2.92l-5.95,8.36,6.27,8.77h-2.94l-4.8-6.94-4.84,6.94h-2.94l6.27-8.77Z"/>
    <path class="cls-28" d="M339.72,529.91c0-.59.15-1.03.44-1.3.29-.28.66-.41,1.09-.41s.78.14,1.08.42c.3.28.45.71.45,1.3s-.15,1.02-.45,1.3c-.3.29-.66.43-1.08.43-.44,0-.8-.14-1.09-.43-.29-.29-.44-.72-.44-1.3ZM342.53,551.68h-2.59v-17.12h2.59v17.12Z"/>
    <path class="cls-28" d="M359.07,547c0,1.59-.59,2.82-1.78,3.69-1.19.87-2.85,1.3-5,1.3-2.27,0-4.04-.36-5.31-1.08v-2.41c.82.42,1.71.75,2.65.98.94.24,1.85.36,2.73.36,1.35,0,2.4-.21,3.12-.65.73-.43,1.09-1.09,1.09-1.98,0-.67-.29-1.24-.87-1.71-.58-.47-1.71-1.03-3.38-1.68-1.59-.59-2.73-1.11-3.4-1.55-.67-.44-1.17-.95-1.5-1.51s-.49-1.23-.49-2.02c0-1.39.57-2.5,1.7-3.3,1.13-.81,2.69-1.21,4.67-1.21,1.84,0,3.65.38,5.41,1.12l-.92,2.11c-1.72-.71-3.28-1.06-4.67-1.06-1.23,0-2.16.19-2.78.58-.62.39-.94.92-.94,1.59,0,.46.12.85.35,1.17.23.32.61.63,1.13.92.52.29,1.52.71,3,1.27,2.03.74,3.4,1.48,4.12,2.23.71.75,1.07,1.69,1.07,2.83Z"/>
    <path class="cls-28" d="M368.82,549.85c.46,0,.9-.03,1.33-.1.43-.07.77-.14,1.02-.21v1.98c-.28.14-.7.25-1.24.34-.55.09-1.04.13-1.48.13-3.31,0-4.97-1.74-4.97-5.23v-10.19h-2.45v-1.25l2.45-1.08,1.09-3.66h1.5v3.97h4.97v2.02h-4.97v10.08c0,1.03.24,1.82.73,2.38.49.55,1.16.83,2.02.83Z"/>
    <path class="cls-28" d="M381.82,551.99c-2.53,0-4.53-.77-5.99-2.31-1.46-1.54-2.2-3.68-2.2-6.42s.68-4.95,2.04-6.58,3.18-2.44,5.48-2.44c2.15,0,3.84.71,5.09,2.12,1.25,1.41,1.88,3.27,1.88,5.59v1.64h-11.8c.05,2.01.56,3.54,1.52,4.58.96,1.04,2.32,1.56,4.07,1.56,1.84,0,3.67-.38,5.47-1.16v2.31c-.92.4-1.78.68-2.6.85-.82.17-1.8.26-2.96.26ZM381.12,536.41c-1.38,0-2.47.45-3.29,1.34-.82.9-1.3,2.14-1.45,3.72h8.95c0-1.63-.37-2.89-1.09-3.76-.73-.87-1.77-1.3-3.12-1.3Z"/>
    <path class="cls-28" d="M404.26,551.68v-11.08c0-1.39-.32-2.44-.95-3.12-.64-.69-1.63-1.03-2.98-1.03-1.79,0-3.1.48-3.94,1.45-.83.97-1.25,2.57-1.25,4.8v8.98h-2.59v-17.12h2.11l.42,2.34h.12c.53-.84,1.28-1.5,2.23-1.96.96-.46,2.03-.7,3.2-.7,2.06,0,3.61.5,4.66,1.49,1.04,1,1.56,2.59,1.56,4.77v11.17h-2.59Z"/>
    <path class="cls-28" d="M419.03,551.99c-2.48,0-4.4-.76-5.76-2.29-1.36-1.53-2.04-3.68-2.04-6.48s.69-5.08,2.07-6.64c1.38-1.56,3.35-2.34,5.9-2.34.82,0,1.65.09,2.47.27.82.18,1.47.39,1.94.62l-.8,2.2c-.57-.23-1.2-.42-1.88-.57-.68-.15-1.28-.23-1.8-.23-3.48,0-5.22,2.22-5.22,6.66,0,2.11.42,3.72,1.27,4.84.85,1.12,2.11,1.69,3.77,1.69,1.43,0,2.89-.31,4.39-.92v2.3c-1.15.59-2.59.89-4.33.89Z"/>
    <path class="cls-28" d="M434.65,551.99c-2.53,0-4.53-.77-5.99-2.31-1.46-1.54-2.2-3.68-2.2-6.42s.68-4.95,2.04-6.58,3.18-2.44,5.48-2.44c2.15,0,3.84.71,5.09,2.12,1.25,1.41,1.88,3.27,1.88,5.59v1.64h-11.8c.05,2.01.56,3.54,1.52,4.58.96,1.04,2.32,1.56,4.07,1.56,1.84,0,3.67-.38,5.47-1.16v2.31c-.92.4-1.78.68-2.6.85-.82.17-1.8.26-2.96.26ZM433.95,536.41c-1.38,0-2.47.45-3.29,1.34-.82.9-1.3,2.14-1.45,3.72h8.95c0-1.63-.37-2.89-1.09-3.76-.73-.87-1.77-1.3-3.12-1.3Z"/>
    <path class="cls-28" d="M445,550.02c0-.7.16-1.23.48-1.59.32-.36.77-.54,1.37-.54s1.08.18,1.41.54c.34.36.51.89.51,1.59s-.17,1.2-.52,1.56c-.34.37-.81.55-1.41.55-.53,0-.97-.16-1.32-.49-.35-.33-.52-.87-.52-1.62Z"/>
  </g>
  <g>
    <path class="cls-2" d="M131.62,378.52h20.01c9.15,0,14.76,4.94,14.76,13.05s-5.55,12.99-14.64,12.99h-12.02v16.65h-8.11v-42.7ZM139.74,384.93v13.36h11.35c4.58,0,7.26-2.26,7.26-6.65s-2.68-6.71-7.26-6.71h-11.35Z"/>
    <path class="cls-9" d="M169.02,388.1h7.81v5.25c2.13-3.72,5.55-5.8,9.94-5.8h.79v7.14c-.79-.12-1.59-.18-2.38-.18-3.48,0-6.71,1.4-8.36,4.09v22.63h-7.81v-33.13Z"/>
    <path class="cls-3" d="M187.93,404.69c0-10.98,6.59-17.45,16.29-17.45s16.35,6.47,16.35,17.45-6.53,17.33-16.35,17.33-16.29-6.47-16.29-17.33ZM212.76,404.63c0-7.63-3.36-11.65-8.54-11.65s-8.48,4.03-8.48,11.65,3.36,11.65,8.48,11.65,8.54-3.97,8.54-11.65Z"/>
    <path class="cls-4" d="M222.94,404.69c0-10.98,6.59-17.45,16.29-17.45s16.35,6.47,16.35,17.45-6.53,17.33-16.35,17.33-16.29-6.47-16.29-17.33ZM247.77,404.63c0-7.63-3.36-11.65-8.54-11.65s-8.48,4.03-8.48,11.65,3.36,11.65,8.48,11.65,8.54-3.97,8.54-11.65Z"/>
    <path class="cls-10" d="M263.02,393.83h-7.44v-5.73h7.44v-2.99c0-5.25,2.5-7.87,8.3-7.87h8.3v5.31h-5.61c-2.38,0-3.29.92-3.29,2.99v2.56h8.91v5.73h-8.91v27.39h-7.69v-27.39Z"/>
    <path class="cls-8" d="M281.19,396.09h19.03v5.86h-19.03v-5.86Z"/>
    <path class="cls-7" d="M303.03,404.69c0-10.98,6.59-17.45,16.29-17.45s16.35,6.47,16.35,17.45-6.53,17.33-16.35,17.33-16.29-6.47-16.29-17.33ZM327.86,404.63c0-7.63-3.36-11.65-8.54-11.65s-8.48,4.03-8.48,11.65,3.36,11.65,8.48,11.65,8.54-3.97,8.54-11.65Z"/>
    <path class="cls-6" d="M343.11,393.83h-7.44v-5.73h7.44v-2.99c0-5.25,2.5-7.87,8.3-7.87h8.3v5.31h-5.61c-2.38,0-3.29.92-3.29,2.99v2.56h8.91v5.73h-8.91v27.39h-7.69v-27.39Z"/>
    <path class="cls-5" d="M361.28,396.09h19.03v5.86h-19.03v-5.86Z"/>
    <path class="cls-16" d="M383.98,378.52h31.17v6.47h-23.06v11.1h17.14v6.34h-17.14v12.45h23.06v6.34h-31.17v-42.7Z"/>
    <path class="cls-15" d="M428.32,404.45l-11.9-16.35h8.97l7.57,10.86,7.75-10.86h8.42l-11.9,16.11,12.63,17.02h-9.09l-8.05-11.59-8.24,11.59h-8.54l12.38-16.78Z"/>
    <path class="cls-14" d="M450.95,378.71h7.81v6.65h-7.81v-6.65ZM450.95,388.1h7.81v33.13h-7.81v-33.13Z"/>
    <path class="cls-21" d="M461.38,409.45h7.26c.85,4.76,3.78,7.14,8.24,7.14s6.53-1.71,6.53-4.09c0-2.99-3.48-4.09-7.63-5.06-6.22-1.52-13.91-2.93-13.91-10.31,0-5.61,5-9.82,13.3-9.82s14.21,4.33,15.43,11.77h-7.14c-1.04-4.39-3.9-6.34-8.24-6.34-3.84,0-5.92,1.65-5.92,3.66,0,2.99,3.9,3.9,8.42,5,6.1,1.46,13.18,3.11,13.18,10.31,0,5.79-5.25,10.31-13.85,10.31s-14.52-4.15-15.68-12.57Z"/>
    <path class="cls-18" d="M499.02,413.66v-19.83h-7.81v-5.73h7.81v-6.59h7.69v6.59h9.7v5.73h-9.7v18.42c0,2.2,1.16,3.17,3.84,3.17h5.86v5.8h-9.46c-5.37,0-7.93-2.68-7.93-7.56Z"/>
    <path class="cls-22" d="M517.02,404.69c0-10.74,6.59-17.45,16.04-17.45,8.97,0,15.68,6.34,15.68,17.57v.61h-24.04c.24,7.14,3.42,10.98,8.36,10.98,4.03,0,6.83-2.56,7.93-7.56h7.38c-1.46,8.3-7.08,13.18-15.37,13.18-9.52,0-15.98-6.53-15.98-17.33ZM525.01,400.79h15.92c-1.04-5.19-3.9-7.93-7.93-7.93s-7.02,2.81-7.99,7.93Z"/>
    <path class="cls-20" d="M551.54,388.1h7.81v3.84c2.32-2.81,5.73-4.51,9.88-4.51,7.08,0,11.71,4.45,11.71,11.22v22.57h-7.75v-21.35c0-4.33-2.68-6.65-6.71-6.65-2.99,0-5.61,1.4-7.14,3.54v24.46h-7.81v-33.13Z"/>
    <path class="cls-19" d="M583.69,404.69c0-10.98,6.53-17.45,16.11-17.45,8.42,0,14.46,5.12,15.56,14.09h-7.44c-.85-5.49-3.84-8.36-8.11-8.36-5,0-8.3,4.03-8.3,11.65s3.29,11.65,8.3,11.65c4.39,0,7.44-3.05,8.17-8.85h7.38c-.92,9.27-6.89,14.58-15.56,14.58-9.64,0-16.11-6.41-16.11-17.33Z"/>
    <path class="cls-17" d="M617.6,404.69c0-10.74,6.59-17.45,16.04-17.45,8.97,0,15.68,6.34,15.68,17.57v.61h-24.04c.24,7.14,3.42,10.98,8.36,10.98,4.03,0,6.83-2.56,7.93-7.56h7.38c-1.46,8.3-7.08,13.18-15.37,13.18-9.52,0-15.98-6.53-15.98-17.33ZM625.59,400.79h15.92c-1.04-5.19-3.9-7.93-7.93-7.93s-7.02,2.81-7.99,7.93Z"/>
  </g>
  <g>
    <rect class="cls-49" x="129.71" y="242.34" width="67.08" height="67.08" rx="11" ry="11"/>
    <g>
      <path class="cls-1" d="M163.25,268.24c4.22,0,7.64,3.42,7.64,7.64h7.64c0-8.44-6.85-15.29-15.29-15.29s-15.29,6.85-15.29,15.29h7.64c0-4.22,3.42-7.64,7.64-7.64Z"/>
      <path class="cls-12" d="M155.61,275.89c0,4.22-3.42,7.64-7.64,7.64v7.64c8.44,0,15.29-6.85,15.29-15.29h-7.64Z"/>
      <path class="cls-11" d="M178.54,283.53c-4.22,0-7.64-3.42-7.64-7.64h-7.64c0,8.44,6.85,15.29,15.29,15.29v-7.64Z"/>
    </g>
  </g>
</svg>