<?xml version="1.0" encoding="UTF-8"?><svg id="Layer_1" xmlns="http://www.w3.org/2000/svg" xmlns:xlink="http://www.w3.org/1999/xlink" viewBox="0 0 1686 882"><defs><style>.cls-1{fill:url(#New_Gradient_Swatch_4);}.cls-1,.cls-2,.cls-3,.cls-4,.cls-5,.cls-6,.cls-7,.cls-8,.cls-9,.cls-10,.cls-11,.cls-12,.cls-13,.cls-14,.cls-15,.cls-16,.cls-17,.cls-18,.cls-19,.cls-20,.cls-21,.cls-22,.cls-23,.cls-24,.cls-25,.cls-26,.cls-27,.cls-28,.cls-29,.cls-30,.cls-31,.cls-32,.cls-33,.cls-34,.cls-35,.cls-36,.cls-37,.cls-38,.cls-39{stroke-width:0px;}.cls-2{fill:url(#New_Gradient_Swatch_3);}.cls-3{fill:url(#New_Gradient_Swatch_3-3);}.cls-4{fill:url(#New_Gradient_Swatch_3-4);}.cls-5{fill:url(#New_Gradient_Swatch_3-9);}.cls-6{fill:url(#New_Gradient_Swatch_3-8);}.cls-7{fill:url(#New_Gradient_Swatch_3-7);}.cls-8{fill:url(#New_Gradient_Swatch_3-6);}.cls-9{fill:url(#New_Gradient_Swatch_3-2);}.cls-10{fill:url(#New_Gradient_Swatch_3-5);}.cls-11{fill:url(#New_Gradient_Swatch_4-3);}.cls-12{fill:url(#New_Gradient_Swatch_4-2);}.cls-40{clip-path:url(#clippath);}.cls-13{fill:none;}.cls-41{clip-path:url(#clippath-1);}.cls-42{clip-path:url(#clippath-2);}.cls-14{fill:url(#New_Gradient_Swatch_3-10);}.cls-43{stroke:#2f363e;stroke-miterlimit:10;}.cls-43,.cls-19{fill:#151b23;}.cls-15{fill:#34383e;}.cls-16{fill:#2f363e;}.cls-17{fill:#18c133;}.cls-18{fill:#0d1116;}.cls-20{fill:#c8c8c8;}.cls-21{fill:#9797fd;}.cls-22{fill:#fe5f58;}.cls-23{fill:#fff;}.cls-24{fill:#ffbd2d;}.cls-25{fill:#00fdd6;}.cls-26{fill:#00fed6;}.cls-27{fill:#00fbd8;}.cls-28{fill:#00f9d9;}.cls-29{fill:#00fad8;}.cls-30{fill:#00f4dc;}.cls-31{fill:#00f7da;}.cls-32{fill:#00f5dc;}.cls-33{fill:#00f6db;}.cls-34{fill:#00f3dd;}.cls-35{fill:#00fcd7;}.cls-36{fill:#00f1de;}.cls-37{fill:#00f8da;}.cls-38{fill:#00ffd5;}.cls-39{fill:#00f2de;}</style><linearGradient id="New_Gradient_Swatch_3" x1="365.3" y1="474.41" x2="723.71" y2="474.41" gradientUnits="userSpaceOnUse"><stop offset="0" stop-color="#00ffd5"/><stop offset="1" stop-color="#00bfff"/></linearGradient><linearGradient id="New_Gradient_Swatch_3-2" x1="365.3" y1="474.66" x2="723.71" y2="474.66" xlink:href="#New_Gradient_Swatch_3"/><linearGradient id="New_Gradient_Swatch_3-3" x1="365.3" x2="723.71" xlink:href="#New_Gradient_Swatch_3"/><linearGradient id="New_Gradient_Swatch_3-4" y1="474.66" x2="723.71" y2="474.66" xlink:href="#New_Gradient_Swatch_3"/><linearGradient id="New_Gradient_Swatch_3-5" x1="365.3" y1="480.32" x2="723.71" y2="480.32" xlink:href="#New_Gradient_Swatch_3"/><linearGradient id="New_Gradient_Swatch_3-6" x1="365.3" y1="474.72" x2="723.71" y2="474.72" xlink:href="#New_Gradient_Swatch_3"/><linearGradient id="New_Gradient_Swatch_3-7" x1="365.3" x2="723.71" xlink:href="#New_Gradient_Swatch_3"/><linearGradient id="New_Gradient_Swatch_3-8" x1="365.3" y1="474.72" x2="723.71" y2="474.72" xlink:href="#New_Gradient_Swatch_3"/><linearGradient id="New_Gradient_Swatch_3-9" x1="365.3" x2="723.71" xlink:href="#New_Gradient_Swatch_3"/><linearGradient id="New_Gradient_Swatch_3-10" x1="365.3" y1="471.46" x2="723.71" y2="471.46" xlink:href="#New_Gradient_Swatch_3"/><linearGradient id="New_Gradient_Swatch_4" x1="163.25" y1="299.44" x2="163.25" y2="258.84" gradientUnits="userSpaceOnUse"><stop offset="0" stop-color="#0afdca"/><stop offset="1" stop-color="#07befd"/></linearGradient><linearGradient id="New_Gradient_Swatch_4-2" x1="155.61" y1="299.44" x2="155.61" y2="258.84" xlink:href="#New_Gradient_Swatch_4"/><linearGradient id="New_Gradient_Swatch_4-3" x1="170.9" y1="299.44" x2="170.9" y2="258.84" xlink:href="#New_Gradient_Swatch_4"/><clipPath id="clippath"><path class="cls-13" d="M904.58,195.41c2.82,0,5.11,2.29,5.11,5.11h5.11c0-5.64-4.57-10.21-10.21-10.21s-10.21,4.57-10.21,10.21h5.11c0-2.82,2.29-5.11,5.11-5.11Z"/></clipPath><clipPath id="clippath-1"><path class="cls-13" d="M899.47,200.52c0,2.82-2.29,5.11-5.11,5.11v5.11c5.64,0,10.21-4.57,10.21-10.21h-5.11Z"/></clipPath><clipPath id="clippath-2"><path class="cls-13" d="M914.79,205.63c-2.82,0-5.11-2.29-5.11-5.11h-5.11c0,5.64,4.57,10.21,10.21,10.21v-5.11Z"/></clipPath></defs><rect class="cls-18" width="1690.31" height="882"/><path class="cls-23" d="M131.6,375.58h8.04l-.18,21.5,18.27-21.5h9.38l-14.37,16.93,14.74,25.7h-9.32l-10.78-19.43-7.86,8.89.12,10.54h-8.04v-42.63Z"/><path class="cls-23" d="M169.05,375.58h20.77c8.65,0,13.95,4.38,13.95,11.69,0,4.75-2.25,8.4-6.33,10.23,3.77,1.22,4.99,4.2,5.12,8.47.12,4.99.37,9.01,1.77,12.24h-8.34c-1.22-2.31-1.34-5.54-1.46-12.36-.06-3.72-1.64-5.24-5.24-5.24h-12.12v17.6h-8.1v-42.63ZM177.15,381.98v12.36h12.06c4.02,0,6.58-2.19,6.58-6.21s-2.56-6.15-6.58-6.15h-12.06Z"/><path class="cls-23" d="M235.91,393.06c-.91-7.73-5.24-11.75-11.02-11.75-6.7,0-11.14,5.3-11.14,15.59s4.45,15.59,11.14,15.59c5.91,0,10.23-4.2,11.02-12.18h7.98c-1.1,12-8.71,18.7-19.12,18.7-11.51,0-19.3-7.86-19.3-22.11s7.86-22.11,19.36-22.11c10.23,0,17.97,6.45,19.06,18.27h-7.98Z"/><path class="cls-23" d="M246.01,412.42c6.64-5.85,11.39-10.05,14.86-13.28,7.43-6.82,8.59-9.07,8.59-12.24s-2.68-5.85-7-5.85c-4.93,0-8.22,3.05-9.5,9.13h-7.67c1.52-9.93,7.61-15.35,17.54-15.41,8.34,0,14.68,4.87,14.68,11.57,0,4.08-1.28,7.98-10.35,15.71-3.05,2.62-6.58,5.79-11.33,10.05l21.92-.24v6.33h-31.73v-5.79Z"/><path class="cls-23" d="M279.75,396.9c0-13.52,7.25-22.11,18.7-22.11s18.57,8.59,18.57,22.11-7.13,22.11-18.57,22.11-18.7-8.59-18.7-22.11ZM308.86,396.9c0-10.17-3.9-15.77-10.41-15.77s-10.6,5.6-10.6,15.77,3.96,15.77,10.6,15.77,10.41-5.6,10.41-15.77Z"/><path class="cls-23" d="M344.6,382.04h-14.55v-6.45h37.27v6.45h-14.61v36.17h-8.1v-36.17Z"/><path class="cls-23" d="M363.17,401.71c0-10.96,6.58-17.42,16.26-17.42s16.32,6.46,16.32,17.42-6.52,17.29-16.32,17.29-16.26-6.45-16.26-17.29ZM387.96,401.65c0-7.61-3.35-11.63-8.53-11.63s-8.46,4.02-8.46,11.63,3.35,11.63,8.46,11.63,8.53-3.96,8.53-11.63Z"/><path class="cls-23" d="M398.55,375.58h7.67l-.12,25.27,13.7-15.71h8.71l-11.39,12.91,12.06,20.16h-8.89l-8.28-14.31-5.91,6.7.12,7.61h-7.67v-42.63Z"/><path class="cls-23" d="M426.92,401.71c0-10.72,6.58-17.42,16.02-17.42,8.95,0,15.65,6.33,15.65,17.54v.61h-23.99c.24,7.12,3.41,10.96,8.34,10.96,4.02,0,6.82-2.56,7.92-7.55h7.37c-1.46,8.28-7.06,13.15-15.35,13.15-9.5,0-15.96-6.52-15.96-17.29ZM434.9,397.81h15.89c-1.04-5.18-3.9-7.92-7.92-7.92s-7,2.8-7.98,7.92Z"/><path class="cls-23" d="M461.39,385.14h7.79v3.84c2.31-2.8,5.72-4.51,9.87-4.51,7.06,0,11.69,4.45,11.69,11.2v22.53h-7.73v-21.31c0-4.32-2.68-6.64-6.7-6.64-2.98,0-5.6,1.4-7.12,3.53v24.42h-7.79v-33.07Z"/><path class="cls-23" d="M505.84,409.81c0-6.52,6.82-8.71,13.82-10.84,5.18-1.58,7.67-2.8,7.67-5.24s-2.07-3.84-5.84-3.84c-4.26,0-7.07,2.44-7.79,6.52h-7.19c.97-7.12,6.82-12,15.16-12s13.34,3.96,13.34,11.33v22.47h-7.67v-3.71c-2.5,2.74-6.21,4.26-10.41,4.26-6.82,0-11.08-3.53-11.08-8.95ZM518.93,413.52c3.17,0,6.46-1.28,8.4-3.47v-9.13c-1.4,1.16-3.59,1.89-6.09,2.74-4.45,1.46-7.79,2.62-7.79,5.91,0,2.56,2.13,3.96,5.48,3.96Z"/><path class="cls-23" d="M538.48,385.14h7.79v3.84c2.31-2.8,5.72-4.51,9.87-4.51,7.06,0,11.69,4.45,11.69,11.2v22.53h-7.73v-21.31c0-4.32-2.68-6.64-6.7-6.64-2.98,0-5.6,1.4-7.12,3.53v24.42h-7.79v-33.07Z"/><path class="cls-23" d="M570.57,401.71c0-10.54,5.79-17.23,14.31-17.23,4.51,0,8.22,2.13,10.6,5.97v-14.86h7.79v42.63h-7.79v-5.24c-2.38,3.84-6.09,5.91-10.6,5.91-8.59,0-14.31-6.52-14.31-17.17ZM595.47,401.71c0-7.61-3.41-11.63-8.65-11.63s-8.46,4.02-8.46,11.57,3.29,11.63,8.46,11.63,8.65-4.02,8.65-11.57Z"/><path class="cls-23" d="M130.62,482.88c0-6.52,6.82-8.71,13.82-10.84,5.18-1.58,7.67-2.8,7.67-5.24s-2.07-3.84-5.85-3.84c-4.26,0-7.06,2.44-7.79,6.52h-7.19c.97-7.12,6.82-12,15.16-12s13.34,3.96,13.34,11.33v22.47h-7.67v-3.72c-2.5,2.74-6.21,4.26-10.41,4.26-6.82,0-11.08-3.53-11.08-8.95ZM143.72,486.59c3.17,0,6.45-1.28,8.4-3.47v-9.14c-1.4,1.16-3.59,1.89-6.09,2.74-4.45,1.46-7.79,2.62-7.79,5.91,0,2.56,2.13,3.96,5.48,3.96Z"/><path class="cls-23" d="M162.53,474.78c0-10.96,6.52-17.42,16.08-17.42,8.4,0,14.43,5.12,15.53,14.07h-7.43c-.85-5.48-3.84-8.34-8.1-8.34-4.99,0-8.28,4.02-8.28,11.63s3.29,11.63,8.28,11.63c4.38,0,7.43-3.05,8.16-8.83h7.37c-.91,9.26-6.88,14.56-15.53,14.56-9.62,0-16.08-6.4-16.08-17.3Z"/><path class="cls-23" d="M196.39,474.78c0-10.96,6.52-17.42,16.08-17.42,8.4,0,14.43,5.12,15.53,14.07h-7.43c-.85-5.48-3.84-8.34-8.1-8.34-4.99,0-8.28,4.02-8.28,11.63s3.29,11.63,8.28,11.63c4.38,0,7.43-3.05,8.16-8.83h7.37c-.91,9.26-6.88,14.56-15.53,14.56-9.62,0-16.08-6.4-16.08-17.3Z"/><path class="cls-23" d="M230.24,474.78c0-10.96,6.58-17.42,16.26-17.42s16.32,6.45,16.32,17.42-6.52,17.3-16.32,17.3-16.26-6.46-16.26-17.3ZM255.03,474.72c0-7.61-3.35-11.63-8.53-11.63s-8.46,4.02-8.46,11.63,3.35,11.63,8.46,11.63,8.53-3.96,8.53-11.63Z"/><path class="cls-23" d="M265.5,480.75v-22.53h7.79v21.31c0,4.32,2.68,6.7,6.7,6.7,2.98,0,5.6-1.46,7.13-3.59v-24.42h7.79v33.07h-7.79v-3.9c-2.31,2.8-5.79,4.57-9.87,4.57-7.12,0-11.75-4.45-11.75-11.2Z"/><path class="cls-23" d="M298.38,458.21h7.79v3.84c2.31-2.8,5.72-4.51,9.87-4.51,7.06,0,11.69,4.45,11.69,11.21v22.53h-7.73v-21.31c0-4.32-2.68-6.64-6.7-6.64-2.98,0-5.6,1.4-7.12,3.53v24.42h-7.79v-33.07Z"/><path class="cls-23" d="M336.8,483.73v-19.79h-7.79v-5.72h7.79v-6.58h7.67v6.58h9.68v5.72h-9.68v18.39c0,2.19,1.16,3.17,3.84,3.17h5.85v5.79h-9.44c-5.36,0-7.92-2.68-7.92-7.55Z"/><path class="cls-2" d="M369.2,458.21h7.79v3.96c2.19-2.86,5.54-4.63,9.56-4.63,4.32,0,7.67,1.89,9.44,5.12,2.37-3.11,6.09-5.12,10.6-5.12,6.82,0,11.27,4.45,11.27,11.21v22.53h-7.73v-21.56c0-4.2-2.56-6.39-6.33-6.39-2.68,0-4.93,1.22-6.52,3.05.12.73.18,1.52.18,2.37v22.53h-7.79v-21.56c0-4.2-2.44-6.39-6.03-6.39-2.8,0-5.18,1.34-6.64,3.35v24.6h-7.79v-33.07Z"/><path class="cls-9" d="M420.47,482.88c0-6.52,6.82-8.71,13.82-10.84,5.18-1.58,7.67-2.8,7.67-5.24s-2.07-3.84-5.85-3.84c-4.26,0-7.06,2.44-7.79,6.52h-7.19c.97-7.12,6.82-12,15.16-12s13.34,3.96,13.34,11.33v22.47h-7.67v-3.72c-2.5,2.74-6.21,4.26-10.41,4.26-6.82,0-11.08-3.53-11.08-8.95ZM433.56,486.59c3.17,0,6.45-1.28,8.4-3.47v-9.14c-1.4,1.16-3.59,1.89-6.09,2.74-4.45,1.46-7.79,2.62-7.79,5.91,0,2.56,2.13,3.96,5.48,3.96Z"/><path class="cls-3" d="M453.11,458.21h7.79v3.84c2.31-2.8,5.72-4.51,9.87-4.51,7.06,0,11.69,4.45,11.69,11.21v22.53h-7.73v-21.31c0-4.32-2.68-6.64-6.7-6.64-2.98,0-5.6,1.4-7.12,3.53v24.42h-7.79v-33.07Z"/><path class="cls-4" d="M485.07,482.88c0-6.52,6.82-8.71,13.82-10.84,5.18-1.58,7.67-2.8,7.67-5.24s-2.07-3.84-5.84-3.84c-4.26,0-7.07,2.44-7.79,6.52h-7.19c.97-7.12,6.82-12,15.16-12s13.34,3.96,13.34,11.33v22.47h-7.67v-3.72c-2.5,2.74-6.21,4.26-10.41,4.26-6.82,0-11.08-3.53-11.08-8.95ZM498.17,486.59c3.17,0,6.46-1.28,8.4-3.47v-9.14c-1.4,1.16-3.59,1.89-6.09,2.74-4.45,1.46-7.79,2.62-7.79,5.91,0,2.56,2.13,3.96,5.48,3.96Z"/><path class="cls-10" d="M516.98,474.53c0-10.41,5.79-16.99,14.31-16.99,4.51,0,8.22,2.07,10.6,5.85v-5.18h7.79v31.48c0,8.89-6.21,13.4-16.08,13.4-8.53,0-14.31-3.47-15.71-9.87h7.67c.97,3.29,3.59,4.87,8.1,4.87,5.05,0,8.22-2.44,8.22-7.31v-5.12c-2.38,3.78-6.09,5.85-10.6,5.85-8.59,0-14.31-6.45-14.31-16.99ZM541.89,474.53c0-7.49-3.41-11.39-8.65-11.39s-8.46,3.9-8.46,11.39,3.29,11.39,8.46,11.39,8.65-3.96,8.65-11.39Z"/><path class="cls-8" d="M552.48,474.78c0-10.72,6.58-17.42,16.02-17.42,8.95,0,15.65,6.33,15.65,17.54v.61h-23.99c.24,7.13,3.41,10.96,8.34,10.96,4.02,0,6.82-2.56,7.92-7.55h7.37c-1.46,8.28-7.06,13.15-15.35,13.15-9.5,0-15.96-6.52-15.96-17.3ZM560.46,470.88h15.89c-1.04-5.18-3.9-7.92-7.92-7.92s-7,2.8-7.98,7.92Z"/><path class="cls-7" d="M586.94,458.21h7.79v3.96c2.19-2.86,5.54-4.63,9.56-4.63,4.32,0,7.67,1.89,9.44,5.12,2.37-3.11,6.09-5.12,10.6-5.12,6.82,0,11.27,4.45,11.27,11.21v22.53h-7.73v-21.56c0-4.2-2.56-6.39-6.33-6.39-2.68,0-4.93,1.22-6.52,3.05.12.73.18,1.52.18,2.37v22.53h-7.79v-21.56c0-4.2-2.44-6.39-6.03-6.39-2.8,0-5.18,1.34-6.64,3.35v24.6h-7.79v-33.07Z"/><path class="cls-6" d="M638.34,474.78c0-10.72,6.58-17.42,16.02-17.42,8.95,0,15.65,6.33,15.65,17.54v.61h-23.99c.24,7.13,3.41,10.96,8.34,10.96,4.02,0,6.82-2.56,7.92-7.55h7.37c-1.46,8.28-7.06,13.15-15.35,13.15-9.5,0-15.96-6.52-15.96-17.3ZM646.31,470.88h15.89c-1.04-5.18-3.9-7.92-7.92-7.92s-7,2.8-7.98,7.92Z"/><path class="cls-5" d="M672.8,458.21h7.79v3.84c2.31-2.8,5.72-4.51,9.87-4.51,7.06,0,11.69,4.45,11.69,11.21v22.53h-7.73v-21.31c0-4.32-2.68-6.64-6.7-6.64-2.98,0-5.6,1.4-7.12,3.53v24.42h-7.79v-33.07Z"/><path class="cls-14" d="M711.23,483.73v-19.79h-7.79v-5.72h7.79v-6.58h7.67v6.58h9.68v5.72h-9.68v18.39c0,2.19,1.16,3.17,3.84,3.17h5.85v5.79h-9.44c-5.36,0-7.92-2.68-7.92-7.55Z"/><path class="cls-20" d="M132.95,569.98h6.65c3.12,0,5.38.47,6.78,1.4,1.4.93,2.09,2.41,2.09,4.43,0,1.4-.39,2.55-1.17,3.46s-1.91,1.5-3.41,1.76v.16c3.58.61,5.36,2.49,5.36,5.64,0,2.1-.71,3.75-2.13,4.93-1.42,1.18-3.41,1.77-5.97,1.77h-8.21v-23.55ZM135.69,580.06h4.51c1.93,0,3.32-.3,4.17-.91s1.27-1.63,1.27-3.07c0-1.32-.47-2.27-1.42-2.86-.94-.58-2.45-.88-4.51-.88h-4.03v7.71ZM135.69,582.38v8.81h4.91c1.9,0,3.33-.37,4.29-1.1s1.44-1.89,1.44-3.45c0-1.46-.49-2.53-1.47-3.22-.98-.69-2.48-1.03-4.49-1.03h-4.69Z"/><path class="cls-20" d="M157.25,575.87v11.45c0,1.44.33,2.51.98,3.22s1.68,1.06,3.08,1.06c1.85,0,3.2-.5,4.05-1.51.85-1.01,1.28-2.66,1.28-4.94v-9.28h2.67v17.65h-2.21l-.39-2.37h-.15c-.55.87-1.31,1.54-2.28,2-.97.46-2.08.69-3.33.69-2.15,0-3.76-.51-4.82-1.53-1.07-1.02-1.6-2.65-1.6-4.9v-11.55h2.71Z"/><path class="cls-20" d="M175.59,571.09c0-.61.15-1.06.45-1.34.3-.28.68-.43,1.13-.43s.8.14,1.11.43c.31.29.47.74.47,1.34s-.16,1.05-.47,1.34c-.31.3-.68.44-1.11.44-.45,0-.83-.15-1.13-.44-.3-.29-.45-.74-.45-1.34ZM178.48,593.53h-2.67v-17.65h2.67v17.65Z"/><path class="cls-20" d="M187.65,593.53h-2.67v-25.06h2.67v25.06Z"/><path class="cls-20" d="M206.16,591.16h-.15c-1.23,1.79-3.08,2.69-5.54,2.69-2.31,0-4.1-.79-5.39-2.37-1.28-1.58-1.92-3.82-1.92-6.73s.64-5.17,1.93-6.78,3.08-2.42,5.38-2.42,4.23.87,5.51,2.61h.21l-.11-1.27-.06-1.24v-7.18h2.67v25.06h-2.17l-.35-2.37ZM200.81,591.61c1.83,0,3.15-.5,3.97-1.49s1.23-2.6,1.23-4.81v-.56c0-2.5-.42-4.29-1.25-5.35-.83-1.07-2.16-1.6-3.99-1.6-1.57,0-2.77.61-3.6,1.83-.83,1.22-1.25,2.94-1.25,5.16s.41,3.96,1.24,5.11c.83,1.15,2.04,1.72,3.64,1.72Z"/><path class="cls-20" d="M221.77,575.87h2.87l3.87,10.07c.85,2.3,1.37,3.96,1.58,4.98h.13c.14-.55.43-1.48.88-2.81.45-1.33,1.9-5.4,4.37-12.23h2.87l-7.59,20.1c-.75,1.99-1.63,3.4-2.63,4.23s-2.24,1.25-3.7,1.25c-.82,0-1.62-.09-2.42-.27v-2.14c.59.13,1.25.19,1.98.19,1.84,0,3.15-1.03,3.93-3.09l.98-2.51-7.12-17.75Z"/><path class="cls-20" d="M257.25,584.68c0,2.88-.72,5.12-2.17,6.74-1.45,1.62-3.45,2.42-6.01,2.42-1.58,0-2.98-.37-4.2-1.11s-2.17-1.8-2.83-3.19c-.67-1.39-1-3.01-1-4.86,0-2.88.72-5.12,2.16-6.72,1.44-1.61,3.44-2.41,5.99-2.41s4.43.82,5.89,2.46c1.46,1.64,2.18,3.87,2.18,6.67ZM243.81,584.68c0,2.25.45,3.97,1.35,5.15.9,1.18,2.23,1.77,3.98,1.77s3.08-.59,3.99-1.76,1.36-2.9,1.36-5.16-.45-3.95-1.36-5.11-2.25-1.75-4.02-1.75-3.07.57-3.96,1.72c-.89,1.15-1.34,2.86-1.34,5.14Z"/><path class="cls-20" d="M265.28,575.87v11.45c0,1.44.33,2.51.98,3.22s1.68,1.06,3.08,1.06c1.85,0,3.2-.5,4.05-1.51.85-1.01,1.28-2.66,1.28-4.94v-9.28h2.67v17.65h-2.21l-.39-2.37h-.15c-.55.87-1.31,1.54-2.28,2-.97.46-2.08.69-3.33.69-2.15,0-3.76-.51-4.82-1.53-1.07-1.02-1.6-2.65-1.6-4.9v-11.55h2.71Z"/><path class="cls-20" d="M291.89,575.55c.78,0,1.49.06,2.11.19l-.37,2.48c-.73-.16-1.37-.24-1.93-.24-1.43,0-2.65.58-3.66,1.74-1.01,1.16-1.52,2.6-1.52,4.33v9.47h-2.67v-17.65h2.21l.31,3.27h.13c.65-1.15,1.44-2.03,2.37-2.66s1.94-.93,3.04-.93Z"/><path class="cls-20" d="M322.75,584.68c0,2.88-.72,5.12-2.17,6.74-1.45,1.62-3.45,2.42-6.01,2.42-1.58,0-2.98-.37-4.2-1.11s-2.17-1.8-2.83-3.19c-.67-1.39-1-3.01-1-4.86,0-2.88.72-5.12,2.16-6.72,1.44-1.61,3.44-2.41,5.99-2.41s4.43.82,5.89,2.46c1.46,1.64,2.18,3.87,2.18,6.67ZM309.3,584.68c0,2.25.45,3.97,1.35,5.15.9,1.18,2.23,1.77,3.98,1.77s3.08-.59,3.99-1.76,1.36-2.9,1.36-5.16-.45-3.95-1.36-5.11-2.25-1.75-4.02-1.75-3.07.57-3.96,1.72c-.89,1.15-1.34,2.86-1.34,5.14Z"/><path class="cls-20" d="M342.68,593.53l-3.24-10.36c-.2-.63-.59-2.07-1.14-4.32h-.13c-.43,1.88-.81,3.33-1.13,4.35l-3.33,10.32h-3.09l-4.82-17.65h2.8c1.14,4.43,2,7.81,2.6,10.13.6,2.32.94,3.88,1.02,4.69h.13c.12-.61.31-1.4.57-2.38.26-.97.49-1.74.68-2.31l3.24-10.13h2.9l3.16,10.13c.6,1.85,1.01,3.4,1.22,4.65h.13c.04-.39.16-.98.35-1.79.19-.81,1.31-5.14,3.36-13h2.77l-4.88,17.65h-3.17Z"/><path class="cls-20" d="M366.82,593.53v-11.42c0-1.44-.33-2.51-.98-3.22-.66-.71-1.68-1.06-3.08-1.06-1.85,0-3.2.5-4.06,1.5-.86,1-1.29,2.65-1.29,4.94v9.26h-2.67v-17.65h2.17l.43,2.42h.13c.55-.87,1.32-1.54,2.3-2.02s2.09-.72,3.3-.72c2.13,0,3.73.51,4.8,1.54,1.07,1.03,1.61,2.67,1.61,4.92v11.52h-2.67Z"/><path class="cls-20" d="M398.73,593.53h-13.13v-23.55h13.13v2.43h-10.39v7.59h9.76v2.42h-9.76v8.66h10.39v2.45Z"/><path class="cls-20" d="M407.51,583.73v9.79h-2.74v-23.55h6.46c2.89,0,5.02.55,6.4,1.66,1.38,1.11,2.07,2.77,2.07,4.99,0,3.11-1.58,5.22-4.73,6.31l6.39,10.58h-3.24l-5.7-9.79h-4.91ZM407.51,581.38h3.75c1.93,0,3.35-.38,4.25-1.15s1.35-1.92,1.35-3.45-.46-2.68-1.38-3.37-2.39-1.03-4.42-1.03h-3.56v9Z"/><path class="cls-20" d="M436.07,572.09c-2.59,0-4.63.86-6.13,2.58-1.5,1.72-2.25,4.08-2.25,7.08s.72,5.46,2.17,7.14c1.44,1.68,3.5,2.52,6.18,2.52,1.64,0,3.52-.3,5.62-.89v2.4c-1.63.61-3.65.92-6.04.92-3.47,0-6.14-1.05-8.03-3.16-1.88-2.1-2.83-5.09-2.83-8.97,0-2.43.45-4.55,1.36-6.38s2.22-3.23,3.93-4.22c1.71-.99,3.73-1.48,6.05-1.48,2.47,0,4.63.45,6.47,1.35l-1.16,2.35c-1.78-.84-3.56-1.26-5.35-1.26Z"/><path class="cls-20" d="M461.47,593.53h-15.48v-2.3l6.2-6.23c1.89-1.91,3.13-3.27,3.74-4.09.6-.82,1.05-1.61,1.35-2.38.3-.77.45-1.61.45-2.5,0-1.26-.38-2.25-1.14-2.99-.76-.74-1.82-1.1-3.17-1.1-.98,0-1.9.16-2.78.48-.88.32-1.85.91-2.92,1.76l-1.42-1.82c2.17-1.8,4.53-2.71,7.09-2.71,2.21,0,3.95.57,5.2,1.7,1.26,1.13,1.88,2.65,1.88,4.57,0,1.49-.42,2.97-1.26,4.43-.84,1.46-2.41,3.31-4.7,5.54l-5.15,5.04v.13h12.11v2.48Z"/><path class="cls-20" d="M481.28,581.72c0,4.07-.64,7.11-1.92,9.12-1.28,2.01-3.25,3.01-5.89,3.01s-4.46-1.03-5.78-3.08c-1.32-2.06-1.98-5.07-1.98-9.04s.64-7.15,1.92-9.13,3.23-2.98,5.85-2.98,4.5,1.04,5.82,3.11c1.33,2.07,1.99,5.07,1.99,9ZM468.42,581.72c0,3.42.4,5.92,1.21,7.48s2.09,2.34,3.85,2.34,3.07-.79,3.87-2.38,1.2-4.07,1.2-7.45-.4-5.86-1.2-7.43c-.8-1.57-2.09-2.36-3.87-2.36s-3.04.78-3.85,2.33-1.21,4.04-1.21,7.46Z"/><path class="cls-20" d="M485.1,585.91v-2.45h7.91v2.45h-7.91Z"/><path class="cls-20" d="M500.7,593.53h-2.67v-25.06h2.67v25.06Z"/><path class="cls-20" d="M506.97,571.09c0-.61.15-1.06.45-1.34.3-.28.68-.43,1.13-.43s.8.14,1.11.43c.31.29.47.74.47,1.34s-.16,1.05-.47,1.34c-.31.3-.68.44-1.11.44-.45,0-.83-.15-1.13-.44-.3-.29-.45-.74-.45-1.34ZM509.86,593.53h-2.67v-17.65h2.67v17.65Z"/><path class="cls-20" d="M519,584.49c.46-.65,1.17-1.51,2.11-2.58l5.7-6.04h3.17l-7.15,7.52,7.65,10.13h-3.24l-6.23-8.34-2.01,1.74v6.6h-2.64v-25.06h2.64v13.29c0,.59-.04,1.5-.13,2.74h.13Z"/><path class="cls-20" d="M541.95,593.85c-2.61,0-4.67-.79-6.18-2.38s-2.26-3.79-2.26-6.62.7-5.11,2.1-6.78c1.4-1.67,3.28-2.51,5.65-2.51,2.21,0,3.96.73,5.25,2.18,1.29,1.46,1.93,3.37,1.93,5.76v1.69h-12.16c.05,2.07.58,3.65,1.57,4.72.99,1.07,2.39,1.61,4.2,1.61,1.9,0,3.78-.4,5.64-1.19v2.38c-.95.41-1.84.7-2.68.88-.84.18-1.86.27-3.05.27ZM541.23,577.79c-1.42,0-2.55.46-3.39,1.38s-1.34,2.2-1.49,3.83h9.23c0-1.69-.38-2.98-1.13-3.87-.75-.9-1.83-1.34-3.22-1.34Z"/><path class="cls-20" d="M138.25,637.31c.47,0,.93-.03,1.37-.1.44-.07.79-.14,1.05-.22v2.04c-.29.14-.72.25-1.28.35-.56.09-1.07.14-1.52.14-3.41,0-5.12-1.8-5.12-5.4v-10.5h-2.53v-1.29l2.53-1.11,1.13-3.77h1.55v4.09h5.12v2.08h-5.12v10.39c0,1.06.25,1.88.76,2.45.5.57,1.2.85,2.08.85Z"/><path class="cls-20" d="M160.25,630.35c0,2.88-.72,5.12-2.17,6.74-1.45,1.62-3.45,2.42-6.01,2.42-1.58,0-2.98-.37-4.2-1.11s-2.17-1.8-2.83-3.19c-.67-1.39-1-3.01-1-4.86,0-2.88.72-5.12,2.16-6.72,1.44-1.61,3.44-2.41,5.99-2.41s4.43.82,5.89,2.46c1.46,1.64,2.18,3.87,2.18,6.67ZM146.8,630.35c0,2.25.45,3.97,1.35,5.15.9,1.18,2.23,1.77,3.98,1.77s3.08-.59,3.99-1.76,1.36-2.9,1.36-5.16-.45-3.95-1.36-5.11-2.25-1.75-4.02-1.75-3.07.57-3.96,1.72c-.89,1.15-1.34,2.86-1.34,5.14Z"/><path class="cls-20" d="M168.4,630.16c.46-.65,1.17-1.51,2.11-2.58l5.7-6.04h3.17l-7.15,7.52,7.65,10.13h-3.24l-6.23-8.34-2.01,1.74v6.6h-2.64v-25.06h2.64v13.29c0,.59-.04,1.5-.13,2.74h.13Z"/><path class="cls-20" d="M191.36,639.52c-2.61,0-4.67-.79-6.18-2.38s-2.26-3.79-2.26-6.62.7-5.11,2.1-6.78c1.4-1.67,3.28-2.51,5.65-2.51,2.21,0,3.96.73,5.25,2.18,1.29,1.46,1.93,3.37,1.93,5.76v1.69h-12.16c.05,2.07.58,3.65,1.57,4.72.99,1.07,2.39,1.61,4.2,1.61,1.9,0,3.78-.4,5.64-1.19v2.38c-.95.41-1.84.7-2.68.88-.84.18-1.86.27-3.05.27ZM190.63,623.46c-1.42,0-2.55.46-3.39,1.38s-1.34,2.2-1.49,3.83h9.23c0-1.69-.38-2.98-1.13-3.87-.75-.9-1.83-1.34-3.22-1.34Z"/><path class="cls-20" d="M215.31,639.19v-11.42c0-1.44-.33-2.51-.98-3.22-.66-.71-1.68-1.06-3.08-1.06-1.85,0-3.2.5-4.06,1.5-.86,1-1.29,2.65-1.29,4.94v9.26h-2.67v-17.65h2.17l.43,2.42h.13c.55-.87,1.32-1.54,2.3-2.02s2.09-.72,3.3-.72c2.13,0,3.73.51,4.8,1.54,1.07,1.03,1.61,2.67,1.61,4.92v11.52h-2.67Z"/><path class="cls-20" d="M248.93,630.35c0,2.88-.72,5.12-2.17,6.74-1.45,1.62-3.45,2.42-6.01,2.42-1.58,0-2.98-.37-4.2-1.11s-2.17-1.8-2.83-3.19c-.67-1.39-1-3.01-1-4.86,0-2.88.72-5.12,2.16-6.72,1.44-1.61,3.44-2.41,5.99-2.41s4.43.82,5.89,2.46c1.46,1.64,2.18,3.87,2.18,6.67ZM235.48,630.35c0,2.25.45,3.97,1.35,5.15.9,1.18,2.23,1.77,3.98,1.77s3.08-.59,3.99-1.76,1.36-2.9,1.36-5.16-.45-3.95-1.36-5.11-2.25-1.75-4.02-1.75-3.07.57-3.96,1.72c-.89,1.15-1.34,2.86-1.34,5.14Z"/><path class="cls-20" d="M266.52,639.19v-11.42c0-1.44-.33-2.51-.98-3.22-.66-.71-1.68-1.06-3.08-1.06-1.85,0-3.2.5-4.06,1.5-.86,1-1.29,2.65-1.29,4.94v9.26h-2.67v-17.65h2.17l.43,2.42h.13c.55-.87,1.32-1.54,2.3-2.02s2.09-.72,3.3-.72c2.13,0,3.73.51,4.8,1.54,1.07,1.03,1.61,2.67,1.61,4.92v11.52h-2.67Z"/><path class="cls-20" d="M302.31,639.19h-3.22l-8.58-11.42-2.46,2.19v9.23h-2.74v-23.55h2.74v11.68l10.68-11.68h3.24l-9.47,10.23,9.82,13.32Z"/><path class="cls-20" d="M308.64,639.19h-2.67v-25.06h2.67v25.06Z"/><path class="cls-20" d="M325.99,639.19l-.53-2.51h-.13c-.88,1.11-1.76,1.86-2.63,2.25-.88.39-1.97.59-3.28.59-1.75,0-3.12-.45-4.12-1.35-.99-.9-1.49-2.19-1.49-3.85,0-3.56,2.85-5.43,8.55-5.6l3-.1v-1.1c0-1.38-.3-2.41-.89-3.07s-1.55-.99-2.86-.99c-1.47,0-3.14.45-4.99,1.35l-.82-2.05c.87-.47,1.82-.84,2.86-1.11,1.04-.27,2.07-.4,3.12-.4,2.1,0,3.66.47,4.68,1.4s1.52,2.43,1.52,4.49v12.05h-1.98ZM319.95,637.31c1.66,0,2.97-.46,3.92-1.37.95-.91,1.43-2.19,1.43-3.83v-1.59l-2.67.11c-2.13.08-3.66.41-4.6.99-.94.58-1.41,1.5-1.41,2.73,0,.97.29,1.7.88,2.21.58.5,1.4.76,2.46.76Z"/><path class="cls-20" d="M338.17,639.19l-6.7-17.65h2.87l3.8,10.47c.86,2.45,1.36,4.04,1.51,4.77h.13c.12-.57.49-1.75,1.12-3.54.63-1.79,2.04-5.69,4.23-11.7h2.87l-6.7,17.65h-3.12Z"/><path class="cls-20" d="M359.11,639.52c-2.61,0-4.67-.79-6.18-2.38s-2.26-3.79-2.26-6.62.7-5.11,2.1-6.78c1.4-1.67,3.28-2.51,5.65-2.51,2.21,0,3.96.73,5.25,2.18,1.29,1.46,1.93,3.37,1.93,5.76v1.69h-12.16c.05,2.07.58,3.65,1.57,4.72.99,1.07,2.39,1.61,4.2,1.61,1.9,0,3.78-.4,5.64-1.19v2.38c-.95.41-1.84.7-2.68.88-.84.18-1.86.27-3.05.27ZM358.38,623.46c-1.42,0-2.55.46-3.39,1.38s-1.34,2.2-1.49,3.83h9.23c0-1.69-.38-2.98-1.13-3.87-.75-.9-1.83-1.34-3.22-1.34Z"/><path class="cls-20" d="M370.59,637.49c0-.72.16-1.26.49-1.63s.8-.56,1.41-.56,1.11.19,1.46.56c.35.37.52.92.52,1.63s-.18,1.23-.53,1.61-.84.56-1.45.56c-.55,0-1-.17-1.36-.51-.36-.34-.54-.89-.54-1.67Z"/><rect class="cls-43" x="129.71" y="242.34" width="67.08" height="67.08" rx="11" ry="11"/><path class="cls-1" d="M163.25,268.24c4.22,0,7.64,3.42,7.64,7.64h7.64c0-8.44-6.85-15.29-15.29-15.29s-15.29,6.85-15.29,15.29h7.64c0-4.22,3.42-7.64,7.64-7.64Z"/><path class="cls-12" d="M155.61,275.89c0,4.22-3.42,7.64-7.64,7.64v7.64c8.44,0,15.29-6.85,15.29-15.29h-7.64Z"/><path class="cls-11" d="M178.54,283.53c-4.22,0-7.64-3.42-7.64-7.64h-7.64c0,8.44,6.85,15.29,15.29,15.29v-7.64Z"/><path class="cls-18" d="M1550.28,689.28h-442.51V217.58h452.11v462.11c0,5.3-4.29,9.59-9.59,9.59Z"/><path class="cls-16" d="M1550.27,690.01h-443.24V216.85h453.57v462.84c0,5.69-4.63,10.32-10.32,10.32ZM1108.49,688.55h441.78c4.89,0,8.86-3.97,8.86-8.86V218.31h-450.64v470.24Z"/><path class="cls-19" d="M1107.76,689.28h-224.93c-5.3,0-9.59-4.29-9.59-9.59V235.84h234.52v453.44Z"/><path class="cls-16" d="M1108.49,690.01h-225.66c-5.69,0-10.32-4.63-10.32-10.32V235.11h235.98v454.9ZM873.97,236.57v443.12c0,4.89,3.97,8.86,8.86,8.86h224.2V236.57h-233.06Z"/><rect class="cls-16" x="1107.46" y="235.84" width=".59" height="453.44"/><path class="cls-19" d="M873.24,235.84v-62.8c0-5.3,4.29-9.59,9.59-9.59h667.44c5.3,0,9.59,4.29,9.59,9.59v62.8h-686.63Z"/><path class="cls-16" d="M1560.6,236.57h-688.09v-63.53c0-5.69,4.63-10.32,10.32-10.32h667.44c5.69,0,10.32,4.63,10.32,10.32v63.53ZM873.97,235.11h685.16v-62.06c0-4.89-3.98-8.86-8.86-8.86h-667.44c-4.89,0-8.86,3.97-8.86,8.86v62.06Z"/><g class="cls-40"><rect class="cls-26" x="894.36" y="190.31" width="1.41" height="10.21"/><rect class="cls-25" x="895.78" y="190.31" width="1.58" height="10.21"/><rect class="cls-35" x="897.35" y="190.31" width="1.58" height="10.21"/><rect class="cls-27" x="898.93" y="190.31" width="1.58" height="10.21"/><rect class="cls-29" x="900.5" y="190.31" width="1.58" height="10.21"/><rect class="cls-28" x="902.08" y="190.31" width="1.58" height="10.21"/><rect class="cls-37" x="903.66" y="190.31" width="1.58" height="10.21"/><rect class="cls-31" x="905.23" y="190.31" width="1.58" height="10.21"/><rect class="cls-33" x="906.81" y="190.31" width="1.58" height="10.21"/><rect class="cls-32" x="908.39" y="190.31" width="1.58" height="10.21"/><rect class="cls-30" x="909.96" y="190.31" width="1.58" height="10.21"/><rect class="cls-34" x="911.54" y="190.31" width="1.58" height="10.21"/><rect class="cls-39" x="913.11" y="190.31" width="1.58" height="10.21"/><rect class="cls-36" x="914.69" y="190.31" width=".1" height="10.21"/></g><g class="cls-41"><rect class="cls-26" x="894.36" y="200.52" width="1.41" height="10.21"/><rect class="cls-25" x="895.78" y="200.52" width="1.58" height="10.21"/><rect class="cls-35" x="897.35" y="200.52" width="1.58" height="10.21"/><rect class="cls-27" x="898.93" y="200.52" width="1.58" height="10.21"/><rect class="cls-29" x="900.5" y="200.52" width="1.58" height="10.21"/><rect class="cls-28" x="902.08" y="200.52" width="1.58" height="10.21"/><rect class="cls-37" x="903.66" y="200.52" width=".92" height="10.21"/></g><g class="cls-42"><rect class="cls-37" x="904.58" y="200.52" width=".66" height="10.21"/><rect class="cls-31" x="905.23" y="200.52" width="1.58" height="10.21"/><rect class="cls-33" x="906.81" y="200.52" width="1.58" height="10.21"/><rect class="cls-32" x="908.39" y="200.52" width="1.58" height="10.21"/><rect class="cls-30" x="909.96" y="200.52" width="1.58" height="10.21"/><rect class="cls-34" x="911.54" y="200.52" width="1.58" height="10.21"/><rect class="cls-39" x="913.11" y="200.52" width="1.58" height="10.21"/><rect class="cls-36" x="914.69" y="200.52" width=".1" height="10.21"/></g><rect class="cls-15" x="894.36" y="266.18" width="192.35" height="28.44"/><rect class="cls-15" x="894.36" y="354.15" width="192.35" height="18.87"/><rect class="cls-15" x="894.36" y="389.57" width="192.35" height="18.87"/><rect class="cls-15" x="894.36" y="425" width="192.35" height="18.87"/><rect class="cls-15" x="894.36" y="460.42" width="192.35" height="18.87"/><rect class="cls-15" x="894.36" y="495.84" width="192.35" height="18.87"/><circle class="cls-22" cx="1508.48" cy="190.31" r="3.35"/><circle class="cls-24" cx="1519.32" cy="190.31" r="3.35"/><circle class="cls-17" cx="1530.16" cy="190.31" r="3.35"/><rect class="cls-16" x="1232.57" y="291.63" width="219.78" height="8.83"/><rect class="cls-16" x="1232.57" y="315.28" width="131.98" height="8.83"/><rect class="cls-16" x="1232.57" y="338.94" width="161.24" height="8.83"/><rect class="cls-18" x="1162.59" y="273.96" width="91.47" height="91.47"/><path class="cls-16" d="M1254.8,366.17h-92.94v-92.94h92.94v92.94ZM1163.33,364.7h90.01v-90.01h-90.01v90.01Z"/><path class="cls-38" d="M1184.09,333.78v-27.27c0-5.85,4.76-10.61,10.61-10.61h27.27c5.85,0,10.61,4.76,10.61,10.61v27.27c0,5.85-4.76,10.61-10.61,10.61h-27.27c-5.85,0-10.61-4.76-10.61-10.61ZM1194.7,298.34c-4.5,0-8.17,3.66-8.17,8.17v27.27c0,4.5,3.66,8.17,8.17,8.17h27.27c4.5,0,8.17-3.66,8.17-8.17v-27.27c0-4.5-3.66-8.17-8.17-8.17h-27.27Z"/><path class="cls-38" d="M1208.33,315.98c-2.3,0-4.16,1.86-4.16,4.16h-4.16c0-4.6,3.73-8.33,8.33-8.33,4.6,0,8.33,3.73,8.33,8.33h-4.16c0-2.3-1.86-4.16-4.16-4.16Z"/><path class="cls-38" d="M1212.5,320.14c0,2.3,1.86,4.16,4.16,4.16v4.16c-4.6,0-8.33-3.73-8.33-8.33h4.16Z"/><path class="cls-38" d="M1200,324.31c2.3,0,4.16-1.86,4.16-4.16h4.16c0,4.6-3.73,8.33-8.33,8.33v-4.16Z"/><rect class="cls-16" x="1219.69" y="432.88" width="219.78" height="8.83" transform="translate(2659.16 874.58) rotate(-180)"/><rect class="cls-16" x="1307.49" y="456.53" width="131.98" height="8.83" transform="translate(2746.96 921.88) rotate(-180)"/><rect class="cls-16" x="1278.22" y="480.18" width="161.24" height="8.83" transform="translate(2717.69 969.18) rotate(-180)"/><rect class="cls-18" x="1414.85" y="415.2" width="91.47" height="91.47"/><path class="cls-16" d="M1507.05,507.41h-92.94v-92.94h92.94v92.94ZM1415.58,505.95h90.01v-90.01h-90.01v90.01Z"/><path class="cls-21" d="M1436.34,474.58v-27.27c0-5.85,4.76-10.61,10.61-10.61h27.27c5.85,0,10.61,4.76,10.61,10.61v27.27c0,5.85-4.76,10.61-10.61,10.61h-27.27c-5.85,0-10.61-4.76-10.61-10.61ZM1446.95,439.14c-4.5,0-8.17,3.66-8.17,8.17v27.27c0,4.5,3.66,8.17,8.17,8.17h27.27c4.5,0,8.17-3.66,8.17-8.17v-27.27c0-4.5-3.66-8.17-8.17-8.17h-27.27Z"/><path class="cls-21" d="M1460.58,456.78c-2.3,0-4.16,1.86-4.16,4.16h-4.16c0-4.6,3.73-8.33,8.33-8.33,4.6,0,8.33,3.73,8.33,8.33h-4.16c0-2.3-1.86-4.16-4.16-4.16Z"/><path class="cls-21" d="M1464.75,460.94c0,2.3,1.86,4.16,4.16,4.16v4.16c-4.6,0-8.33-3.73-8.33-8.33h4.16Z"/><path class="cls-21" d="M1452.26,465.1c2.3,0,4.16-1.86,4.16-4.16h4.16c0,4.6-3.73,8.33-8.33,8.33v-4.16Z"/><rect class="cls-16" x="1219.69" y="574.12" width="219.78" height="8.83" transform="translate(2659.16 1157.06) rotate(-180)"/><rect class="cls-16" x="1307.49" y="597.77" width="131.98" height="8.83" transform="translate(2746.96 1204.36) rotate(-180)"/><rect class="cls-16" x="1278.22" y="621.42" width="161.24" height="8.83" transform="translate(2717.69 1251.66) rotate(-180)"/><rect class="cls-18" x="1414.85" y="556.45" width="91.47" height="91.47"/><path class="cls-16" d="M1507.05,648.65h-92.94v-92.94h92.94v92.94ZM1415.58,647.19h90.01v-90.01h-90.01v90.01Z"/><path class="cls-21" d="M1436.34,615.82v-27.27c0-5.85,4.76-10.61,10.61-10.61h27.27c5.85,0,10.61,4.76,10.61,10.61v27.27c0,5.85-4.76,10.61-10.61,10.61h-27.27c-5.85,0-10.61-4.76-10.61-10.61ZM1446.95,580.38c-4.5,0-8.17,3.66-8.17,8.17v27.27c0,4.5,3.66,8.17,8.17,8.17h27.27c4.5,0,8.17-3.66,8.17-8.17v-27.27c0-4.5-3.66-8.17-8.17-8.17h-27.27Z"/><path class="cls-21" d="M1460.58,598.02c-2.3,0-4.16,1.86-4.16,4.16h-4.16c0-4.6,3.73-8.33,8.33-8.33,4.6,0,8.33,3.73,8.33,8.33h-4.16c0-2.3-1.86-4.16-4.16-4.16Z"/><path class="cls-21" d="M1464.75,602.18c0,2.3,1.86,4.16,4.16,4.16v4.16c-4.6,0-8.33-3.73-8.33-8.33h4.16Z"/><path class="cls-21" d="M1452.26,606.35c2.3,0,4.16-1.86,4.16-4.16h4.16c0,4.6-3.73,8.33-8.33,8.33v-4.16Z"/><circle class="cls-18" cx="927.04" cy="634.55" r="84"/><path class="cls-16" d="M927.04,719.28c-46.72,0-84.73-38.01-84.73-84.73s38.01-84.73,84.73-84.73,84.73,38.01,84.73,84.73-38.01,84.73-84.73,84.73ZM927.04,551.28c-45.91,0-83.27,37.35-83.27,83.27s37.35,83.27,83.27,83.27,83.27-37.35,83.27-83.27-37.35-83.27-83.27-83.27Z"/><path class="cls-23" d="M927.04,686.07c-28.41,0-51.52-23.11-51.52-51.52s23.11-51.52,51.52-51.52,51.52,23.11,51.52,51.52-23.11,51.52-51.52,51.52ZM927.04,584.49c-27.6,0-50.06,22.45-50.06,50.06s22.45,50.05,50.06,50.05,50.05-22.45,50.05-50.05-22.45-50.06-50.05-50.06Z"/><path class="cls-23" d="M902.8,648.18v-27.27c0-5.85,4.76-10.61,10.61-10.61h27.27c5.85,0,10.61,4.76,10.61,10.61v27.27c0,5.85-4.76,10.61-10.61,10.61h-27.27c-5.85,0-10.61-4.76-10.61-10.61ZM913.41,612.75c-4.5,0-8.17,3.66-8.17,8.17v27.27c0,4.5,3.66,8.17,8.17,8.17h27.27c4.5,0,8.17-3.66,8.17-8.17v-27.27c0-4.5-3.66-8.17-8.17-8.17h-27.27Z"/><path class="cls-23" d="M927.04,630.38c-2.3,0-4.16,1.86-4.16,4.16h-4.16c0-4.6,3.73-8.33,8.33-8.33,4.6,0,8.33,3.73,8.33,8.33h-4.16c0-2.3-1.86-4.16-4.16-4.16Z"/><path class="cls-23" d="M931.21,634.55c0,2.3,1.86,4.16,4.16,4.16v4.16c-4.6,0-8.33-3.73-8.33-8.33h4.16Z"/><path class="cls-23" d="M918.72,638.71c2.3,0,4.16-1.86,4.16-4.16h4.16c0,4.6-3.73,8.33-8.33,8.33v-4.16Z"/></svg>